<?xml version="1.0" encoding="utf-8"?>
<!-- Generator: Adobe Illustrator 19.0.0, SVG Export Plug-In . SVG Version: 6.00 Build 0)  -->
<svg version="1.1" id="Layer_1" xmlns="http://www.w3.org/2000/svg" xmlns:xlink="http://www.w3.org/1999/xlink" x="0px" y="0px"
	 viewBox="-987 989 24 24" style="enable-background:new -987 989 24 24;" xml:space="preserve">
<style type="text/css">
	.st0{fill:#5F374A;}
</style>
<g id="radiobttom_active" transform="translate(-508 -240)">
	<path id="radio_on" class="st0" d="M-467,1235c-3.3,0-6,2.7-6,6s2.7,6,6,6s6-2.7,6-6c0-3.3-2.6-6-5.9-6
		C-466.9,1235-467,1235-467,1235z M-467,1229c-6.6,0-12,5.4-12,12s5.4,12,12,12s12-5.4,12-12C-455,1234.4-460.4,1229-467,1229z
		 M-467,1250.6c-5.3,0-9.6-4.3-9.6-9.6s4.3-9.6,9.6-9.6s9.6,4.3,9.6,9.6C-457.4,1246.3-461.7,1250.6-467,1250.6z"/>
</g>
</svg>
