<?xml version="1.0" encoding="utf-8"?>
<!-- Generator: Adobe Illustrator 19.0.0, SVG Export Plug-In . SVG Version: 6.00 Build 0)  -->
<svg version="1.1" id="Layer_1" xmlns="http://www.w3.org/2000/svg" xmlns:xlink="http://www.w3.org/1999/xlink" x="0px" y="0px"
	 viewBox="-987 989 24 24" style="enable-background:new -987 989 24 24;" xml:space="preserve">
<style type="text/css">
	.st0{fill:#5F374A;}
	.st1{fill:none;}
</style>
<g id="check_active" transform="translate(-290 -244)">
	<g id="Group_8199" transform="translate(291 245)">
		<path id="check_on_light" class="st0" d="M-967.4,989h-17.1c-1.3,0-2.4,1.1-2.4,2.4v17.1c0,1.3,1.1,2.4,2.4,2.4h17.1
			c1.3,0,2.4-1.1,2.4-2.4v-17.1C-965,990.1-966.1,989-967.4,989z M-978.4,1006.1l-6.1-5.9l1.7-1.6l4.4,4.2l9.3-8.9l1.7,1.6
			C-967.4,995.5-978.4,1006.1-978.4,1006.1z"/>
	</g>
	<path id="Rectangle_4538" class="st1" d="M-697,1233h24v24h-24V1233z"/>
</g>
</svg>
