<?xml version="1.0" encoding="utf-8"?>
<!-- Generator: Adobe Illustrator 19.0.0, SVG Export Plug-In . SVG Version: 6.00 Build 0)  -->
<svg version="1.1" id="ic_piv" xmlns="http://www.w3.org/2000/svg" xmlns:xlink="http://www.w3.org/1999/xlink" x="0px" y="0px"
	 viewBox="-987 989 24 24" style="enable-background:new -987 989 24 24;" xml:space="preserve">
<style type="text/css">
	.st0{fill:#5F374A;}
	.st1{fill:none;}
</style>
<g id="Group_8935">
	<g id="Group_8934">
		<path id="Path_18928" class="st0" d="M-975,991c-5.5,0-10,4.5-10,10s4.5,10,10,10s10-4.5,10-10S-969.5,991-975,991z M-975,1010.2
			c-5.1,0-9.2-4.1-9.2-9.2s4.1-9.2,9.2-9.2s9.2,4.1,9.2,9.2S-969.9,1010.2-975,1010.2L-975,1010.2z"/>
		<path id="Path_18929" class="st0" d="M-966.5,1001c0-4.7-3.8-8.5-8.5-8.5s-8.5,3.8-8.5,8.5s3.8,8.5,8.5,8.5
			S-966.5,1005.7-966.5,1001z M-979,1002.9h4.5v0.9h-4.5V1002.9z M-973.5,999.7c1.9,0.1,3.4,1.7,3.3,3.7c0,0.1,0,0.3,0,0.4
			c-0.1,1.9-1.8,3.4-3.7,3.2h-4.3v-1.1l3,0h1.2c0.1,0,0.3,0,0.4,0c1.3-0.1,2.3-1.2,2.2-2.6c0-0.1,0-0.3,0-0.4
			c-0.1-1.3-1.3-2.3-2.6-2.2h-4V995h1.2v4.7h3C-973.7,999.7-973.6,999.7-973.5,999.7z"/>
	</g>
</g>
<path id="Rectangle_4543" class="st1" d="M-987,989h24v24h-24V989z"/>
</svg>
