<?xml version="1.0" encoding="utf-8"?>
<!-- Generator: Adobe Illustrator 19.0.0, SVG Export Plug-In . SVG Version: 6.00 Build 0)  -->
<svg version="1.1" id="ic_empty_Dark_transactions" xmlns="http://www.w3.org/2000/svg" xmlns:xlink="http://www.w3.org/1999/xlink"
	 x="0px" y="0px" viewBox="-949 951 100 100" style="enable-background:new -949 951 100 100;" xml:space="preserve">
<style type="text/css">
	.st0{fill:#5F374A;}
	.st1{fill:#A09EA5;}
	.st2{fill:none;}
</style>
<g id="Group_9036">
	<path id="Path_18988" class="st0" d="M-899,977c-13.3,0-24,10.7-24,24s10.7,24,24,24s24-10.7,24-24S-885.7,977-899,977z M-899,1019
		c-9.9,0-18-8.1-18-18s8.1-18,18-18s18,8.1,18,18S-889.1,1019-899,1019z"/>
	<g id="Group_9035">
		<g id="Group_9033">
			<g id="Group_9032">
				<path id="Rectangle_4692" class="st1" d="M-906.8,1003.9h9.6v2h-9.6V1003.9z"/>
				<path id="Path_18989" class="st1" d="M-888.2,1005c0,4.7-3.3,7.7-7.8,7.7h-9.2v-2.3l6.3,0h2.6c3.3,0,5.6-2,5.6-5.4
					c0-3.5-2.2-5.5-5.6-5.5h-8.4v-12.2h2.5v10h6.3c0.3,0,0.5,0,0.8,0C-891.1,997.4-888,1000.9-888.2,1005"/>
			</g>
		</g>
		<g id="Group_9034">
			<path id="Path_18990" class="st1" d="M-899,982c-10.5,0-19,8.5-19,19s8.5,19,19,19s19-8.5,19-19C-880,990.5-888.5,982-899,982z
				 M-899,1018c-9.4,0-17-7.6-17-17s7.6-17,17-17s17,7.6,17,17C-882,1010.4-889.6,1018-899,1018z"/>
			<path id="Rectangle_4693" class="st1" d="M-866,1007h2v4h-2V1007z"/>
			<path id="Rectangle_4694" class="st1" d="M-866,995h2v8h-2V995z"/>
			<path id="Rectangle_4695" class="st1" d="M-934,999h2v8h-2V999z"/>
			<path id="Rectangle_4696" class="st1" d="M-934,991h2v4h-2V991z"/>
			<path id="Path_18991" class="st1" d="M-853.8,1022H-864v-7h-2v9h7.8l-14.8,17.5l-14.8-17.5h6.8v-2h-4.5
				c11.6-7.5,15-22.9,7.5-34.5c-6.4-9.9-18.9-14-29.9-9.8l-17.1-20.2l-19.2,22.5h10.2v7h2v-9h-7.8l14.8-17.5l14.8,17.5h-6.8v2h4.5
				c-11.6,7.5-15,22.9-7.5,34.5c6.4,9.9,18.9,14,29.9,9.8l17.1,20.2L-853.8,1022z M-922,1001c0-12.7,10.3-23,23-23s23,10.3,23,23
				s-10.3,23-23,23C-911.7,1024-922,1013.7-922,1001z"/>
		</g>
	</g>
</g>
<path id="Rectangle_4697" class="st2" d="M-949,951h100v100h-100V951z"/>
</svg>
