<?xml version="1.0" encoding="utf-8"?>
<!-- Generator: Adobe Illustrator 19.0.0, SVG Export Plug-In . SVG Version: 6.00 Build 0)  -->
<svg version="1.1" id="Layer_2" xmlns="http://www.w3.org/2000/svg" xmlns:xlink="http://www.w3.org/1999/xlink" x="0px" y="0px"
	 viewBox="-849 951 300 100" style="enable-background:new -849 951 300 100;" xml:space="preserve">
<style type="text/css">
	.st0{fill:#FFFFFF;}
	.st1{fill:#FFFFFF;stroke:#FFFFFF;stroke-width:0.4416;stroke-miterlimit:10;}
	.st2{fill:none;stroke:#000100;stroke-width:1.1639;stroke-miterlimit:10;}
	.st3{fill:#99351F;}
	.st4{fill:#3C2028;}
	.st5{opacity:0.7;}
	.st6{opacity:0.2044;clip-path:url(#SVGID_2_);fill:#F0F1F1;}
	.st7{opacity:0.4195;clip-path:url(#SVGID_2_);fill:#F0F1F1;}
	.st8{opacity:0.4164;clip-path:url(#SVGID_2_);fill:#F0F1F1;}
	.st9{opacity:0.1666;clip-path:url(#SVGID_2_);fill:#F0F1F1;}
	.st10{opacity:0.3711;clip-path:url(#SVGID_2_);fill:#F0F1F1;}
	.st11{opacity:0.4249;clip-path:url(#SVGID_2_);fill:#F0F1F1;}
	.st12{opacity:0.3651;clip-path:url(#SVGID_2_);fill:#F0F1F1;}
	.st13{opacity:0.1762;clip-path:url(#SVGID_2_);fill:#F0F1F1;}
	.st14{opacity:0.3003;clip-path:url(#SVGID_2_);fill:#F0F1F1;}
	.st15{opacity:0.3516;clip-path:url(#SVGID_2_);fill:#F0F1F1;}
	.st16{opacity:0.3515;clip-path:url(#SVGID_2_);fill:#F0F1F1;}
	.st17{opacity:0.4243;clip-path:url(#SVGID_2_);fill:#F0F1F1;}
	.st18{opacity:0.3528;clip-path:url(#SVGID_2_);fill:#F0F1F1;}
	.st19{opacity:0.1772;clip-path:url(#SVGID_2_);fill:#F0F1F1;}
	.st20{opacity:0.3849;clip-path:url(#SVGID_2_);fill:#F0F1F1;}
	.st21{opacity:0.3198;clip-path:url(#SVGID_2_);fill:#F0F1F1;}
	.st22{opacity:0.4668;clip-path:url(#SVGID_2_);fill:#F0F1F1;}
	.st23{opacity:0.3178;clip-path:url(#SVGID_2_);fill:#F0F1F1;}
	.st24{opacity:0.1053;clip-path:url(#SVGID_2_);fill:#F0F1F1;}
	.st25{opacity:0.2868;clip-path:url(#SVGID_2_);fill:#F0F1F1;}
	.st26{opacity:0.3782;clip-path:url(#SVGID_2_);fill:#F0F1F1;}
	.st27{opacity:0.1864;clip-path:url(#SVGID_2_);fill:#F0F1F1;}
	.st28{opacity:0.466;clip-path:url(#SVGID_2_);fill:#F0F1F1;}
	.st29{clip-path:url(#SVGID_2_);fill:none;stroke:#000100;stroke-width:1.1639;stroke-miterlimit:10;}
	.st30{opacity:0.65;}
	.st31{opacity:0.65;fill:#FFFFFF;}
	.st32{fill:#060909;}
	.st33{opacity:0.75;fill:#FEFDFD;}
	.st34{fill:#050569;}
</style>
<g>
	<path id="XMLID_86_" class="st0" d="M-712.9,1034.6h-11.7c-0.4,0-0.8,0-1.2,0c-5.8-0.2-10.3-4.4-10-9.3c0-0.3,0-0.6,0-1
		c0.3-5,5.4-8.8,11.2-8.5h11.7L-712.9,1034.6z M-716.6,1018.6h-7.5c-0.4,0-0.8,0-1.2,0c-4.1,0.3-7.1,3.3-6.8,6.7c0,0.3,0,0.7,0,1
		c0.4,3.4,3.9,5.9,8,5.6h3.8l3.8,0L-716.6,1018.6z"/>
	<path id="XMLID_70_" class="st0" d="M-654,1034.3v-18.7v-3v-9.9h3.6v9.9v3v18.7L-654,1034.3z"/>
	<path id="Path_18985_5_" class="st0" d="M-688.7,1015.9h-9c-5.9-0.3-10.9,3.5-11.2,8.5c0,0.3,0,0.6,0,1c-0.3,4.9,4.2,9.1,10,9.3
		c0.4,0,0.8,0,1.2,0h13.2v-2.8l-9,0h-3.8c-4,0.3-7.6-2.2-8-5.6c0-0.3,0-0.7,0-1c-0.3-3.5,2.8-6.5,6.8-6.7c0.4,0,0.8,0,1.2,0h12.1
		v-14.8h-3.6V1015.9z"/>
	<path id="Rectangle_4687_4_" class="st0" d="M-696,1023.7h13.7v2.4H-696V1023.7z"/>
	<g id="XMLID_66_">
		<g id="XMLID_67_">
			<path id="XMLID_68_" class="st0" d="M-629.1,1013h-7.9v14.3c0,0.9,0.1,1.7,0.3,2.2c0.2,0.6,0.4,1.1,0.8,1.4
				c0.3,0.3,0.7,0.6,1.2,0.7c0.5,0.1,1,0.2,1.5,0.2c0.5,0,1-0.1,1.6-0.2c0.5-0.1,1.1-0.3,2.6-0.7l0.2,3.1c-1.6,0.4-2.3,0.6-3,0.7
				c-0.7,0.1-1.4,0.2-2.3,0.2c-0.7,0-1.4-0.1-2.1-0.3c-0.7-0.2-1.4-0.5-2.1-1c-0.6-0.5-1.2-1.1-1.6-2c-0.4-0.8-0.6-1.9-0.6-3.3V1013
				h-5.2v-3h5.2v-6.9h3.6v6.9h7.9V1013z"/>
		</g>
		<path id="Rectangle_4687_3_" class="st0" d="M-638.3,1016h9.2v3h-9.2V1016z"/>
	</g>
	<path id="Path_18985_4_" class="st1" d="M-659.3,1017.5v-1.8h-2.7v7.5c0,0.4,0,0.8,0,1.2c-0.3,4.1-3.3,7.8-6.7,7.5
		c-0.3,0-0.7,0-1,0c-3.4-0.4-5.9-4.6-5.6-8.6v-3.8l0-3.8h-2.8v7.9c0,0.4,0,0.8,0,1.2c0.2,5.8,4.4,10.3,9.3,10c0.3,0,0.6,0,1,0
		c5-0.3,8.8-5.4,8.5-11.2L-659.3,1017.5L-659.3,1017.5z"/>
</g>
<g>
	<path id="Path_18985_10_" class="st0" d="M-662.6,977.1h-4.6c-5.9-0.3-10.9,3.5-11.2,8.5c0,0.3,0,0.6,0,1c-0.3,4.9,4.2,9.1,10,9.3
		c0.4,0,0.8,0,1.2,0h4.6l0-2.8l-4.6,0h0.4c-4,0.3-7.6-2.2-8-5.6c0-0.3,0-0.7,0-1c-0.3-3.5,2.8-6.5,6.8-6.7c0.4,0,0.8,0,1.2,0h4.2
		L-662.6,977.1z"/>
	<path id="XMLID_91_" class="st0" d="M-646.4,995.9l-1.8,0c-0.4,0-0.8,0-1.2,0c-5.8-0.2-10.3-4.4-10-9.3c0-0.3,0-0.6,0-1
		c0.3-5,5.4-8.8,11.2-8.5h1.1h1.3c5.9-0.3,10.9,3.5,11.2,8.5c0,0.3,0,0.6,0,1c0.3,4.9-4.2,9.1-10,9.3c-0.4,0-0.8,0.1-1.2,0
		 M-645.8,993.1l0.2,0l0.3,0c3.9,0.1,6.7-2.2,7.1-5.6c0-0.3,0-0.7,0-1c0.3-3.5-2.7-6.3-6.8-6.7c-0.4,0-0.1,0-0.5,0h-1.5h-0.6
		c-0.4,0-0.8,0-1.2,0c-4,0.4-7.1,3.3-6.8,6.7c0,0.3,0,0.7,0,1c0.4,3.4,4,5.8,8,5.6h0.5h0.9"/>
	<g id="XMLID_82_">
		<g id="XMLID_83_">
			<path id="XMLID_84_" class="st0" d="M-681.3,973.8h-7.9v14.3c0,0.9,0.1,1.7,0.3,2.2c0.2,0.6,0.4,1.1,0.8,1.4
				c0.3,0.3,0.7,0.6,1.2,0.7c0.5,0.1,1,0.2,1.5,0.2c0.5,0,1-0.1,1.6-0.2c0.5-0.1,1.1-0.3,2.6-0.7l0.2,3.1c-1.6,0.4-2.3,0.6-3,0.7
				c-0.7,0.1-1.4,0.2-2.3,0.2c-0.7,0-1.4-0.1-2.1-0.3c-0.7-0.2-1.4-0.5-2.1-1c-0.6-0.5-1.2-1.1-1.6-2c-0.4-0.8-0.6-1.9-0.6-3.3
				v-15.2h-5.2v-3h5.2v-6.9h3.6v6.9h7.9V973.8z"/>
		</g>
		<path id="Rectangle_4687_5_" class="st0" d="M-690.6,976.8h9.2v3h-9.2V976.8z"/>
	</g>
	<g id="XMLID_77_">
		<path id="XMLID_80_" class="st0" d="M-701.2,977.1v18.7l-3.6,0v-18.7"/>
		<path id="XMLID_78_" class="st0" d="M-704.8,973.8v-1.7v-0.6v-0.8h3.6v0.8v0.6v1.7L-704.8,973.8z"/>
	</g>
	<g id="XMLID_72_">
		<path id="XMLID_75_" class="st0" d="M-626.7,977.1v18.7l-3.6,0v-18.7"/>
		<path id="XMLID_73_" class="st0" d="M-630.3,973.8v-1.7v-0.6v-0.8h3.6v0.8v0.6v1.7L-630.3,973.8z"/>
	</g>
	<path id="Path_18985_3_" class="st1" d="M-621.5,992.4v3.4h2.7v-9.1c0-0.4,0-0.8,0-1.2c0.3-4.1,3.3-6.5,6.7-6.2c0.3,0,0.7,0,1,0
		c3.4,0.4,5.9,3.3,5.6,7.3v3.8l0,5.4h2.8v-9.6c0-0.4,0-0.8,0-1.2c-0.2-5.3-4.4-8.2-9.3-8.2c-0.3,0-0.6,0-1,0c-5,0.3-8.8,3.6-8.5,9.5
		L-621.5,992.4L-621.5,992.4z"/>
	<g id="XMLID_65_">
		<path id="Rectangle_4687_2_" class="st0" d="M-722.6,984.8h-13.7v2.4h13.7V984.8z"/>
		<path id="Path_18985_2_" class="st0" d="M-729.9,976.7h9c5.9-0.3,10.9,3.5,11.2,8.5c0,0.3,0,0.6,0,1c0.3,4.9-4.2,9.1-10,9.3
			c-0.4,0-0.8,0-1.2,0h-13.2v-2.8l9,0h3.8c4,0.3,7.6-2.2,8-5.6c0-0.3,0-0.7,0-1c0.3-3.5-2.8-6.5-6.8-6.7c-0.4,0-0.8,0-1.2,0h-12.1
			v-14.8h3.6V976.7z"/>
	</g>
</g>
<g>
	<circle class="st2" cx="-798.5" cy="1001" r="44.6"/>
	<circle class="st3" cx="-798.5" cy="1001" r="40.2"/>
	<circle class="st0" cx="-798.5" cy="1001" r="44.6"/>
	<circle class="st4" cx="-798.5" cy="1001" r="40.2"/>
	<g class="st5">
		<defs>
			<circle id="SVGID_1_" class="st5" cx="-798.5" cy="1001" r="40.2"/>
		</defs>
		<clipPath id="SVGID_2_">
			<use xlink:href="#SVGID_1_"  style="overflow:visible;"/>
		</clipPath>
		<path class="st6" d="M-748.3,1034c-8.1,4.9-37.9,0-37.9,0s3-16.4,7.3-19.3c8.3-5.8,40.6,0,40.6,0S-743.7,1031.2-748.3,1034z"/>
		<path class="st7" d="M-751,1040.2c-8.1,4.9-37.9,0-37.9,0s3-16.4,7.3-19.3c8.3-5.8,40.6,0,40.6,0S-746.3,1037.4-751,1040.2z"/>
		<path class="st8" d="M-760.9,1034.3c-8.1,4.9-37.9,0-37.9,0s3-16.4,7.3-19.3c8.3-5.8,40.6,0,40.6,0S-756.3,1031.5-760.9,1034.3z"
			/>
		<path class="st9" d="M-737.5,1030.5c-8.1,4.9-37.9,0-37.9,0s3-16.4,7.3-19.3c8.3-5.8,40.6,0,40.6,0S-732.8,1027.7-737.5,1030.5z"
			/>
		<path class="st10" d="M-755.8,1011.9c-4.9,8.1-33.7,17.4-33.7,17.4s-4.9-16-2.5-20.5c4.7-9,36-18.7,36-18.7
			S-753,1007.2-755.8,1011.9z"/>
		<path class="st11" d="M-755.4,1018.6c-4.9,8.1-33.7,17.4-33.7,17.4s-4.9-16-2.5-20.5c4.7-9,36-18.7,36-18.7
			S-752.5,1013.9-755.4,1018.6z"/>
		<path class="st12" d="M-766.9,1018c-4.9,8.1-33.7,17.4-33.7,17.4s-4.9-16-2.5-20.5c4.7-9,36-18.7,36-18.7
			S-764.1,1013.3-766.9,1018z"/>
		<path class="st13" d="M-747.8,1003.8c-4.9,8.1-33.7,17.4-33.7,17.4s-4.9-16-2.5-20.5c4.7-9,36-18.7,36-18.7
			S-745,999.1-747.8,1003.8z"/>
		<path class="st14" d="M-772.7,995.7c-0.6,9.5-21.9,31-21.9,31s-11.7-11.9-11.6-17.1c0.1-10.1,23.4-33.1,23.4-33.1
			S-772.3,990.3-772.7,995.7z"/>
		<path class="st15" d="M-769.2,1001.4c-0.6,9.5-21.9,31-21.9,31s-11.7-11.9-11.6-17.1c0.1-10.1,23.4-33.1,23.4-33.1
			S-768.8,996-769.2,1001.4z"/>
		<path class="st16" d="M-779.7,1006.2c-0.6,9.5-21.9,31-21.9,31s-11.7-11.9-11.6-17.1c0.1-10.1,23.4-33.1,23.4-33.1
			S-779.4,1000.7-779.7,1006.2z"/>
		<path class="st17" d="M-769.3,984.8c-0.6,9.5-21.9,31-21.9,31s-11.7-11.9-11.6-17.1c0.1-10.1,23.4-33.1,23.4-33.1
			S-769,979.4-769.3,984.8z"/>
		<path class="st18" d="M-795.1,989.1c3.8,8.7-5.2,37.6-5.2,37.6s-15.8-5.2-18.2-9.8c-4.6-9,5.5-40.2,5.5-40.2
			S-797.3,984.1-795.1,989.1z"/>
		<path class="st19" d="M-789.4,992.5c3.8,8.7-5.2,37.6-5.2,37.6s-15.8-5.2-18.2-9.8c-4.6-9,5.5-40.2,5.5-40.2
			S-791.6,987.5-789.4,992.5z"/>
		<path class="st20" d="M-796.6,1001.6c3.8,8.7-5.2,37.6-5.2,37.6s-15.8-5.2-18.2-9.8c-4.6-9,5.5-40.2,5.5-40.2
			S-798.7,996.6-796.6,1001.6z"/>
		<path class="st21" d="M-797.1,977.8c3.8,8.7-5.2,37.6-5.2,37.6s-15.8-5.2-18.2-9.8c-4.6-9,5.5-40.2,5.5-40.2
			S-799.3,972.9-797.1,977.8z"/>
		<path class="st22" d="M-818.1,993.5c7.4,6,12.7,35.7,12.7,35.7s-16.5,2.6-20.7-0.4c-8.2-5.9-13.6-38.2-13.6-38.2
			S-822.3,990.1-818.1,993.5z"/>
		<path class="st23" d="M-811.4,993.9c7.4,6,12.7,35.7,12.7,35.7s-16.5,2.6-20.7-0.4c-8.2-5.9-13.6-38.2-13.6-38.2
			S-815.6,990.5-811.4,993.9z"/>
		<path class="st24" d="M-813.6,1005.3c7.4,6,12.7,35.7,12.7,35.7s-16.5,2.6-20.7-0.4c-8.2-5.9-13.6-38.2-13.6-38.2
			S-817.8,1001.9-813.6,1005.3z"/>
		<path class="st25" d="M-825,984.4c7.4,6,12.7,35.7,12.7,35.7s-16.5,2.6-20.7-0.4c-8.2-5.9-13.6-38.2-13.6-38.2
			S-829.3,981-825,984.4z"/>
		<path class="st22" d="M-836.4,1008c9.3,1.9,27.7,25.9,27.7,25.9s-13.4,9.9-18.5,9.2c-10-1.5-29.6-27.7-29.6-27.7
			S-841.8,1006.9-836.4,1008z"/>
		<path class="st26" d="M-830.3,1005.3c9.3,1.9,27.7,25.9,27.7,25.9s-13.4,9.9-18.5,9.2c-10-1.5-29.6-27.7-29.6-27.7
			S-835.6,1004.2-830.3,1005.3z"/>
		<path class="st27" d="M-827,1016.4c9.3,1.9,27.7,25.9,27.7,25.9s-13.4,9.9-18.5,9.2c-10-1.5-29.6-27.7-29.6-27.7
			S-832.4,1015.3-827,1016.4z"/>
		<path class="st28" d="M-846.8,1003.1c9.3,1.9,27.7,25.9,27.7,25.9s-13.4,9.9-18.5,9.2c-10-1.5-29.6-27.7-29.6-27.7
			S-852.1,1002-846.8,1003.1z"/>
		<circle class="st29" cx="-798.5" cy="1001" r="44.6"/>
	</g>
	<g class="st30">
		<path id="Rectangle_4687_6_" class="st0" d="M-815.9,1009l20.2-2.5l0.4,3.6l-20.2,2.5L-815.9,1009z"/>
		<path id="Path_18985_11_" class="st0" d="M-809.9,978l-5.3,0.6l2.7,21.8l17.8-2.2c0.6-0.1,1.2-0.2,1.8-0.2
			c6-0.4,11.1,3.5,11.3,8.7c0.1,0.5,0.2,1,0.2,1.5c0.1,5.1-4.7,9.4-10.7,9.6l-5.6,0.7l-13.3,1.6l0.5,4.1l19.4-2.4
			c0.6,0,1.2-0.1,1.8-0.2c8.5-1.4,14.4-8.3,13.1-15.5c0-0.5-0.1-0.9-0.2-1.4c-1.4-7.3-9.5-11.9-18-10.5l-13.3,1.6L-809.9,978z"/>
	</g>
	<path class="st31" d="M-829.3,1030.1L-829.3,1030.1C-829.3,1030.1-829.3,1030-829.3,1030.1L-829.3,1030.1c0-0.3-0.1-0.4-0.1-0.6
		c-0.1-0.3,0-0.5,0.3-0.6c0.5-0.3,1.1-0.5,1.7-0.7c0.2-0.1,0.5-0.2,0.7-0.2c0.4-0.1,0.5-0.3,0.5-0.7c0-0.4-0.1-0.8-0.2-1.2
		c-0.2-0.9-0.2-1.8-0.4-2.7c-0.2-1-0.5-2.1-0.8-3.1c-0.3-1.1-0.4-2.2-0.5-3.3c-0.1-1.4-0.3-2.8-0.4-4.2c-0.2-1.8-0.4-3.7-0.6-5.5
		c0-0.4-0.1-0.7-0.2-1c-0.1-0.1-0.1-0.3-0.3-0.4c-0.1-0.1-0.1-0.2-0.2-0.3c-0.1-0.8,0-1.7,0-2.5c0.1-1.2,0.4-2.4,0.5-3.6
		c0-0.8,0-1.7,0-2.5c0-0.1-0.1-0.2-0.1-0.2c-0.2-0.1-0.4-0.2-0.7-0.2c-0.5,0-0.9-0.3-1.3-0.6c-0.1-0.1-0.3-0.3-0.4-0.4
		c-0.4-0.3-0.4-0.7-0.3-1.2c0.1-0.2,0.1-0.5,0.2-0.7c0.4-0.8,0.5-1.6,0.8-2.4c0.1-0.4,0.1-0.8,0.1-1.2c0.1-0.9,0.2-1.8,0.1-2.6
		c0-0.2,0-0.3,0-0.5c-0.1-0.4,0-0.7,0.2-0.9c0.4-0.5,0.8-1,1.5-1.2c0.5-0.2,1-0.5,1.5-0.7c0.2-0.1,0.3-0.2,0.4-0.3
		c0.3-0.4,0.6-0.9,0.9-1.3c0,0,0.1-0.1,0.1-0.1c0.3-0.3,0.4-0.6,0.1-0.9c-0.2-0.3-0.4-0.7-0.6-1.1c-0.2-0.3-0.3-0.6-0.6-0.8
		c-0.4-0.3-0.4-0.8-0.2-1.3c0.1-0.2,0.1-0.3,0-0.5c-0.2-0.6-0.4-1.2-0.3-1.8c0.2-1.1,0.7-1.9,1.9-2.3c1-0.3,2-0.3,3,0.2
		c1.2,0.6,1.5,1.3,1.4,2.7c-0.1,1.3-0.4,2.5-0.7,3.7c0,0.1,0,0.2,0,0.2l0,0c-0.1,0-0.1,0.1-0.2,0.2c-0.4,0.7-0.9,1.3-1.4,1.9
		c-0.4,0.4-0.9,0.5-1.5,0.3c-0.2-0.1-0.4-0.2-0.6-0.4c-0.1,0-0.1-0.1-0.2-0.1c0,0.2,0,0.3,0,0.5c0,0.3,0,0.6-0.3,0.8
		c-0.2,0.3-0.3,0.6-0.3,1c0,1.3,0,2.6,0,3.9c0,0.3,0.1,0.6,0.2,0.9c0,0.1,0.1,0.2,0.2,0.1c0.2-0.1,0.5-0.1,0.6,0
		c0.2,0.3,0.4,0.3,0.6,0c0.1-0.1,0.1-0.2,0.2-0.3c0.3-0.7,0.6-1.5,0.9-2.2c0.7-1.8,1.3-3.6,2.3-5.3c0.1-0.1,0-0.2,0-0.3
		c-0.1-0.3-0.3-0.6-0.2-0.9l0,0c0.1,0.2,0.3,0.3,0.5,0.4c0.2,0.1,0.4,0.3,0.5,0.5c0.4,0.5,1,0.7,1.5,0.9c0.9,0.3,1.8,0.6,2.7,0.9
		c0.4,0.1,0.6,0.3,0.7,0.7c0.3,0.7,0.5,1.4,0.7,2.1c0.5,1.5,0.7,3,0.8,4.6c0,0.6-0.2,1.2-0.4,1.8c-0.2,0.9-0.4,1.8-0.7,2.7
		c-0.1,0.4-0.3,0.8-0.7,1c-0.4,0.1-0.5,0.3-0.6,0.7c-0.1,1.3,0,2.6,0,4c0,1.6,0.4,3,0.7,4.5c0,0.2,0,0.2-0.2,0.3
		c-0.3,0.1-0.6,0.2-0.9,0.3c-0.1,0-0.2,0.1-0.2,0.3c-0.1,1-0.1,2-0.2,3.1c-0.3,2-0.5,4-0.7,5.9c-0.1,0.5,0.1,1,0.2,1.5
		c0.1,0.9,0.3,1.8,0.2,2.7c0,0.2,0,0.3-0.1,0.5c-0.3,0.7-0.3,1.4-0.4,2.1c-0.1,1.3,0,2.6,0,3.9c0.1,1.2,0.4,2.3,0.8,3.4
		c0.2,0.7,0.6,1.3,1.1,1.9c0.3,0.3,0.5,0.7,0.7,1c0.1,0.2,0.2,0.3,0.2,0.6c0,0.5-0.3,0.7-0.8,0.6c-0.4-0.1-0.9-0.3-1.3-0.5
		c-0.2-0.1-0.4-0.2-0.5-0.5c-0.1-0.3-0.3-0.4-0.6-0.6c-0.5-0.4-1-0.7-1.5-0.9c-0.1-0.1-0.2-0.1-0.3-0.2c-0.4-0.2-0.6-0.5-0.6-1.1
		c0-0.8,0-0.8-0.8-0.6c-0.3,0.1-0.6,0.1-0.9,0.1c-0.5,0-1,0.2-1.4,0.6c-0.3,0.3-0.6,0.5-1.1,0.5c-1.1,0.1-2.2,0-3.4,0
		C-829.1,1030.2-829.2,1030.2-829.3,1030.1z M-822.2,1022.8c-0.1-1.4-0.2-2.9-0.6-4.3c-0.4-1.2-0.6-2.5-0.4-3.8
		c0.1-0.7,0.1-1.4,0-2.1c-0.1-0.3-0.1-0.5-0.3-0.7c-0.1-0.1-0.3-0.1-0.5-0.1c-0.2,0-0.1,0.2-0.1,0.3c0,0.3-0.1,0.6-0.1,0.9
		c-0.2,1.9-0.1,3.8,0.8,5.6c0.3,0.6,0.5,1.1,0.6,1.8c0.1,0.8,0.3,1.6,0.6,2.4c0,0.2,0.1,0.4,0.2,0.6
		C-822.1,1023.3-822.1,1023.1-822.2,1022.8z M-824.5,992.2c-0.1,0.1-0.1,0.2-0.1,0.2c-0.1,0.6-0.2,1.1-0.4,1.6
		c-0.1,0.3-0.2,0.5-0.5,0.6c-0.1,0-0.1,0.1-0.1,0.2c0,0.1,0,0.3,0,0.4c0,0.2,0.1,0.3,0.3,0.3c0.2,0,0.2-0.1,0.3-0.2
		c0.2-0.8,0.4-1.6,0.6-2.4C-824.4,992.7-824.4,992.5-824.5,992.2z"/>
	<path class="st32" d="M-829.1,1030.3L-829.1,1030.3C-829.1,1030.3-829.1,1030.2-829.1,1030.3L-829.1,1030.3c0-0.3-0.1-0.4-0.1-0.6
		c-0.1-0.3,0-0.5,0.3-0.6c0.5-0.3,1.1-0.5,1.7-0.7c0.2-0.1,0.5-0.2,0.7-0.2c0.4-0.1,0.5-0.3,0.5-0.7c0-0.4-0.1-0.8-0.2-1.2
		c-0.2-0.9-0.2-1.8-0.4-2.7c-0.2-1-0.5-2.1-0.8-3.1c-0.3-1.1-0.4-2.2-0.5-3.3c-0.1-1.4-0.3-2.8-0.4-4.2c-0.2-1.8-0.4-3.7-0.6-5.5
		c0-0.4-0.1-0.7-0.2-1c-0.1-0.1-0.1-0.3-0.3-0.4c-0.1-0.1-0.1-0.2-0.2-0.3c-0.1-0.8,0-1.7,0-2.5c0.1-1.2,0.4-2.4,0.5-3.6
		c0-0.8,0-1.7,0-2.5c0-0.1-0.1-0.2-0.1-0.2c-0.2-0.1-0.4-0.2-0.7-0.2c-0.5,0-0.9-0.3-1.3-0.6c-0.1-0.1-0.3-0.3-0.4-0.4
		c-0.4-0.3-0.4-0.7-0.3-1.2c0.1-0.2,0.1-0.5,0.2-0.7c0.4-0.8,0.5-1.6,0.8-2.4c0.1-0.4,0.1-0.8,0.1-1.2c0.1-0.9,0.2-1.8,0.1-2.6
		c0-0.2,0-0.3,0-0.5c-0.1-0.4,0-0.7,0.2-0.9c0.4-0.5,0.8-1,1.5-1.2c0.5-0.2,1-0.5,1.5-0.7c0.2-0.1,0.3-0.2,0.4-0.3
		c0.3-0.4,0.6-0.9,0.9-1.3c0,0,0.1-0.1,0.1-0.1c0.3-0.3,0.4-0.6,0.1-0.9c-0.2-0.3-0.4-0.7-0.6-1.1c-0.2-0.3-0.3-0.6-0.6-0.8
		c-0.4-0.3-0.4-0.8-0.2-1.3c0.1-0.2,0.1-0.3,0-0.5c-0.2-0.6-0.4-1.2-0.3-1.8c0.2-1.1,0.7-1.9,1.9-2.3c1-0.3,2-0.3,3,0.2
		c1.2,0.6,1.5,1.3,1.4,2.7c-0.1,1.3-0.4,2.5-0.7,3.7c0,0.1,0,0.2,0,0.2l0,0c-0.1,0-0.1,0.1-0.2,0.2c-0.4,0.7-0.9,1.3-1.4,1.9
		c-0.4,0.4-0.9,0.5-1.5,0.3c-0.2-0.1-0.4-0.2-0.6-0.4c-0.1,0-0.1-0.1-0.2-0.1c0,0.2,0,0.3,0,0.5c0,0.3,0,0.6-0.3,0.8
		c-0.2,0.3-0.3,0.6-0.3,1c0,1.3,0,2.6,0,3.9c0,0.3,0.1,0.6,0.2,0.9c0,0.1,0.1,0.2,0.2,0.1c0.2-0.1,0.5-0.1,0.6,0
		c0.2,0.3,0.4,0.3,0.6,0c0.1-0.1,0.1-0.2,0.2-0.3c0.3-0.7,0.6-1.5,0.9-2.2c0.7-1.8,1.3-3.6,2.3-5.3c0.1-0.1,0-0.2,0-0.3
		c-0.1-0.3-0.3-0.6-0.2-0.9l0,0c0.1,0.2,0.3,0.3,0.5,0.4c0.2,0.1,0.4,0.3,0.5,0.5c0.4,0.5,1,0.7,1.5,0.9c0.9,0.3,1.8,0.6,2.7,0.9
		c0.4,0.1,0.6,0.3,0.7,0.7c0.3,0.7,0.5,1.4,0.7,2.1c0.5,1.5,0.7,3,0.8,4.6c0,0.6-0.2,1.2-0.4,1.8c-0.2,0.9-0.4,1.8-0.7,2.7
		c-0.1,0.4-0.3,0.8-0.7,1c-0.4,0.1-0.5,0.3-0.6,0.7c-0.1,1.3,0,2.6,0,4c0,1.6,0.4,3,0.7,4.5c0,0.2,0,0.2-0.2,0.3
		c-0.3,0.1-0.6,0.2-0.9,0.3c-0.1,0-0.2,0.1-0.2,0.3c-0.1,1-0.1,2-0.2,3.1c-0.3,2-0.5,4-0.7,5.9c-0.1,0.5,0.1,1,0.2,1.5
		c0.1,0.9,0.3,1.8,0.2,2.7c0,0.2,0,0.3-0.1,0.5c-0.3,0.7-0.3,1.4-0.4,2.1c-0.1,1.3,0,2.6,0,3.9c0.1,1.2,0.4,2.3,0.8,3.4
		c0.2,0.7,0.6,1.3,1.1,1.9c0.3,0.3,0.5,0.7,0.7,1c0.1,0.2,0.2,0.3,0.2,0.6c0,0.5-0.3,0.7-0.8,0.6c-0.4-0.1-0.9-0.3-1.3-0.5
		c-0.2-0.1-0.4-0.2-0.5-0.5c-0.1-0.3-0.3-0.4-0.6-0.6c-0.5-0.4-1-0.7-1.5-0.9c-0.1-0.1-0.2-0.1-0.3-0.2c-0.4-0.2-0.6-0.5-0.6-1.1
		c0-0.8,0-0.8-0.8-0.6c-0.3,0.1-0.6,0.1-0.9,0.1c-0.5,0-1,0.2-1.4,0.6c-0.3,0.3-0.6,0.5-1.1,0.5c-1.1,0.1-2.2,0-3.4,0
		C-828.9,1030.4-829,1030.4-829.1,1030.3z M-822,1023c-0.1-1.4-0.2-2.9-0.6-4.3c-0.4-1.2-0.6-2.5-0.4-3.8c0.1-0.7,0.1-1.4,0-2.1
		c-0.1-0.3-0.1-0.5-0.3-0.7c-0.1-0.1-0.3-0.1-0.5-0.1c-0.2,0-0.1,0.2-0.1,0.3c0,0.3-0.1,0.6-0.1,0.9c-0.2,1.9-0.1,3.8,0.8,5.6
		c0.3,0.6,0.5,1.1,0.6,1.8c0.1,0.8,0.3,1.6,0.6,2.4c0,0.2,0.1,0.4,0.2,0.6C-821.9,1023.5-821.9,1023.3-822,1023z M-824.3,992.4
		c-0.1,0.1-0.1,0.2-0.1,0.2c-0.1,0.6-0.2,1.1-0.4,1.6c-0.1,0.3-0.2,0.5-0.5,0.6c-0.1,0-0.1,0.1-0.1,0.2c0,0.1,0,0.3,0,0.4
		c0,0.2,0.1,0.3,0.3,0.3c0.2,0,0.2-0.1,0.3-0.2c0.2-0.8,0.4-1.6,0.6-2.4C-824.2,992.9-824.2,992.7-824.3,992.4z"/>
	<path class="st32" d="M-822.2,980.7C-822.1,980.7-822.1,980.7-822.2,980.7L-822.2,980.7C-822.2,980.8-822.2,980.7-822.2,980.7
		L-822.2,980.7z"/>
	<path class="st33" d="M-822.2,980.7C-822.2,980.7-822.2,980.8-822.2,980.7c0,0.4,0.2,0.6,0.3,0.9c0,0.1,0.1,0.2,0,0.3
		c-1,1.7-1.6,3.5-2.3,5.3c-0.3,0.8-0.6,1.5-0.9,2.2c0,0.1-0.1,0.2-0.2,0.3c-0.2,0.3-0.4,0.3-0.6,0c-0.1-0.1-0.4-0.2-0.6,0
		c-0.2,0.1-0.2,0.1-0.2-0.1c-0.1-0.3-0.2-0.6-0.2-0.9c0-1.3,0-2.6,0-3.9c0-0.4,0.1-0.7,0.3-1c0.2-0.2,0.3-0.5,0.3-0.8
		c0-0.2,0-0.3,0-0.5c0.1,0,0.1,0,0.2,0.1c0.2,0.1,0.4,0.3,0.6,0.4c0.6,0.2,1.1,0.1,1.5-0.3c0.6-0.6,1-1.2,1.4-1.9
		C-822.3,980.8-822.3,980.7-822.2,980.7z"/>
	<path class="st33" d="M-824.3,992.4c0.1,0.2,0.1,0.5,0,0.7c-0.2,0.8-0.4,1.6-0.6,2.4c0,0.2-0.1,0.3-0.3,0.2c-0.2,0-0.3-0.1-0.3-0.3
		c0-0.1,0-0.3,0-0.4c0-0.1,0-0.1,0.1-0.2c0.3-0.1,0.4-0.3,0.5-0.6c0.2-0.5,0.4-1.1,0.4-1.6C-824.3,992.6-824.3,992.5-824.3,992.4z"
		/>
	<path class="st31" d="M-768.8,1032.6c0.1,0.3,0,0.5-0.3,0.8c-0.3,0.2-0.6,0.3-0.9,0.4c-0.4,0-0.8-0.1-1.2-0.3
		c-0.3-0.3-0.6-0.5-0.9-0.8c-0.2-0.7-0.2-1.4-0.1-2c0.2-0.9-0.1-1.6-0.7-2.2c-0.3,0.5-0.5,1.1-0.8,1.6c0,0.1,0,0.2-0.2,0.1
		c-0.1-0.1-0.2-0.1-0.1-0.2c0.3-0.7,0.4-1.4,0.4-2.1c0-0.3,0-0.6,0.1-0.9c0.1-0.4,0.2-0.7,0.6-0.9c0.1,0,0.2-0.1,0.3-0.1
		c0.2-0.1,0.2-0.1,0.2-0.3c-0.1-0.8-0.1-1.5-0.1-2.3c0-1-0.1-2-0.1-3c0-0.5-0.1-1.1-0.1-1.6c0.1-0.7,0.2-1.4,0.4-2.1
		c0-0.1,0-0.3,0.1-0.4c0.2-0.3,0.1-0.4,0-0.7c-0.9-1.4-2.2-2.2-3.5-3.2c-0.2-0.2-0.4-0.3-0.6-0.5c0.1,0.4,0.2,0.8,0.3,1.2
		c0,0.1,0,0.2,0,0.2c0.3,1.4,0.6,2.7,0.8,4.1c0.2,1.1,0,2.1-0.8,3c-0.3,0.3-0.5,0.6-0.8,0.9c-1.2,1.6-2.4,3.2-3.5,4.9
		c-0.5,0.7-0.8,1.6-1.3,2.3c-0.1,0.1-0.1,0.2-0.1,0.3c-0.1,0.7-0.5,1.2-0.8,1.8c-0.1,0.2-0.2,0.3-0.3,0.5c-0.2,0.3-0.2,0.6,0,0.9
		c0.2,0.3,0.4,0.6,0.7,0.8c0.2,0.2,0.3,0.4,0.1,0.6c-0.1,0.2-0.3,0.3-0.5,0.3c-0.3,0.1-0.6,0.1-0.9,0.1c-0.3,0-0.4-0.1-0.6-0.3
		c-0.4-0.4-0.7-0.9-1.1-1.3c-0.3-0.3-0.3-0.7-0.1-1.1c0.1-0.1,0.1-0.3,0.2-0.4c0.2-0.3,0.3-0.7,0.3-1.1c0-0.4,0-0.7,0-1.1
		c0-0.5-0.2-0.5-0.6-0.3c-0.1,0-0.1,0.1-0.2,0.2c-0.3,0.3-0.6,0.6-0.8,0.9c-0.2,0.2-0.3,0.2-0.4-0.1c0-0.1,0.2-0.2,0.2-0.4
		c0,0,0.1,0,0.1,0c0.5-0.5,1-1,1.3-1.7c0.4-1.1,0.7-1.3,1.8-1.2c0.3,0,0.4-0.1,0.5-0.3c0.3-0.8,0.6-1.6,0.9-2.4
		c0.4-1.3,1-2.5,1.9-3.5c0.3-0.3,0.5-0.6,0.9-0.8c0.3-0.1,0.4-0.3,0.4-0.6c-0.1-0.5,0.1-1-0.2-1.5c0-0.1-0.1-0.2-0.1-0.4
		c-0.8-1.8-1.6-3.6-2.4-5.3c-0.1-0.2-0.2-0.4-0.5-0.4c-0.2,0-0.5-0.1-0.7-0.3c-0.2-0.1-0.4-0.3-0.4-0.6c-0.2-1.6-0.3-3.2,0.1-4.8
		c0.2-1,0.6-1.9,1.3-2.7c0-0.1,0.1-0.2,0.2-0.1c0.1,0.1,0.1,0,0.2-0.1c0.5-0.7,0.9-1.5,1.2-2.3c0.1-0.2,0-0.5-0.1-0.6
		c-0.3-0.2-0.3-0.5-0.3-0.7c0-0.1,0-0.3-0.1-0.4c-0.4-0.8-0.7-1.5-1.1-2.3c0-0.2,0-0.4-0.3-0.4c0,0,0,0,0-0.1c0.2,0,0.3-0.1,0.3-0.3
		c-0.1-0.6-0.3-1.2-0.4-1.9c0-0.1,0-0.1-0.1-0.1c-0.3,0.1-0.6,0.2-0.8,0.3c-0.7,0.5-1.4,1.1-2.1,1.7c-0.9,0.7-1.7,1.6-2.6,2.3
		c-0.8,0.6-1.5,1.2-2.3,1.7c-0.2,0.2-0.5,0.4-0.6,0.6c-0.1,0.2-0.2,0.3-0.4,0.4c-0.3,0.1-0.5,0.3-0.7,0.5c-0.5,0.5-0.9,1.1-1.6,1.5
		c-0.8,0.5-1.6,1.1-2.4,1.6c-0.2,0.1-0.4,0.2-0.6,0.3c-0.1,0-0.2,0-0.3-0.1c-0.1-0.1,0-0.2,0-0.2c0.1-0.2,0.3-0.4,0.4-0.6
		c-0.9,0.1-1.7,0.1-2.6,0.1c-0.1-0.1-0.2-0.1-0.2-0.3c0-0.2,0.2-0.1,0.3-0.1c0.5-0.1,1.1-0.1,1.6-0.3c-0.1,0-0.2,0-0.3,0
		c-0.5,0.1-1,0.2-1.6,0.2c-0.2,0-0.4-0.1-0.4-0.3c0-0.2,0.2-0.3,0.3-0.3c0.5-0.1,1-0.2,1.4-0.3c0.1,0,0.2,0,0.2-0.2
		c-0.5,0-1,0.1-1.5,0.2c-0.2,0-0.3,0-0.4-0.2c0-0.2,0.1-0.2,0.3-0.3c0.5-0.1,1-0.1,1.5-0.3c0.1,0,0.3,0,0.3-0.2
		c-0.4-0.2-0.8-0.1-1.2-0.2c-0.2,0-0.4,0.1-0.4-0.2c0-0.3,0.3-0.2,0.5-0.3c0,0,0,0,0,0c1.1,0,2.1-0.1,3.2-0.1c0.1,0,0.1,0,0.2,0
		c0.3,0.1,0.5,0,0.6-0.2c0.1-0.2,0.2-0.3,0.4-0.2c0.2,0,0.4-0.1,0.5-0.3c0.1-0.1,0.1-0.2,0.2-0.4c0.1-0.2,0.2-0.3,0.4-0.2
		c0.2,0.1,0.3,0,0.4-0.2c0.1-0.2,0.2-0.4,0.4-0.5c0.2-0.1,0.3-0.3,0.5-0.4c0.3-0.2,0.5-0.5,0.8-0.7c1-0.7,2-1.5,2.9-2.4
		c0.8-0.9,1.6-1.8,2.6-2.6c0.3-0.2,0.5-0.5,0.7-0.7c0.1-0.1,0.2-0.2,0-0.3c-0.3-0.2-0.5-0.4-0.7-0.7c-0.6-0.8-0.7-1.6-0.5-2.5
		c0.1-0.5,0.2-0.9,0.6-1.3c0,0,0,0,0,0c-0.4,0.7-0.5,1.5-0.4,2.3c0.1,0.7,0.4,1.3,1,1.6c0,0,0.1,0,0.1,0c0,0,0,0.1,0,0c0,0,0,0,0,0
		c0,0,0,0,0-0.1c-0.2-0.3-0.4-0.6-0.5-1c-0.2-0.8-0.1-1.5,0-2.3c0-0.2,0-0.4,0.2-0.6l0,0c0,0.2-0.1,0.3,0,0.5c0.1,0,0.1-0.1,0.2-0.2
		l0,0c0,0.1,0,0.1-0.1,0.2c-0.3,0.8-0.2,1.5,0.1,2.2c0,0.1,0.1,0.1,0.1,0.2c-0.1,0-0.1-0.2-0.2-0.3c0-0.1-0.1-0.2-0.1-0.3
		c0.1,0.6,0.3,1.1,0.7,1.5c0.3,0.2,0.3,0.2,0.5,0c-0.3-0.2-0.5-0.3-0.7-0.6c-0.1-0.1-0.2-0.1-0.1-0.3c0.3,0.2,0.5,0.5,0.8,0.6
		c0.1,0,0.2,0.1,0.3,0.1c0.1-0.1,0.1-0.2,0.1-0.3c0-0.5,0-1,0.2-1.4c-0.1,0.5-0.2,1-0.1,1.6c0.2-0.1,0.5-0.3,0.7-0.4
		c0.1-0.1,0.2-0.1,0.4-0.2c-0.1-0.1-0.2-0.2-0.3-0.3c-0.2-0.2-0.3-0.4-0.4-0.7c0-0.1-0.1-0.1-0.2-0.1c0-0.1,0-0.2,0-0.3
		c-0.2-1-0.2-1.9,0.3-2.7c0.1-0.1,0.1-0.1,0.2-0.2c0,0,0,0,0,0c-0.1,0.1-0.1,0.2-0.2,0.4c-0.2,0.3-0.2,0.6-0.2,1
		c-0.1,0.8,0,1.5,0.5,2.2c0.2,0.3,0.4,0.4,0.7,0.6c-0.2-0.3-0.3-0.7-0.3-1.1c0-0.1,0-0.1-0.1-0.2c-0.2-0.4-0.2-0.9-0.2-1.3
		c0.1-1,0.9-1.8,1.8-1.8c0.3,0,0.3-0.1,0.3-0.3c0-0.1,0-0.1,0-0.2c0-0.5,0.1-1,0.3-1.4c0.2-0.3,0.3-0.7,0.5-1.1
		c0.1-0.3,0.4-0.4,0.5-0.6c0.6-0.9,1.5-1.1,2.5-1c0.1,0,0.3,0.1,0.4,0c0,0,0,0,0,0c0,0,0,0,0,0c-0.8-0.6-2-0.6-2.6,0.2
		c0,0-0.1,0.1-0.1,0c0.1-0.1,0.2-0.1,0.1-0.2c0.9-0.6,1.8-1.1,2.9-0.7c-0.6-0.6-1.3-0.7-2-0.4c-0.7,0.2-1.2,0.7-1.6,1.4
		c0.1-0.4,0.3-0.7,0.5-0.9c0.8-0.9,2.1-1.2,3-0.7c0.5,0.3,0.9,0.8,1.2,1.4c0,0.1,0.1,0.2,0.2,0.2c0.7,0.1,1.3,0.6,1.8,1
		c0.6,0.5,1.3,0.9,2,1.1c0.1,0,0.2,0,0.3,0c0.2,0,0.3-0.1,0.2-0.3c-0.1-0.3-0.1-0.7-0.2-1c0,0,0,0,0.1,0c0.1,0.4,0.2,0.8,0.2,1.2
		c0.5-0.1,0.9-0.4,1.3-0.7c0,0,0,0,0,0.1c-0.4,0.3-0.8,0.6-1.3,0.8c0.8,0.1,1.4,0,2-0.5c0,0,0,0,0.1,0.1c-0.5,0.5-1.1,0.6-1.7,0.6
		c-0.4,0-0.4,0-0.5,0.5c0,0,0,0,0,0c0,0.1,0,0.1,0.1,0.1c0.9-0.1,1.8-0.3,2.5-1c0.1-0.1,0.2-0.2,0.3-0.3c0.1,0.2,0,0.2-0.1,0.3
		c-0.5,0.7-1.1,1.1-1.9,1.3c-0.3,0.1-0.7,0.2-1,0.3c-0.2,0-0.2,0.2-0.2,0.3c0,0.1,0,0.1,0,0.1c0.4,0.1,0.9,0.4,1.4,0.2
		c0.3-0.1,0.7-0.2,1-0.3c0,0.1-0.1,0.1-0.2,0.2c0,0-0.1,0-0.1,0c0,0.1,0.1,0,0.1,0c0.3,0,0.5-0.3,0.9-0.3c0.2,0,0.4-0.4,0.6-0.6
		c0.2-0.2,0.2-0.5,0.2-0.8c0-0.3,0-0.6-0.1-0.9c0,0,0,0,0.1,0c0.1,0.3,0.1,0.5,0.2,0.8c0.1-0.3,0.1-0.6,0.2-1c0.1,0.2,0,0.4,0,0.6
		c0,0.3-0.2,0.6-0.2,1c0,0.6-0.1,1.2-0.2,1.8c0,0,0,0.1,0,0.1c0.2,0.3,0,0.5-0.1,0.7c0,0.1,0,0.1,0,0.2c0.1,0.1,0.1,0,0.2-0.1
		c0.1-0.1,0.1-0.2,0.2-0.2c0.1-0.1,0.2-0.2,0.3-0.1c0.1,0.1,0.1,0.2,0,0.3c-0.1,0.2-0.1,0.4-0.2,0.7c0.3-0.1,0.5-0.2,0.8-0.2
		c0,0,0,0,0,0c-0.2,0.1-0.4,0.2-0.6,0.3c-0.4,0.1-0.5,0.4-0.6,0.7c0.4,0,0.9-0.1,1.3-0.2c-0.4,0.2-0.8,0.3-1.2,0.3
		c-0.2,0-0.2,0.2-0.2,0.3c0,0.1,0.1,0.1,0.2,0.1c0.3,0,0.7,0,1,0c0.8,0,1.3-0.3,1.7-1c0.8-1.4,1-2.8,0.8-4.4c0,0,0.1,0,0.1,0
		c0.4,1.8,0.1,3.5-0.9,5c0,0,0,0.1,0,0.1c0,0,0,0,0.1,0c0.2,0,0.3-0.1,0.4-0.2c1-0.7,1.4-1.7,1.7-2.8c0.2-0.8,0.2-1.7,0.1-2.5
		c0-0.1-0.1-0.2,0.1-0.2c0,0.2,0.1,0.5,0.1,0.7c0,0,0,0.1,0.1,0.1l0,0c-0.1,0.8,0,1.6-0.2,2.3c-0.1,0.3-0.2,0.6-0.3,0.8
		c-0.4,0.9-0.8,1.6-1.7,2c-0.7,0.3-1.4,0.6-2,0.8c-0.1,0-0.2,0.1-0.4,0.1c0.7,0.1,1.4,0,2.2,0c-0.2,0.1-0.3,0.1-0.5,0.1
		c-0.8,0.2-1.5,0.3-2.3,0c-0.1,0-0.3,0-0.4,0c0.1,0.2,0.2,0.3,0.5,0.3c0.6,0,1.2,0,1.8,0c1.1-0.1,2-0.5,2.6-1.4
		c0.4-0.7,0.7-1.4,0.8-2.2c0.2-0.8,0.2-1.6,0-2.4c0.3,0.9,0.3,1.9,0.1,2.9c0,0,0,0,0,0.1c-0.5,2.4-1.6,3.4-3.8,3.7
		c-0.3,0-0.5,0-0.8,0.1c1,0.2,1.9-0.1,2.8-0.1c-0.4,0.1-0.8,0.2-1.2,0.3c-0.7,0.1-1.5,0.2-2.2-0.2c-0.2-0.1-0.4-0.1-0.7,0
		c1.1,0.4,2.1,0.9,2.9,1.7c0.2,0.2,0.4,0.2,0.7,0.2c1.3-0.3,2.7-0.6,4-0.7c0.4,0,0.8,0.1,1.2,0.1c0.4,0.1,0.8,0.3,1.2,0.4
		c0.1,0.1,0.2,0.1,0.3,0.2c-0.1,0.1-0.2,0-0.2,0l0,0c0,0,0-0.1,0-0.1c-0.4-0.2-0.8-0.4-1.2-0.4c-0.4-0.1-0.8-0.1-1.2-0.1
		c-1.5,0-2.9,0.5-4.3,0.7c0.5,0.7,0.5,0.7,1.3,0.4c0.1,0,0.2-0.1,0.3-0.1c1-0.4,2-0.6,3-0.1c0.5,0.3,0.8,0.8,1.2,1.1
		c0,0.1-0.3-0.1-0.1,0.1c0.2,0.4,0.3,0.8,0.4,1.2c0.1,0.6,0,1.2-0.4,1.8c-0.1-0.1,0-0.2,0.1-0.3c0.3-0.7,0.3-1.4,0.1-2.1
		c-0.1-0.5-0.5-0.8-1-0.8c0,0-0.1,0-0.1,0c-1.2-0.2-2.4-0.2-3.6,0c-0.1,0-0.2,0-0.2,0.1c0,0.1,0,0.2,0.2,0.3c0.8,0.4,1.4,1,1.6,1.9
		c0,0.1,0.1,0.2,0.2,0.2c-0.1,0-0.2,0-0.1,0.1c0,0.1,0,0.3,0.1,0.4c0.2,1.5-0.7,2.7-2.1,3.1c0,0-0.1,0-0.1-0.1
		c1.6-0.4,2.3-1.8,2-3.4c0-0.1-0.1-0.1-0.2-0.1c-0.4,0.1-0.8,0.1-1.3,0.2c-1.1,0.2-2.3,0.2-3.4-0.1c-1.1-0.3-2.1-0.8-3.1-1.3
		c-0.4-0.2-0.8-0.4-1.2-0.6c0.6,0.8,1.2,1.5,1.7,2.3c0.5,0.8,1,1.7,1.2,2.6c-0.5-1.3-2.1-3.6-2.6-3.8c0.5,0.8,1,1.6,1.3,2.4
		c0.5,1.1,0.8,2.2,0.8,2.6c-0.5-1.7-2.1-4.7-2.8-5.1c0,0.1,0,0.2,0.1,0.3c0.6,1.3,1.1,2.6,1.7,3.9c0.2,0.6,0.5,1.1,0.6,1.7
		c0.2,1.4,0.1,2.6-0.8,3.7c-0.8,1-1.9,1.8-3.2,1.9c-0.1,0-0.2,0.1-0.3-0.1c0.1,0,0.2,0,0.4,0c1.2-0.3,2.1-0.9,2.8-1.8
		c0.8-1,1.1-2.1,0.8-3.3c-0.2-0.9-0.5-1.8-0.9-2.7c-0.1-0.2-0.2-0.3-0.4-0.3c0.2,0.6,0.6,1,0.7,1.6c0.1,0.6,0.3,1.1,0.4,1.7
		c0,0,0,0-0.1,0c-0.2-0.7-0.3-1.5-0.8-2.2c0.1,0.7,0,1.4,0.1,2.1c0.1,0.5,0.1,0.9,0,1.4c-0.4,1.6-1.4,2.7-2.8,3.4
		c-0.1,0-0.2,0-0.2,0.1c-0.1,0.1-0.3,0.1-0.4,0.1c-0.2,0.1-0.3,0.4-0.2,0.5c0.9,1,1.6,2.1,2.3,3.2c0.6,0.9,1.2,1.9,2,2.8
		c0.4,0.5,0.5,1,0.5,1.6c0,0.6-0.3,1.1-0.3,1.7c0,0.2,0.1,0.4,0,0.6c-0.1,0.3-0.1,0.6-0.1,0.9c-0.1,0.9-0.1,1.9-0.3,2.8
		c-0.1,0.7-0.3,1.3-0.2,2c0,0.1,0,0.2-0.1,0.3c-0.1,0.2-0.2,0.4-0.1,0.6c0.1,0.6-0.1,1.1-0.2,1.6c-0.1,0.2-0.1,0.3,0,0.5
		c0.1,0.3,0.1,0.6,0.1,0.8c-0.1,0.4-0.1,0.8-0.1,1.1c0.1,0.5,0,0.9,0,1.3c-0.1,0.6-0.2,1.2-0.1,1.8c0,0.5,0.4,0.7,0.6,1.1
		C-769.2,1032-769.1,1032.4-768.8,1032.6z M-758.8,992.5C-758.8,992.4-758.8,992.4-758.8,992.5c-0.8-0.6-1.6-0.5-2.5-0.2
		c0,0,0,0,0,0c0,0,0,0,0,0c0,0,0,0,0,0c0.8,0,1.7,0.1,2.5,0.4c0.1,0.1,0.2,0.1,0.3,0.1c0,0,0,0,0,0c0,0,0,0,0,0
		C-758.6,992.6-758.7,992.5-758.8,992.5L-758.8,992.5z M-781.8,988.2C-781.8,988.2-781.8,988.2-781.8,988.2
		C-781.8,988.2-781.8,988.2-781.8,988.2C-781.8,988.2-781.8,988.2-781.8,988.2c0,0.3,0.2,0.4,0.4,0.3
		C-781.5,988.4-781.7,988.3-781.8,988.2z M-772,996.9C-772,996.9-772.1,996.9-772,996.9C-772,996.9-772,996.9-772,996.9
		c-0.2-0.2-0.3-0.4-0.5-0.7c0,0.2,0.1,0.3,0.1,0.4C-772.3,996.7-772.2,996.9-772,996.9z M-769.7,997.9
		C-769.7,997.9-769.7,997.9-769.7,997.9C-769.6,997.9-769.6,997.9-769.7,997.9C-769.7,997.9-769.7,997.9-769.7,997.9
		c0.1-0.1,0-0.1,0-0.2c-0.2-0.3-0.3-0.6-0.5-0.9c0-0.1-0.1-0.3-0.2-0.3c0,0.1,0.1,0.2,0.1,0.3c0.1,0.2,0.2,0.5,0.3,0.7
		C-770,997.6-769.9,997.8-769.7,997.9z M-758.8,992.9c-0.5-0.2-1.1-0.3-1.6-0.2C-759.9,992.7-759.3,992.8-758.8,992.9
		c0.2,0.2,0.4,0.3,0.6,0.3C-758.3,993-758.5,992.9-758.8,992.9z M-772,996.6L-772,996.6L-772,996.6c0.1,0.2,0.2,0.4,0.3,0.6
		c0.1,0.2,0.2,0.3,0.5,0.4C-771.3,997.1-771.6,996.8-772,996.6z M-766.5,984.1c-0.3,0.6-0.6,1.1-1,1.6c0.2,0.1,0.2,0,0.3-0.1
		c0.2-0.2,0.4-0.5,0.5-0.7C-766.7,984.6-766.5,984.4-766.5,984.1C-766.5,984.1-766.5,984.1-766.5,984.1
		C-766.5,984.1-766.5,984.1-766.5,984.1z M-773.5,1000.1c0.6-0.5,0.9-1.2,0.8-2.1c-0.1,0.4-0.1,0.7-0.3,1
		C-773.2,999.4-773.4,999.8-773.5,1000.1C-773.6,1000.1-773.6,1000.2-773.5,1000.1C-773.6,1000.2-773.6,1000.2-773.5,1000.1z
		 M-768,985.2c-0.2,0.2-0.5,0.1-0.8,0.3c0.4,0,0.7-0.1,1-0.3C-767.9,985.2-768,985.2-768,985.2c0-0.1,0.1-0.1,0.2-0.1
		c0.4-0.1,0.5-0.5,0.7-0.8c-0.4,0.3-0.8,0.5-1.2,0.7c-0.4,0.2-0.9,0.3-1.3,0.4c0.2,0.1,0.3,0.1,0.5,0.1
		C-768.8,985.3-768.4,985.2-768,985.2z M-773.7,1004.9C-773.8,1004.9-773.8,1004.8-773.7,1004.9c1.6-0.3,3.3-1.8,3.8-3.4
		c0.1-0.2,0.1-0.5,0-0.7c-0.2-0.8-0.6-1.6-0.9-2.4c-0.1-0.2-0.2-0.3-0.4-0.4c0.4,0.8,0.6,1.6,0.7,2.5c0,0-0.1,0-0.1,0
		c-0.1-0.7-0.3-1.4-0.6-2.1c-0.2-0.5-0.5-0.8-0.9-1c0,0,0-0.1,0,0c0,0,0,0,0,0.1c0.2,1.4-0.2,2.5-1.4,3.3c-0.5,0.3-1,0.6-1.4,0.9
		c-0.1,0-0.2,0.1-0.1,0.2c0,0.4-0.1,0.7-0.2,1.1c-0.2,0.5-0.2,0.6,0.2,0.8c0.2,0.2,0.4,0.4,0.4,0.7c0,0.2,0.1,0.3,0.3,0.4l0,0
		c0,0.1,0.1,0.2,0.1,0.2c0.3,0.4,0.7,0.8,1,1.2c0.1,0.1,0.2,0.2,0.4,0.1c1.3-0.6,2.4-1.5,2.9-2.8c0.2-0.5,0.3-1,0.3-1.6
		C-770.9,1003.9-772,1004.7-773.7,1004.9z M-763,994.3c-0.2-0.2-0.3-0.4-0.5-0.6c-0.1-0.1-0.2-0.2-0.3-0.1c-0.5,0.4-1.1,0.3-1.7,0.2
		c-0.3-0.1-0.6-0.2-0.9-0.2c-0.5,0-1,0.1-1.5,0c1,0.8,2.1,1.3,3.3,1.7c-0.9,0-1.7-0.2-2.5-0.5c-0.4-0.2-0.8-0.4-1.2-0.6
		c0,0,0,0.1,0,0.1c0.4,0.2,0.8,0.4,1.2,0.6c0.9,0.5,1.9,0.8,3,0.9c0.8,0,1.7,0,2.5-0.1c0.6,0,0.6,0,0.4-0.6
		c-0.4-0.9-1.1-1.3-2.1-1.6C-763.1,993.8-763,994-763,994.3C-763,994.2-763,994.2-763,994.3z M-780.5,984.4c-0.7,0-1.3,0.3-1.6,0.9
		c-0.4,0.6-0.3,1.2-0.1,1.9c0-0.1,0.1-0.1,0.1-0.1c0.2-0.7,0.5-1.2,1.2-1.3c0.1,0,0.1-0.1,0.1-0.1
		C-780.7,985.3-780.6,984.8-780.5,984.4z M-780.9,986c-0.6,0.1-1,0.7-1,1.4c0,0.4,0.2,0.7,0.7,0.9
		C-780.8,987.6-780.6,986.8-780.9,986z M-773.9,999.3C-773.9,999.4-773.9,999.4-773.9,999.3c-0.2,0.1-0.1,0-0.1,0
		c0-0.5,0-1.1-0.2-1.6c0,0.5-0.1,1.1-0.3,1.5c-0.3,0.6-0.4,1.2-0.5,1.8c0.5-0.1,0.8-0.3,0.9-0.6C-774,1000.1-774,999.7-773.9,999.3
		C-773.9,999.4-773.9,999.3-773.9,999.3z M-768.2,991.4c0.7,0.5,1.5,1,2.2,1.4c0.4,0.2,0.8,0.2,1.1-0.1c0,0,0,0,0.1-0.1
		C-765.8,992-767,991.7-768.2,991.4z M-773.8,996.6c0.2,1,0.3,2,0,3.1C-773.1,999-773.1,997.1-773.8,996.6z M-771.8,982.5
		c0,0.2,0.1,0.2,0.2,0.3c0.3,0.1,0.5,0.3,0.8,0.3c0.5,0.1,0.4,0.1,0.5-0.4c0-0.2,0-0.2-0.2-0.2
		C-770.8,982.4-771.3,982.6-771.8,982.5z M-777.5,979.2c0.6,0,1.1,0.1,1.6,0.5c0.2,0.2,0.4,0.2,0.6,0.1
		C-775.8,979.2-776.7,978.9-777.5,979.2z M-764.2,992.3c0.1-0.3,0-0.3-0.5-0.2c0.2,0.1,0.5,0.3,0.6,0.5c0.2,0.2,0.4,0.2,0.6,0.1
		C-763.9,992.2-764,992.2-764.2,992.3z M-764.6,991.9c-0.7-0.4-1.3-0.6-2-0.8c0.4,0.2,0.9,0.4,1.3,0.7
		C-765.1,991.9-764.9,992-764.6,991.9z M-771.3,983.7c0.2,0.2,0.4,0.2,0.5,0.3c0.2,0.1,0.3,0.1,0.4-0.2
		C-770.7,983.7-771,983.7-771.3,983.7z M-772.4,981.6c0.2,0.6,0.7,0.5,1.1,0.6C-771.7,982-772.1,981.9-772.4,981.6z M-768.6,992.8
		c0.4,0.3,0.8,0.4,1.3,0.5C-767.8,993.2-768.2,993-768.6,992.8z M-764.3,992.9c-0.3-0.2-0.4-0.2-0.6,0.1
		C-764.7,993-764.5,993-764.3,992.9z M-763.9,992C-763.9,992-763.9,992-763.9,992c0.2,0.3,0.4,0.5,0.7,0.7
		C-763.4,992.4-763.6,992.2-763.9,992z M-770.2,984.9c0.4,0.1,0.6,0.1,1,0C-769.6,984.9-769.9,984.9-770.2,984.9z M-768.7,987
		c-0.2-0.1-0.4-0.3-0.7-0.1C-769.1,987-768.9,987.1-768.7,987z M-774.7,1001.2c-0.3-0.1-0.3,0-0.3,0.2
		C-774.9,1001.4-774.8,1001.3-774.7,1001.2z M-768.8,993.9c0.2,0.1,0.3,0.3,0.6,0.3C-768.4,994.1-768.6,994-768.8,993.9z
		 M-768.9,993.9c-0.1-0.1-0.2-0.2-0.3-0.1C-769.1,993.8-769,993.9-768.9,993.9z M-771.2,996c0,0.1,0,0.2,0.1,0.3
		C-771,996.2-771.1,996.1-771.2,996z M-764.1,991.9c-0.1-0.1-0.2-0.2-0.3-0.2C-764.3,991.8-764.2,991.9-764.1,991.9z M-764.4,991.7
		c-0.1-0.1-0.1-0.2-0.3-0.1C-764.6,991.7-764.5,991.7-764.4,991.7z M-764.8,991.4c0.1,0,0.1,0.1,0.2,0.1
		C-764.7,991.5-764.7,991.4-764.8,991.4z M-769.9,995C-769.9,995-769.9,995.1-769.9,995c0.1,0.1,0.2,0.2,0.2,0.1
		C-769.8,995-769.8,995-769.9,995z M-770.4,996.3C-770.4,996.3-770.4,996.2-770.4,996.3C-770.4,996.2-770.5,996.3-770.4,996.3
		C-770.4,996.3-770.4,996.3-770.4,996.3C-770.4,996.3-770.4,996.3-770.4,996.3z M-777.6,979.2C-777.6,979.2-777.6,979.2-777.6,979.2
		C-777.6,979.2-777.6,979.2-777.6,979.2C-777.6,979.2-777.6,979.2-777.6,979.2C-777.6,979.2-777.6,979.2-777.6,979.2z M-769.5,999.2
		C-769.5,999.2-769.5,999.2-769.5,999.2C-769.5,999.2-769.5,999.2-769.5,999.2C-769.5,999.2-769.5,999.2-769.5,999.2
		C-769.5,999.2-769.5,999.2-769.5,999.2z M-770.6,994.9C-770.5,994.9-770.5,994.9-770.6,994.9C-770.5,994.9-770.5,994.9-770.6,994.9
		C-770.5,994.9-770.5,994.9-770.6,994.9C-770.5,994.9-770.5,994.9-770.6,994.9z M-771.4,995.6C-771.4,995.6-771.4,995.6-771.4,995.6
		C-771.4,995.6-771.4,995.6-771.4,995.6C-771.4,995.6-771.4,995.6-771.4,995.6C-771.4,995.6-771.4,995.6-771.4,995.6z M-771.3,995.7
		C-771.3,995.7-771.3,995.7-771.3,995.7C-771.3,995.7-771.3,995.8-771.3,995.7C-771.3,995.8-771.3,995.8-771.3,995.7
		C-771.3,995.7-771.3,995.7-771.3,995.7z M-771.3,995.8C-771.3,995.8-771.3,995.8-771.3,995.8C-771.3,995.9-771.3,995.9-771.3,995.8
		C-771.3,995.9-771.2,995.9-771.3,995.8C-771.3,995.8-771.3,995.8-771.3,995.8z M-771.2,995.9C-771.2,995.9-771.2,996-771.2,995.9
		C-771.2,996-771.2,996-771.2,995.9C-771.2,996-771.2,996-771.2,995.9C-771.2,996-771.2,995.9-771.2,995.9z"/>
	<path class="st32" d="M-768.6,1032.4c0.1,0.3,0,0.5-0.3,0.8c-0.3,0.2-0.6,0.3-0.9,0.4c-0.4,0-0.8-0.1-1.2-0.3
		c-0.3-0.3-0.6-0.5-0.9-0.8c-0.2-0.7-0.2-1.4-0.1-2c0.2-0.9-0.1-1.6-0.7-2.2c-0.3,0.5-0.5,1.1-0.8,1.6c0,0.1,0,0.2-0.2,0.1
		c-0.1-0.1-0.2-0.1-0.1-0.2c0.3-0.7,0.4-1.4,0.4-2.1c0-0.3,0-0.6,0.1-0.9c0.1-0.4,0.2-0.7,0.6-0.9c0.1,0,0.2-0.1,0.3-0.1
		c0.2-0.1,0.2-0.1,0.2-0.3c-0.1-0.8-0.1-1.5-0.1-2.3c0-1-0.1-2-0.1-3c0-0.5-0.1-1.1-0.1-1.6c0.1-0.7,0.2-1.4,0.4-2.1
		c0-0.1,0-0.3,0.1-0.4c0.2-0.3,0.1-0.4,0-0.7c-0.9-1.4-2.2-2.2-3.5-3.2c-0.2-0.2-0.4-0.3-0.6-0.5c0.1,0.4,0.2,0.8,0.3,1.2
		c0,0.1,0,0.2,0,0.2c0.3,1.4,0.6,2.7,0.8,4.1c0.2,1.1,0,2.1-0.8,3c-0.3,0.3-0.5,0.6-0.8,0.9c-1.2,1.6-2.4,3.2-3.5,4.9
		c-0.5,0.7-0.8,1.6-1.3,2.3c-0.1,0.1-0.1,0.2-0.1,0.3c-0.1,0.7-0.5,1.2-0.8,1.8c-0.1,0.2-0.2,0.3-0.3,0.5c-0.2,0.3-0.2,0.6,0,0.9
		c0.2,0.3,0.4,0.6,0.7,0.8c0.2,0.2,0.3,0.4,0.1,0.6c-0.1,0.2-0.3,0.3-0.5,0.3c-0.3,0.1-0.6,0.1-0.9,0.1c-0.3,0-0.4-0.1-0.6-0.3
		c-0.4-0.4-0.7-0.9-1.1-1.3c-0.3-0.3-0.3-0.7-0.1-1.1c0.1-0.1,0.1-0.3,0.2-0.4c0.2-0.3,0.3-0.7,0.3-1.1c0-0.4,0-0.7,0-1.1
		c0-0.5-0.2-0.5-0.6-0.3c-0.1,0-0.1,0.1-0.2,0.2c-0.3,0.3-0.6,0.6-0.8,0.9c-0.2,0.2-0.3,0.2-0.4-0.1c0-0.1,0.2-0.2,0.2-0.4
		c0,0,0.1,0,0.1,0c0.5-0.5,1-1,1.3-1.7c0.4-1.1,0.7-1.3,1.8-1.2c0.3,0,0.4-0.1,0.5-0.3c0.3-0.8,0.6-1.6,0.9-2.4
		c0.4-1.3,1-2.5,1.9-3.5c0.3-0.3,0.5-0.6,0.9-0.8c0.3-0.1,0.4-0.3,0.4-0.6c-0.1-0.5,0.1-1-0.2-1.5c0-0.1-0.1-0.2-0.1-0.4
		c-0.8-1.8-1.6-3.6-2.4-5.3c-0.1-0.2-0.2-0.4-0.5-0.4c-0.2,0-0.5-0.1-0.7-0.3c-0.2-0.1-0.4-0.3-0.4-0.6c-0.2-1.6-0.3-3.2,0.1-4.8
		c0.2-1,0.6-1.9,1.3-2.7c0-0.1,0.1-0.2,0.2-0.1c0.1,0.1,0.1,0,0.2-0.1c0.5-0.7,0.9-1.5,1.2-2.3c0.1-0.2,0-0.5-0.1-0.6
		c-0.3-0.2-0.3-0.5-0.3-0.7c0-0.1,0-0.3-0.1-0.4c-0.4-0.8-0.7-1.5-1.1-2.3c0-0.2,0-0.4-0.3-0.4c0,0,0,0,0-0.1c0.2,0,0.3-0.1,0.3-0.3
		c-0.1-0.6-0.3-1.2-0.4-1.9c0-0.1,0-0.1-0.1-0.1c-0.3,0.1-0.6,0.2-0.8,0.3c-0.7,0.5-1.4,1.1-2.1,1.7c-0.9,0.7-1.7,1.6-2.6,2.3
		c-0.8,0.6-1.5,1.2-2.3,1.7c-0.2,0.2-0.5,0.4-0.6,0.6c-0.1,0.2-0.2,0.3-0.4,0.4c-0.3,0.1-0.5,0.3-0.7,0.5c-0.5,0.5-0.9,1.1-1.6,1.5
		c-0.8,0.5-1.6,1.1-2.4,1.6c-0.2,0.1-0.4,0.2-0.6,0.3c-0.1,0-0.2,0-0.3-0.1c-0.1-0.1,0-0.2,0-0.2c0.1-0.2,0.3-0.4,0.4-0.6
		c-0.9,0.1-1.7,0.1-2.6,0.1c-0.1-0.1-0.2-0.1-0.2-0.3c0-0.2,0.2-0.1,0.3-0.1c0.5-0.1,1.1-0.1,1.6-0.3c-0.1,0-0.2,0-0.3,0
		c-0.5,0.1-1,0.2-1.6,0.2c-0.2,0-0.4-0.1-0.4-0.3c0-0.2,0.2-0.3,0.3-0.3c0.5-0.1,1-0.2,1.4-0.3c0.1,0,0.2,0,0.2-0.2
		c-0.5,0-1,0.1-1.5,0.2c-0.2,0-0.3,0-0.4-0.2c0-0.2,0.1-0.2,0.3-0.3c0.5-0.1,1-0.1,1.5-0.3c0.1,0,0.3,0,0.3-0.2
		c-0.4-0.2-0.8-0.1-1.2-0.2c-0.2,0-0.4,0.1-0.4-0.2c0-0.3,0.3-0.2,0.5-0.3c0,0,0,0,0,0c1.1,0,2.1-0.1,3.2-0.1c0.1,0,0.1,0,0.2,0
		c0.3,0.1,0.5,0,0.6-0.2c0.1-0.2,0.2-0.3,0.4-0.2c0.2,0,0.4-0.1,0.5-0.3c0.1-0.1,0.1-0.2,0.2-0.4c0.1-0.2,0.2-0.3,0.4-0.2
		c0.2,0.1,0.3,0,0.4-0.2c0.1-0.2,0.2-0.4,0.4-0.5c0.2-0.1,0.3-0.3,0.5-0.4c0.3-0.2,0.5-0.5,0.8-0.7c1-0.7,2-1.5,2.9-2.4
		c0.8-0.9,1.6-1.8,2.6-2.6c0.3-0.2,0.5-0.5,0.7-0.7c0.1-0.1,0.2-0.2,0-0.3c-0.3-0.2-0.5-0.4-0.7-0.7c-0.6-0.8-0.7-1.6-0.5-2.5
		c0.1-0.5,0.2-0.9,0.6-1.3c0,0,0,0,0,0c-0.4,0.7-0.5,1.5-0.4,2.3c0.1,0.7,0.4,1.3,1,1.6c0,0,0.1,0,0.1,0c0,0,0,0.1,0,0c0,0,0,0,0,0
		c0,0,0,0,0-0.1c-0.2-0.3-0.4-0.6-0.5-1c-0.2-0.8-0.1-1.5,0-2.3c0-0.2,0-0.4,0.2-0.6l0,0c0,0.2-0.1,0.3,0,0.5c0.1,0,0.1-0.1,0.2-0.2
		l0,0c0,0.1,0,0.1-0.1,0.2c-0.3,0.8-0.2,1.5,0.1,2.2c0,0.1,0.1,0.1,0.1,0.2c-0.1,0-0.1-0.2-0.2-0.3c0-0.1-0.1-0.2-0.1-0.3
		c0.1,0.6,0.3,1.1,0.7,1.5c0.3,0.2,0.3,0.2,0.5,0c-0.3-0.2-0.5-0.3-0.7-0.6c-0.1-0.1-0.2-0.1-0.1-0.3c0.3,0.2,0.5,0.5,0.8,0.6
		c0.1,0,0.2,0.1,0.3,0.1c0.1-0.1,0.1-0.2,0.1-0.3c0-0.5,0-1,0.2-1.4c-0.1,0.5-0.2,1-0.1,1.6c0.2-0.1,0.5-0.3,0.7-0.4
		c0.1-0.1,0.2-0.1,0.4-0.2c-0.1-0.1-0.2-0.2-0.3-0.3c-0.2-0.2-0.3-0.4-0.4-0.7c0-0.1-0.1-0.1-0.2-0.1c0-0.1,0-0.2,0-0.3
		c-0.2-1-0.2-1.9,0.3-2.7c0.1-0.1,0.1-0.1,0.2-0.2c0,0,0,0,0,0c-0.1,0.1-0.1,0.2-0.2,0.4c-0.2,0.3-0.2,0.6-0.2,1
		c-0.1,0.8,0,1.5,0.5,2.2c0.2,0.3,0.4,0.4,0.7,0.6c-0.2-0.3-0.3-0.7-0.3-1.1c0-0.1,0-0.1-0.1-0.2c-0.2-0.4-0.2-0.9-0.2-1.3
		c0.1-1,0.9-1.8,1.8-1.8c0.3,0,0.3-0.1,0.3-0.3c0-0.1,0-0.1,0-0.2c0-0.5,0.1-1,0.3-1.4c0.2-0.3,0.3-0.7,0.5-1.1
		c0.1-0.3,0.4-0.4,0.5-0.6c0.6-0.9,1.5-1.1,2.5-1c0.1,0,0.3,0.1,0.4,0c0,0,0,0,0,0c0,0,0,0,0,0c-0.8-0.6-2-0.6-2.6,0.2
		c0,0-0.1,0.1-0.1,0c0.1-0.1,0.2-0.1,0.1-0.2c0.9-0.6,1.8-1.1,2.9-0.7c-0.6-0.6-1.3-0.7-2-0.4c-0.7,0.2-1.2,0.7-1.6,1.4
		c0.1-0.4,0.3-0.7,0.5-0.9c0.8-0.9,2.1-1.2,3-0.7c0.5,0.3,0.9,0.8,1.2,1.4c0,0.1,0.1,0.2,0.2,0.2c0.7,0.1,1.3,0.6,1.8,1
		c0.6,0.5,1.3,0.9,2,1.1c0.1,0,0.2,0,0.3,0c0.2,0,0.3-0.1,0.2-0.3c-0.1-0.3-0.1-0.7-0.2-1c0,0,0,0,0.1,0c0.1,0.4,0.2,0.8,0.2,1.2
		c0.5-0.1,0.9-0.4,1.3-0.7c0,0,0,0,0,0.1c-0.4,0.3-0.8,0.6-1.3,0.8c0.8,0.1,1.4,0,2-0.5c0,0,0,0,0.1,0.1c-0.5,0.5-1.1,0.6-1.7,0.6
		c-0.4,0-0.4,0-0.5,0.5c0,0,0,0,0,0c0,0.1,0,0.1,0.1,0.1c0.9-0.1,1.8-0.3,2.5-1c0.1-0.1,0.2-0.2,0.3-0.3c0.1,0.2,0,0.2-0.1,0.3
		c-0.5,0.7-1.1,1.1-1.9,1.3c-0.3,0.1-0.7,0.2-1,0.3c-0.2,0-0.2,0.2-0.2,0.3c0,0.1,0,0.1,0,0.1c0.4,0.1,0.9,0.4,1.4,0.2
		c0.3-0.1,0.7-0.2,1-0.3c0,0.1-0.1,0.1-0.2,0.2c0,0-0.1,0-0.1,0c0,0.1,0.1,0,0.1,0c0.3,0,0.5-0.3,0.9-0.3c0.2,0,0.4-0.4,0.6-0.6
		c0.2-0.2,0.2-0.5,0.2-0.8c0-0.3,0-0.6-0.1-0.9c0,0,0,0,0.1,0c0.1,0.3,0.1,0.5,0.2,0.8c0.1-0.3,0.1-0.6,0.2-1c0.1,0.2,0,0.4,0,0.6
		c0,0.3-0.2,0.6-0.2,1c0,0.6-0.1,1.2-0.2,1.8c0,0,0,0.1,0,0.1c0.2,0.3,0,0.5-0.1,0.7c0,0.1,0,0.1,0,0.2c0.1,0.1,0.1,0,0.2-0.1
		c0.1-0.1,0.1-0.2,0.2-0.2c0.1-0.1,0.2-0.2,0.3-0.1c0.1,0.1,0.1,0.2,0,0.3c-0.1,0.2-0.1,0.4-0.2,0.7c0.3-0.1,0.5-0.2,0.8-0.2
		c0,0,0,0,0,0c-0.2,0.1-0.4,0.2-0.6,0.3c-0.4,0.1-0.5,0.4-0.6,0.7c0.4,0,0.9-0.1,1.3-0.2c-0.4,0.2-0.8,0.3-1.2,0.3
		c-0.2,0-0.2,0.2-0.2,0.3c0,0.1,0.1,0.1,0.2,0.1c0.3,0,0.7,0,1,0c0.8,0,1.3-0.3,1.7-1c0.8-1.4,1-2.8,0.8-4.4c0,0,0.1,0,0.1,0
		c0.4,1.8,0.1,3.5-0.9,5c0,0,0,0.1,0,0.1c0,0,0,0,0.1,0c0.2,0,0.3-0.1,0.4-0.2c1-0.7,1.4-1.7,1.7-2.8c0.2-0.8,0.2-1.7,0.1-2.5
		c0-0.1-0.1-0.2,0.1-0.2c0,0.2,0.1,0.5,0.1,0.7c0,0,0,0.1,0.1,0.1l0,0c-0.1,0.8,0,1.6-0.2,2.3c-0.1,0.3-0.2,0.6-0.3,0.8
		c-0.4,0.9-0.8,1.6-1.7,2c-0.7,0.3-1.4,0.6-2,0.8c-0.1,0-0.2,0.1-0.4,0.1c0.7,0.1,1.4,0,2.2,0c-0.2,0.1-0.3,0.1-0.5,0.1
		c-0.8,0.2-1.5,0.3-2.3,0c-0.1,0-0.3,0-0.4,0c0.1,0.2,0.2,0.3,0.5,0.3c0.6,0,1.2,0,1.8,0c1.1-0.1,2-0.5,2.6-1.4
		c0.4-0.7,0.7-1.4,0.8-2.2c0.2-0.8,0.2-1.6,0-2.4c0.3,0.9,0.3,1.9,0.1,2.9c0,0,0,0,0,0.1c-0.5,2.4-1.6,3.4-3.8,3.7
		c-0.3,0-0.5,0-0.8,0.1c1,0.2,1.9-0.1,2.8-0.1c-0.4,0.1-0.8,0.2-1.2,0.3c-0.7,0.1-1.5,0.2-2.2-0.2c-0.2-0.1-0.4-0.1-0.7,0
		c1.1,0.4,2.1,0.9,2.9,1.7c0.2,0.2,0.4,0.2,0.7,0.2c1.3-0.3,2.7-0.6,4-0.7c0.4,0,0.8,0.1,1.2,0.1c0.4,0.1,0.8,0.3,1.2,0.4
		c0.1,0.1,0.2,0.1,0.3,0.2c-0.1,0.1-0.2,0-0.2,0l0,0c0,0,0-0.1,0-0.1c-0.4-0.2-0.8-0.4-1.2-0.4c-0.4-0.1-0.8-0.1-1.2-0.1
		c-1.5,0-2.9,0.5-4.3,0.7c0.5,0.7,0.5,0.7,1.3,0.4c0.1,0,0.2-0.1,0.3-0.1c1-0.4,2-0.6,3-0.1c0.5,0.3,0.8,0.8,1.2,1.1
		c0,0.1-0.3-0.1-0.1,0.1c0.2,0.4,0.3,0.8,0.4,1.2c0.1,0.6,0,1.2-0.4,1.8c-0.1-0.1,0-0.2,0.1-0.3c0.3-0.7,0.3-1.4,0.1-2.1
		c-0.1-0.5-0.5-0.8-1-0.8c0,0-0.1,0-0.1,0c-1.2-0.2-2.4-0.2-3.6,0c-0.1,0-0.2,0-0.2,0.1c0,0.1,0,0.2,0.2,0.3c0.8,0.4,1.4,1,1.6,1.9
		c0,0.1,0.1,0.2,0.2,0.2c-0.1,0-0.2,0-0.1,0.1c0,0.1,0,0.3,0.1,0.4c0.2,1.5-0.7,2.7-2.1,3.1c0,0-0.1,0-0.1-0.1
		c1.6-0.4,2.3-1.8,2-3.4c0-0.1-0.1-0.1-0.2-0.1c-0.4,0.1-0.8,0.1-1.3,0.2c-1.1,0.2-2.3,0.2-3.4-0.1c-1.1-0.3-2.1-0.8-3.1-1.3
		c-0.4-0.2-0.8-0.4-1.2-0.6c0.6,0.8,1.2,1.5,1.7,2.3c0.5,0.8,1,1.7,1.2,2.6c-0.5-1.3-2.1-3.6-2.6-3.8c0.5,0.8,1,1.6,1.3,2.4
		c0.5,1.1,0.8,2.2,0.8,2.6c-0.5-1.7-2.1-4.7-2.8-5.1c0,0.1,0,0.2,0.1,0.3c0.6,1.3,1.1,2.6,1.7,3.9c0.2,0.6,0.5,1.1,0.6,1.7
		c0.2,1.4,0.1,2.6-0.8,3.7c-0.8,1-1.9,1.8-3.2,1.9c-0.1,0-0.2,0.1-0.3-0.1c0.1,0,0.2,0,0.4,0c1.2-0.3,2.1-0.9,2.8-1.8
		c0.8-1,1.1-2.1,0.8-3.3c-0.2-0.9-0.5-1.8-0.9-2.7c-0.1-0.2-0.2-0.3-0.4-0.3c0.2,0.6,0.6,1,0.7,1.6c0.1,0.6,0.3,1.1,0.4,1.7
		c0,0,0,0-0.1,0c-0.2-0.7-0.3-1.5-0.8-2.2c0.1,0.7,0,1.4,0.1,2.1c0.1,0.5,0.1,0.9,0,1.4c-0.4,1.6-1.4,2.7-2.8,3.4
		c-0.1,0-0.2,0-0.2,0.1c-0.1,0.1-0.3,0.1-0.4,0.1c-0.2,0.1-0.3,0.4-0.2,0.5c0.9,1,1.6,2.1,2.3,3.2c0.6,0.9,1.2,1.9,2,2.8
		c0.4,0.5,0.5,1,0.5,1.6c0,0.6-0.3,1.1-0.3,1.7c0,0.2,0.1,0.4,0,0.6c-0.1,0.3-0.1,0.6-0.1,0.9c-0.1,0.9-0.1,1.9-0.3,2.8
		c-0.1,0.7-0.3,1.3-0.2,2c0,0.1,0,0.2-0.1,0.3c-0.1,0.2-0.2,0.4-0.1,0.6c0.1,0.6-0.1,1.1-0.2,1.6c-0.1,0.2-0.1,0.3,0,0.5
		c0.1,0.3,0.1,0.6,0.1,0.8c-0.1,0.4-0.1,0.8-0.1,1.1c0.1,0.5,0,0.9,0,1.3c-0.1,0.6-0.2,1.2-0.1,1.8c0,0.5,0.4,0.7,0.6,1.1
		C-769,1031.8-768.9,1032.2-768.6,1032.4z M-758.6,992.3C-758.6,992.2-758.6,992.2-758.6,992.3c-0.8-0.6-1.6-0.5-2.5-0.2
		c0,0,0,0,0,0c0,0,0,0,0,0c0,0,0,0,0,0c0.8,0,1.7,0.1,2.5,0.4c0.1,0.1,0.2,0.1,0.3,0.1c0,0,0,0,0,0c0,0,0,0,0,0
		C-758.4,992.4-758.5,992.3-758.6,992.3L-758.6,992.3z M-781.6,988C-781.6,988-781.6,988-781.6,988C-781.6,988-781.6,988-781.6,988
		C-781.6,988-781.6,988-781.6,988c0,0.3,0.2,0.4,0.4,0.3C-781.3,988.2-781.5,988.1-781.6,988z M-771.8,996.7
		C-771.8,996.7-771.9,996.7-771.8,996.7C-771.8,996.7-771.8,996.7-771.8,996.7c-0.2-0.2-0.3-0.4-0.5-0.7c0,0.2,0.1,0.3,0.1,0.4
		C-772.1,996.5-772,996.7-771.8,996.7z M-769.5,997.7C-769.5,997.7-769.5,997.7-769.5,997.7C-769.4,997.7-769.4,997.7-769.5,997.7
		C-769.5,997.7-769.5,997.7-769.5,997.7c0.1-0.1,0-0.1,0-0.2c-0.2-0.3-0.3-0.6-0.5-0.9c0-0.1-0.1-0.3-0.2-0.3c0,0.1,0.1,0.2,0.1,0.3
		c0.1,0.2,0.2,0.5,0.3,0.7C-769.8,997.4-769.7,997.6-769.5,997.7z M-758.6,992.7c-0.5-0.2-1.1-0.3-1.6-0.2
		C-759.7,992.5-759.1,992.6-758.6,992.7c0.2,0.2,0.4,0.3,0.6,0.3C-758.1,992.8-758.3,992.7-758.6,992.7z M-771.8,996.4L-771.8,996.4
		L-771.8,996.4c0.1,0.2,0.2,0.4,0.3,0.6c0.1,0.2,0.2,0.3,0.5,0.4C-771.1,996.9-771.4,996.6-771.8,996.4z M-766.3,983.9
		c-0.3,0.6-0.6,1.1-1,1.6c0.2,0.1,0.2,0,0.3-0.1c0.2-0.2,0.4-0.5,0.5-0.7C-766.5,984.4-766.3,984.2-766.3,983.9
		C-766.3,983.9-766.3,983.9-766.3,983.9C-766.3,983.9-766.3,983.9-766.3,983.9z M-773.3,1000c0.6-0.5,0.9-1.2,0.8-2.1
		c-0.1,0.4-0.1,0.7-0.3,1C-773,999.2-773.2,999.6-773.3,1000C-773.4,999.9-773.4,1000-773.3,1000C-773.4,1000-773.4,1000-773.3,1000
		z M-767.9,985c-0.2,0.2-0.5,0.1-0.8,0.3c0.4,0,0.7-0.1,1-0.3C-767.7,985-767.8,985-767.9,985c0-0.1,0.1-0.1,0.2-0.1
		c0.4-0.1,0.5-0.5,0.7-0.8c-0.4,0.3-0.8,0.5-1.2,0.7c-0.4,0.2-0.9,0.3-1.3,0.4c0.2,0.1,0.3,0.1,0.5,0.1
		C-768.6,985.1-768.2,985-767.9,985z M-773.6,1004.7C-773.6,1004.7-773.6,1004.6-773.6,1004.7c1.6-0.3,3.3-1.8,3.8-3.4
		c0.1-0.2,0.1-0.5,0-0.7c-0.2-0.8-0.6-1.6-0.9-2.4c-0.1-0.2-0.2-0.3-0.4-0.4c0.4,0.8,0.6,1.6,0.7,2.5c0,0-0.1,0-0.1,0
		c-0.1-0.7-0.3-1.4-0.6-2.1c-0.2-0.5-0.5-0.8-0.9-1c0,0,0-0.1,0,0c0,0,0,0,0,0.1c0.2,1.4-0.2,2.5-1.4,3.3c-0.5,0.3-1,0.6-1.4,0.9
		c-0.1,0-0.2,0.1-0.1,0.2c0,0.4-0.1,0.7-0.2,1.1c-0.2,0.5-0.2,0.6,0.2,0.8c0.2,0.2,0.4,0.4,0.4,0.7c0,0.2,0.1,0.3,0.3,0.4l0,0
		c0,0.1,0.1,0.2,0.1,0.2c0.3,0.4,0.7,0.8,1,1.2c0.1,0.1,0.2,0.2,0.4,0.1c1.3-0.6,2.4-1.5,2.9-2.8c0.2-0.5,0.3-1,0.3-1.6
		C-770.7,1003.7-771.8,1004.5-773.6,1004.7z M-762.8,994.1c-0.2-0.2-0.3-0.4-0.5-0.6c-0.1-0.1-0.2-0.2-0.3-0.1
		c-0.5,0.4-1.1,0.3-1.7,0.2c-0.3-0.1-0.6-0.2-0.9-0.2c-0.5,0-1,0.1-1.5,0c1,0.8,2.1,1.3,3.3,1.7c-0.9,0-1.7-0.2-2.5-0.5
		c-0.4-0.2-0.8-0.4-1.2-0.6c0,0,0,0.1,0,0.1c0.4,0.2,0.8,0.4,1.2,0.6c0.9,0.5,1.9,0.8,3,0.9c0.8,0,1.7,0,2.5-0.1
		c0.6,0,0.6,0,0.4-0.6c-0.4-0.9-1.1-1.3-2.1-1.6C-762.9,993.6-762.8,993.8-762.8,994.1C-762.8,994-762.8,994.1-762.8,994.1z
		 M-780.3,984.2c-0.7,0-1.3,0.3-1.6,0.9c-0.4,0.6-0.3,1.2-0.1,1.9c0-0.1,0.1-0.1,0.1-0.1c0.2-0.7,0.5-1.2,1.2-1.3
		c0.1,0,0.1-0.1,0.1-0.1C-780.5,985.1-780.4,984.6-780.3,984.2z M-780.7,985.8c-0.6,0.1-1,0.7-1,1.4c0,0.4,0.2,0.7,0.7,0.9
		C-780.6,987.4-780.5,986.6-780.7,985.8z M-773.7,999.1C-773.7,999.2-773.7,999.2-773.7,999.1c-0.2,0.1-0.1,0-0.1,0
		c0-0.5,0-1.1-0.2-1.6c0,0.5-0.1,1.1-0.3,1.5c-0.3,0.6-0.4,1.2-0.5,1.8c0.5-0.1,0.8-0.3,0.9-0.6
		C-773.8,999.9-773.8,999.5-773.7,999.1C-773.7,999.2-773.7,999.1-773.7,999.1z M-768,991.3c0.7,0.5,1.5,1,2.2,1.4
		c0.4,0.2,0.8,0.2,1.1-0.1c0,0,0,0,0.1-0.1C-765.6,991.8-766.8,991.5-768,991.3z M-773.6,996.4c0.2,1,0.3,2,0,3.1
		C-772.9,998.8-772.9,996.9-773.6,996.4z M-771.6,982.3c0,0.2,0.1,0.2,0.2,0.3c0.3,0.1,0.5,0.3,0.8,0.3c0.5,0.1,0.4,0.1,0.5-0.4
		c0-0.2,0-0.2-0.2-0.2C-770.6,982.2-771.1,982.4-771.6,982.3z M-777.3,979c0.6,0,1.1,0.1,1.6,0.5c0.2,0.2,0.4,0.2,0.6,0.1
		C-775.6,979-776.5,978.7-777.3,979z M-764,992.1c0.1-0.3,0-0.3-0.5-0.2c0.2,0.1,0.5,0.3,0.6,0.5c0.2,0.2,0.4,0.2,0.6,0.1
		C-763.7,992-763.8,992-764,992.1z M-764.4,991.7c-0.7-0.4-1.3-0.6-2-0.8c0.4,0.2,0.9,0.4,1.3,0.7
		C-764.9,991.7-764.7,991.8-764.4,991.7z M-771.1,983.5c0.2,0.2,0.4,0.2,0.5,0.3c0.2,0.1,0.3,0.1,0.4-0.2
		C-770.5,983.5-770.8,983.5-771.1,983.5z M-772.2,981.4c0.2,0.6,0.7,0.5,1.1,0.6C-771.5,981.8-771.9,981.7-772.2,981.4z
		 M-768.4,992.6c0.4,0.3,0.8,0.4,1.3,0.5C-767.6,993-768,992.8-768.4,992.6z M-764.1,992.7c-0.3-0.2-0.4-0.2-0.6,0.1
		C-764.5,992.8-764.3,992.8-764.1,992.7z M-763.7,991.8C-763.7,991.8-763.7,991.8-763.7,991.8c0.2,0.3,0.4,0.5,0.7,0.7
		C-763.2,992.2-763.4,992-763.7,991.8z M-770,984.7c0.4,0.1,0.6,0.1,1,0C-769.4,984.7-769.7,984.7-770,984.7z M-768.5,986.8
		c-0.2-0.1-0.4-0.3-0.7-0.1C-768.9,986.8-768.7,986.9-768.5,986.8z M-774.5,1001.1c-0.3-0.1-0.3,0-0.3,0.2
		C-774.7,1001.2-774.6,1001.1-774.5,1001.1z M-768.6,993.7c0.2,0.1,0.3,0.3,0.6,0.3C-768.2,993.9-768.4,993.8-768.6,993.7z
		 M-768.7,993.7c-0.1-0.1-0.2-0.2-0.3-0.1C-768.9,993.7-768.8,993.7-768.7,993.7z M-771,995.8c0,0.1,0,0.2,0.1,0.3
		C-770.8,996-770.9,995.9-771,995.8z M-763.9,991.7c-0.1-0.1-0.2-0.2-0.3-0.2C-764.1,991.6-764,991.7-763.9,991.7z M-764.2,991.5
		c-0.1-0.1-0.1-0.2-0.3-0.1C-764.4,991.5-764.3,991.5-764.2,991.5z M-764.7,991.2c0.1,0,0.1,0.1,0.2,0.1
		C-764.5,991.3-764.6,991.2-764.7,991.2z M-769.8,994.8C-769.7,994.8-769.7,994.9-769.8,994.8c0.1,0.1,0.2,0.2,0.2,0.1
		C-769.6,994.8-769.6,994.8-769.8,994.8z M-770.2,996.1C-770.2,996.1-770.2,996-770.2,996.1C-770.3,996-770.3,996.1-770.2,996.1
		C-770.3,996.1-770.2,996.1-770.2,996.1C-770.2,996.1-770.2,996.1-770.2,996.1z M-777.4,979C-777.4,979-777.4,979-777.4,979
		C-777.4,979-777.4,979-777.4,979C-777.4,979-777.4,979-777.4,979C-777.4,979-777.4,979-777.4,979z M-769.3,999
		C-769.3,999-769.3,999-769.3,999C-769.3,999-769.3,999-769.3,999C-769.3,999-769.3,999-769.3,999C-769.3,999-769.3,999-769.3,999z
		 M-770.4,994.7C-770.4,994.7-770.3,994.7-770.4,994.7C-770.3,994.7-770.3,994.7-770.4,994.7C-770.3,994.7-770.3,994.7-770.4,994.7
		C-770.3,994.7-770.4,994.7-770.4,994.7z M-771.2,995.4C-771.2,995.4-771.2,995.4-771.2,995.4C-771.2,995.4-771.2,995.4-771.2,995.4
		C-771.2,995.4-771.2,995.4-771.2,995.4C-771.2,995.5-771.2,995.4-771.2,995.4z M-771.1,995.5C-771.1,995.5-771.1,995.5-771.1,995.5
		C-771.1,995.5-771.1,995.6-771.1,995.5C-771.1,995.6-771.1,995.6-771.1,995.5C-771.1,995.5-771.1,995.5-771.1,995.5z M-771.1,995.6
		C-771.1,995.6-771.1,995.6-771.1,995.6C-771.1,995.7-771.1,995.7-771.1,995.6C-771.1,995.7-771.1,995.7-771.1,995.6
		C-771.1,995.7-771.1,995.6-771.1,995.6z M-771,995.7C-771,995.8-771,995.8-771,995.7C-771,995.8-771,995.8-771,995.7
		C-771,995.8-771,995.8-771,995.7C-771,995.8-771,995.8-771,995.7z"/>
	<path class="st34" d="M-770.2,980.6c-0.2-0.5-0.3-1-0.6-1.5C-770.4,979.6-770.2,980.1-770.2,980.6
		C-770.1,980.6-770.1,980.6-770.2,980.6z"/>
	<path class="st34" d="M-767.8,981.6c0.2-0.2,0.4-0.4,0.5-0.6C-767.3,981.3-767.5,981.5-767.8,981.6
		C-767.7,981.7-767.8,981.6-767.8,981.6z"/>
	<path class="st34" d="M-762.6,982.2c-0.1-0.2-0.1-0.4-0.2-0.6C-762.6,981.8-762.6,982-762.6,982.2
		C-762.5,982.2-762.6,982.2-762.6,982.2z"/>
	<path class="st34" d="M-768.5,1001.3c0,0.2,0.1,0.4,0.1,0.6C-768.5,1001.7-768.5,1001.5-768.5,1001.3
		C-768.5,1001.3-768.5,1001.3-768.5,1001.3z"/>
	<path class="st34" d="M-778.8,979.7c0.1-0.1,0.2-0.1,0.2-0.2c0.1,0.1,0,0.2-0.1,0.2C-778.7,979.7-778.8,979.7-778.8,979.7
		C-778.8,979.7-778.8,979.7-778.8,979.7z"/>
	<path class="st34" d="M-756.5,991.6C-756.5,991.6-756.5,991.6-756.5,991.6C-756.5,991.6-756.5,991.6-756.5,991.6z"/>
	<path class="st32" d="M-757.4,993C-757.4,993-757.4,993-757.4,993C-757.3,993.1-757.3,993.1-757.4,993
		C-757.4,993.1-757.4,993.1-757.4,993z"/>
	<path class="st34" d="M-778.8,980.1c0,0.1-0.1,0.2-0.2,0.3C-779,980.2-778.9,980.1-778.8,980.1C-778.9,980-778.9,980.1-778.8,980.1
		z"/>
	<path class="st34" d="M-778.9,979.8c0.1,0.1,0.1-0.1,0.2,0c0,0.1-0.1,0.2-0.2,0.2c0,0,0,0,0,0C-778.9,980-778.7,979.9-778.9,979.8
		L-778.9,979.8z"/>
	<path class="st32" d="M-768.5,981.2c0.1,0,0.1-0.1,0.2-0.1c0,0,0,0,0,0C-768.4,981.2-768.4,981.2-768.5,981.2
		C-768.5,981.2-768.5,981.2-768.5,981.2z"/>
	<path class="st34" d="M-779.2,980.2C-779.3,980.2-779.3,980.3-779.2,980.2C-779.3,980.2-779.3,980.2-779.2,980.2
		C-779.3,980.1-779.2,980.2-779.2,980.2C-779.2,980.2-779.2,980.2-779.2,980.2z"/>
	<path class="st34" d="M-778.8,979.7c0,0,0,0.1-0.1,0.1c0,0,0,0,0,0c0,0-0.1,0-0.1,0l0,0C-779,979.8-778.9,979.7-778.8,979.7
		C-778.8,979.7-778.8,979.7-778.8,979.7z"/>
	<path class="st32" d="M-766.2,981.3C-766.2,981.3-766.2,981.4-766.2,981.3C-766.2,981.4-766.2,981.4-766.2,981.3
		C-766.3,981.4-766.2,981.3-766.2,981.3C-766.2,981.3-766.2,981.3-766.2,981.3z"/>
	<path class="st32" d="M-768.4,981.1C-768.3,981-768.3,981-768.4,981.1c0.1-0.1,0.1-0.1,0.1,0C-768.3,981-768.3,981.1-768.4,981.1
		C-768.3,981.1-768.3,981.1-768.4,981.1z"/>
	<path class="st34" d="M-762.8,981.4C-762.8,981.5-762.8,981.5-762.8,981.4C-762.8,981.5-762.8,981.5-762.8,981.4
		C-762.8,981.5-762.8,981.5-762.8,981.4C-762.8,981.5-762.8,981.5-762.8,981.4z"/>
	<path class="st32" d="M-765.1,986.1c0,0,0.1-0.1,0.1,0C-764.9,986.1-765,986.1-765.1,986.1C-765,986.1-765,986.1-765.1,986.1z"/>
	<path class="st34" d="M-779.1,980.4C-779,980.4-779,980.4-779.1,980.4C-779,980.5-779,980.5-779.1,980.4
		C-779.1,980.5-779.1,980.5-779.1,980.4C-779.1,980.4-779.1,980.4-779.1,980.4z"/>
	<path class="st34" d="M-779.2,980c0.1,0.1,0,0.1,0,0.2c0,0,0,0,0,0C-779.3,980.1-779.2,980.1-779.2,980
		C-779.2,980-779.2,980-779.2,980z"/>
	<path class="st34" d="M-779,979.8C-779,979.9-779,979.9-779,979.8C-779,979.9-779,979.9-779,979.8C-779,979.9-779,979.8-779,979.8
		L-779,979.8z"/>
	<path class="st34" d="M-779.1,979.9C-779.1,979.9-779.1,979.9-779.1,979.9C-779,979.9-779,979.9-779.1,979.9
		C-779,979.9-779,980-779.1,979.9L-779.1,979.9z"/>
	<path class="st34" d="M-779.1,980C-779.1,980-779.1,980-779.1,980L-779.1,980C-779.1,980-779.1,979.9-779.1,980L-779.1,980z"/>
	<path class="st34" d="M-779.1,980C-779.1,980-779.1,980-779.1,980C-779.2,980.1-779.2,980-779.1,980
		C-779.2,980-779.2,980-779.1,980C-779.2,980-779.2,980-779.1,980C-779.1,980-779.1,980-779.1,980z"/>
	<path class="st32" d="M-768.2,981C-768.2,981-768.2,981-768.2,981C-768.2,981-768.3,981-768.2,981
		C-768.2,981-768.2,980.9-768.2,981L-768.2,981z"/>
	<path class="st32" d="M-768.2,981C-768.2,980.9-768.2,980.9-768.2,981C-768.2,980.9-768.1,980.9-768.2,981
		C-768.1,980.9-768.1,981-768.2,981L-768.2,981z"/>
	<path class="st32" d="M-782.6,984.4C-782.6,984.4-782.6,984.4-782.6,984.4C-782.5,984.4-782.5,984.4-782.6,984.4
		C-782.5,984.5-782.6,984.4-782.6,984.4z"/>
	<path class="st32" d="M-784.4,988.8c-0.1,0-0.1,0-0.1-0.1C-784.4,988.7-784.4,988.8-784.4,988.8z"/>
	<path class="st32" d="M-783,987.6c0,0.1,0,0.1-0.1,0.2C-783.1,987.8-783.1,987.7-783,987.6z"/>
	<path class="st32" d="M-784.8,985.7C-784.7,985.7-784.7,985.7-784.8,985.7C-784.7,985.7-784.7,985.7-784.8,985.7
		C-784.7,985.7-784.7,985.7-784.8,985.7C-784.8,985.7-784.8,985.7-784.8,985.7z"/>
	<path class="st32" d="M-784.6,986.1C-784.6,986-784.6,986-784.6,986.1C-784.6,986-784.6,986-784.6,986.1
		C-784.6,986-784.6,986.1-784.6,986.1C-784.6,986.1-784.6,986.1-784.6,986.1z"/>
	<path class="st32" d="M-785.1,985.8C-785.1,985.8-785.1,985.8-785.1,985.8C-785.1,985.8-785.1,985.8-785.1,985.8
		C-785.1,985.8-785.1,985.7-785.1,985.8C-785.1,985.7-785.1,985.7-785.1,985.8z"/>
	<path class="st32" d="M-785.1,985.7C-785.1,985.7-785.1,985.7-785.1,985.7C-785.1,985.7-785.1,985.7-785.1,985.7
		C-785.1,985.7-785.1,985.7-785.1,985.7z"/>
	<polygon class="st32" points="-784.7,985.6 -784.7,985.5 -784.7,985.5 	"/>
	<polygon class="st32" points="-784.6,985.4 -784.6,985.4 -784.6,985.4 	"/>
	<polygon class="st32" points="-784.6,985.3 -784.6,985.3 -784.5,985.3 	"/>
	<path class="st32" d="M-759.1,997.4c0.4-0.2,0.7-0.5,1-0.8c0,0,0,0,0,0C-758.3,997.1-758.7,997.3-759.1,997.4
		C-759.1,997.5-759,997.5-759.1,997.4z"/>
	<path class="st32" d="M-758,996.5C-758,996.5-757.9,996.5-758,996.5c0.1,0.1,0,0.1,0,0.2c0,0,0,0,0,0c0,0,0,0,0,0
		C-758,996.6-758,996.6-758,996.5z"/>
	<path class="st32" d="M-757.9,996.5c0-0.1,0-0.1,0.1-0.2C-757.8,996.5-757.8,996.5-757.9,996.5z"/>
	<path class="st32" d="M-757.8,996.4c0-0.1,0-0.1,0.1-0.2C-757.7,996.3-757.7,996.4-757.8,996.4z"/>
	<path class="st32" d="M-757.5,993c0.1,0,0.1,0,0.1,0.1C-757.4,993.1-757.5,993.1-757.5,993z"/>
	<path class="st32" d="M-757.7,996.2C-757.7,996.1-757.7,996.1-757.7,996.2C-757.6,996.2-757.6,996.2-757.7,996.2z"/>
	<path class="st32" d="M-762.7,994c0,0,0.1,0.1,0,0.1C-762.8,994.2-762.8,994.1-762.7,994C-762.8,994.1-762.8,994-762.7,994z"/>
	<path class="st32" d="M-760.8,982.9C-760.8,982.9-760.8,982.9-760.8,982.9C-760.8,982.9-760.8,982.9-760.8,982.9
		C-760.8,982.9-760.8,982.8-760.8,982.9C-760.8,982.8-760.8,982.9-760.8,982.9z"/>
	<path class="st34" d="M-768.3,1002C-768.3,1002-768.3,1002-768.3,1002C-768.3,1002.1-768.3,1002.1-768.3,1002
		C-768.3,1002.1-768.3,1002.1-768.3,1002C-768.3,1002.1-768.3,1002-768.3,1002z"/>
	<path class="st32" d="M-763,988.5c-0.1,0-0.2,0.1-0.3,0C-763.2,988.5-763.1,988.5-763,988.5z"/>
	<path class="st32" d="M-773.8,999.4C-773.8,999.4-773.8,999.3-773.8,999.4C-773.8,999.3-773.8,999.3-773.8,999.4
		C-773.8,999.3-773.8,999.3-773.8,999.4C-773.8,999.4-773.8,999.4-773.8,999.4z"/>
</g>
</svg>
