<?xml version="1.0" encoding="utf-8"?>
<!-- Generator: Adobe Illustrator 19.0.0, SVG Export Plug-In . SVG Version: 6.00 Build 0)  -->
<svg version="1.1" id="ic_empty_transactions" xmlns="http://www.w3.org/2000/svg" xmlns:xlink="http://www.w3.org/1999/xlink"
	 x="0px" y="0px" viewBox="-949 951 100 100" style="enable-background:new -949 951 100 100;" xml:space="preserve">
<style type="text/css">
	.st0{fill:#D6D6D6;}
	.st1{fill:#666666;}
	.st2{fill:none;}
</style>
<g id="Group_9015">
	<path id="Path_18970" class="st0" d="M-899,977c-13.3,0-24,10.7-24,24s10.7,24,24,24s24-10.7,24-24S-885.7,977-899,977z M-899,1019
		c-9.9,0-18-8.1-18-18s8.1-18,18-18s18,8.1,18,18S-889.1,1019-899,1019z"/>
	<g id="Group_9014">
		<g id="Group_9013">
			<path id="Path_18972" class="st1" d="M-899,982c-10.5,0-19,8.5-19,19s8.5,19,19,19s19-8.5,19-19C-880,990.5-888.5,982-899,982z
				 M-899,1018c-9.4,0-17-7.6-17-17s7.6-17,17-17s17,7.6,17,17C-882,1010.4-889.6,1018-899,1018z"/>
			<path id="Rectangle_4664" class="st1" d="M-866,1007h2v4h-2V1007z"/>
			<path id="Rectangle_4665" class="st1" d="M-866,995h2v8h-2V995z"/>
			<path id="Rectangle_4666" class="st1" d="M-934,999h2v8h-2V999z"/>
			<path id="Rectangle_4667" class="st1" d="M-934,991h2v4h-2V991z"/>
			<path id="Path_18973" class="st1" d="M-853.8,1022H-864v-7h-2v9h7.8l-14.8,17.5l-14.8-17.5h6.8v-2h-4.5
				c11.6-7.5,15-22.9,7.5-34.5c-6.4-9.9-18.9-14-29.9-9.8l-17.1-20.2l-19.2,22.5h10.2v7h2v-9h-7.8l14.8-17.5l14.8,17.5h-6.8v2h4.5
				c-11.6,7.5-15,22.9-7.5,34.5c6.4,9.9,18.9,14,29.9,9.8l17.1,20.2L-853.8,1022z M-922,1001c0-12.7,10.3-23,23-23s23,10.3,23,23
				s-10.3,23-23,23C-911.7,1024-922,1013.7-922,1001z"/>
		</g>
		<path id="Rectangle_4687" class="st1" d="M-906,1003.1h9.3v1.6h-9.3V1003.1z"/>
		<path id="Path_18985" class="st1" d="M-901.6,989.4h-2.4v10h8.2c0.3,0,0.5,0,0.8,0c2.8,0.2,4.8,2.2,4.6,4.5c0,0.2,0,0.5,0,0.7
			c-0.3,2.3-2.7,4-5.4,3.8h-2.5l-6.1,0v1.9h8.9c0.3,0,0.6,0,0.8,0c3.9-0.2,6.9-3,6.8-6.3c0-0.2,0-0.4,0-0.6
			c-0.2-3.4-3.6-5.9-7.6-5.7h-6.1V989.4z"/>
	</g>
</g>
<path id="Rectangle_4668" class="st2" d="M-949,951h100v100h-100V951z"/>
</svg>
