<?xml version="1.0" encoding="utf-8"?>
<!-- Generator: Adobe Illustrator 19.0.0, SVG Export Plug-In . SVG Version: 6.00 Build 0)  -->
<svg version="1.1" id="ic_staking_on" xmlns="http://www.w3.org/2000/svg" xmlns:xlink="http://www.w3.org/1999/xlink" x="0px"
	 y="0px" viewBox="-949 951 100 100" style="enable-background:new -949 951 100 100;" xml:space="preserve">
<style type="text/css">
	.st0{fill:#D6D6D6;}
	.st1{fill:#666666;}
	.st2{fill:none;}
</style>
<g id="Group_9018">
	<g id="Group_9016">
		<ellipse id="Ellipse_613" class="st0" cx="-869" cy="1007" rx="12" ry="4"/>
		<ellipse id="Ellipse_614" class="st0" cx="-885" cy="1019" rx="12" ry="4"/>
		<path id="Rectangle_4669" class="st0" d="M-917,975h14v14h-14V975z"/>
	</g>
	<g id="Group_9017">
		<path id="Rectangle_4670" class="st1" d="M-937,1011h2v4h-2V1011z"/>
		<path id="Path_18975" class="st1" d="M-857,1009c0.6-0.5,0.9-1.2,1-2c0-3.3-6.5-5-13-5s-13,1.7-13,5c0,0.8,0.4,1.5,1,2
			c-1.1,0.9-1.3,2.5-0.4,3.6c0.1,0.1,0.2,0.3,0.4,0.4c-0.3,0.3-0.6,0.7-0.8,1.2c-0.4,0-0.8-0.1-1.2-0.1V990h5v-16h-18.4
			c3.9-3.1,4.5-8.8,1.4-12.6c-3.1-3.9-8.8-4.5-12.6-1.4c-1,0.8-1.8,1.8-2.4,2.9c-2.3-4.4-7.7-6.2-12.1-3.9s-6.2,7.7-3.9,12.1
			c0.6,1.1,1.4,2.1,2.4,2.9H-942v16h5v17h2v-17h50v24c-6.5,0-13,1.7-13,5c0,0.8,0.4,1.5,1,2c-1.1,0.9-1.3,2.5-0.4,3.6
			c0.1,0.1,0.2,0.3,0.4,0.4c-0.3,0.3-0.6,0.6-0.7,1H-935v-7h-2v9h39.2c0.2,0.4,0.4,0.7,0.7,1c-1.1,0.9-1.3,2.5-0.4,3.6
			c0.1,0.1,0.2,0.3,0.4,0.4c-1.1,0.9-1.3,2.5-0.4,3.6c0.1,0.1,0.2,0.3,0.4,0.4c-0.6,0.5-0.9,1.2-1,2c0,3.3,6.5,5,13,5
			c5.9,0,11.8-1.4,12.8-4.2c1,0.1,2.1,0.2,3.2,0.2c6.5,0,13-1.7,13-5c0-0.8-0.4-1.5-1-2c1.1-0.9,1.3-2.5,0.4-3.6
			c-0.1-0.1-0.2-0.3-0.4-0.4c1.1-0.9,1.3-2.5,0.4-3.6c-0.1-0.1-0.2-0.3-0.4-0.4c1.1-0.9,1.3-2.5,0.4-3.6c-0.1-0.1-0.2-0.3-0.4-0.4
			c1.1-0.9,1.3-2.5,0.4-3.6c-0.1-0.1-0.2-0.3-0.4-0.4c1.1-0.9,1.3-2.5,0.4-3.6c-0.1-0.1-0.2-0.3-0.4-0.4c1.1-0.9,1.3-2.5,0.4-3.6
			C-856.7,1009.2-856.8,1009.1-857,1009z M-918,988h-22v-12h22V988z M-925,967c0-3.9,3.1-7,7-7s7,3.1,7,7v7h-7
			C-921.9,974-925,970.9-925,967z M-904,988h-12v-12h12V988z M-909,974v-7c0-3.9,3.1-7,7-7s7,3.1,7,7s-3.1,7-7,7H-909z M-902,988
			v-12h22v12H-902z M-898,1027c0,0.2,0,0.3,0.1,0.5C-898,1027.3-898,1027.2-898,1027z M-885,1042c-7.1,0-11-2-11-3
			c0-0.2,0.2-0.5,0.7-0.8c2.5,1.2,6.4,1.8,10.3,1.8s7.8-0.6,10.3-1.8c0.4,0.3,0.7,0.6,0.7,0.8C-874,1040-877.9,1042-885,1042z
			 M-885,1038c-7.1,0-11-2-11-3c0-0.2,0.2-0.5,0.7-0.8c2.5,1.2,6.4,1.8,10.3,1.8s7.8-0.6,10.3-1.8c0.4,0.3,0.7,0.6,0.7,0.8
			C-874,1036-877.9,1038-885,1038z M-885,1034c-7.1,0-11-2-11-3c0-0.2,0.2-0.5,0.7-0.8c2.5,1.2,6.4,1.8,10.3,1.8s7.8-0.6,10.3-1.8
			c0.4,0.3,0.7,0.6,0.7,0.8C-874,1032-877.9,1034-885,1034z M-885,1030c-7.1,0-11-2-11-3c0-0.2,0.2-0.5,0.7-0.8
			c2.5,1.2,6.4,1.8,10.3,1.8s7.8-0.6,10.3-1.8c0.4,0.3,0.7,0.6,0.7,0.8C-874,1028-877.9,1030-885,1030z M-885,1026c-7.1,0-11-2-11-3
			c0-0.2,0.2-0.5,0.7-0.8c2.5,1.2,6.4,1.8,10.3,1.8s7.8-0.6,10.3-1.8c0.4,0.3,0.7,0.6,0.7,0.8C-874,1024-877.9,1026-885,1026z
			 M-885,1022c-7.1,0-11-2-11-3s3.9-3,11-3s11,2,11,3S-877.9,1022-885,1022z M-869,1038c-1.2,0-2.3-0.1-3.3-0.2
			c-0.2-0.3-0.4-0.6-0.6-0.8c0.3-0.3,0.6-0.7,0.8-1.2c1,0.1,2.1,0.2,3.2,0.2c3.9,0,7.8-0.6,10.3-1.8c0.4,0.3,0.7,0.6,0.7,0.8
			C-858,1036-861.9,1038-869,1038z M-869,1034c-1.2,0-2.3-0.1-3.3-0.2c-0.2-0.3-0.4-0.6-0.6-0.8c0.3-0.3,0.6-0.7,0.8-1.2
			c1,0.1,2.1,0.2,3.2,0.2c3.9,0,7.8-0.6,10.3-1.8c0.4,0.3,0.7,0.6,0.7,0.8C-858,1032-861.9,1034-869,1034z M-869,1030
			c-1.2,0-2.3-0.1-3.3-0.2c-0.2-0.3-0.4-0.6-0.6-0.8c0.3-0.3,0.6-0.7,0.8-1.2c1,0.1,2.1,0.2,3.2,0.2c3.9,0,7.8-0.6,10.3-1.8
			c0.4,0.3,0.7,0.6,0.7,0.8C-858,1028-861.9,1030-869,1030z M-869,1026c-1.2,0-2.3-0.1-3.3-0.2c-0.2-0.3-0.4-0.6-0.6-0.8
			c0.3-0.3,0.6-0.7,0.8-1.2c1,0.1,2.1,0.2,3.2,0.2c3.9,0,7.8-0.6,10.3-1.8c0.4,0.3,0.7,0.6,0.7,0.8C-858,1024-861.9,1026-869,1026z
			 M-869,1022c-1.2,0-2.3-0.1-3.3-0.2c-0.2-0.3-0.4-0.6-0.6-0.8c0.3-0.3,0.6-0.7,0.8-1.2c1,0.1,2.1,0.2,3.2,0.2
			c3.9,0,7.8-0.6,10.3-1.8c0.4,0.3,0.7,0.6,0.7,0.8C-858,1020-861.9,1022-869,1022z M-869,1018c-1.2,0-2.3-0.1-3.3-0.2
			c-0.6-1.2-2.2-2.1-4.2-2.7c2.5,0.6,5,0.9,7.5,0.9c3.9,0,7.8-0.6,10.3-1.8c0.4,0.3,0.7,0.6,0.7,0.8C-858,1016-861.9,1018-869,1018z
			 M-879.6,1014.4c0.1-0.1,0.2-0.2,0.3-0.3c0.6,0.3,1.2,0.5,1.8,0.7C-878.2,1014.7-878.9,1014.5-879.6,1014.4z M-869,1014
			c-7.1,0-11-2-11-3c0-0.2,0.2-0.5,0.7-0.8c2.5,1.2,6.4,1.8,10.3,1.8s7.8-0.6,10.3-1.8c0.4,0.3,0.7,0.6,0.7,0.8
			C-858,1012-861.9,1014-869,1014z M-869,1010c-7.1,0-11-2-11-3s3.9-3,11-3s11,2,11,3S-861.9,1010-869,1010z"/>
		<g>
			<path id="XMLID_26_" class="st1" d="M-902.1,1012.4h-4.8c-0.2,0-0.3,0-0.5,0c-2.4-0.1-4.3-1.8-4.1-3.9c0-0.1,0-0.3,0-0.4
				c0.1-2.1,2.2-3.6,4.6-3.5h4.8L-902.1,1012.4z M-903.6,1005.8h-3.1c-0.2,0-0.3,0-0.5,0c-1.7,0.1-2.9,1.3-2.8,2.8
				c0,0.1,0,0.3,0,0.4c0.2,1.4,1.6,2.4,3.3,2.3h1.6l1.6,0V1005.8z"/>
			<g id="XMLID_23_">
				<path id="XMLID_24_" class="st1" d="M-912.5,1003.5h-3.3v5.9c0,0.4,0,0.7,0.1,0.9c0.1,0.2,0.2,0.4,0.3,0.6
					c0.1,0.1,0.3,0.2,0.5,0.3c0.2,0.1,0.4,0.1,0.6,0.1c0.2,0,0.4,0,0.6-0.1c0.2-0.1,0.4-0.1,1.1-0.3l0.1,1.3c-0.7,0.2-1,0.2-1.2,0.3
					c-0.3,0.1-0.6,0.1-0.9,0.1c-0.3,0-0.6,0-0.9-0.1c-0.3-0.1-0.6-0.2-0.9-0.4c-0.3-0.2-0.5-0.5-0.6-0.8c-0.2-0.3-0.3-0.8-0.3-1.4
					v-6.3h-2.1v-1.2h2.1v-2.8h1.5v2.8h3.3V1003.5z"/>
			</g>
			<path id="Rectangle_4687_11_" class="st1" d="M-916.3,1004.7h3.8v1.2h-3.8V1004.7z"/>
			<path id="Rectangle_4687_10_" class="st1" d="M-924.7,1008h-5.7v1h5.7V1008z"/>
			<path id="Path_18985_14_" class="st1" d="M-927.8,1004.7h3.7c2.4-0.1,4.5,1.5,4.6,3.5c0,0.1,0,0.3,0,0.4c0.1,2-1.7,3.8-4.1,3.9
				c-0.2,0-0.3,0-0.5,0h-5.5v-1.1l3.7,0h1.6c1.7,0.1,3.1-0.9,3.3-2.3c0-0.1,0-0.3,0-0.4c0.1-1.4-1.1-2.7-2.8-2.8c-0.2,0-0.3,0-0.5,0
				h-5v-6.1h1.5V1004.7z"/>
			<path id="Path_18985_13_" class="st1" d="M-892.1,1004.7h-3.7c-2.4-0.1-4.5,1.5-4.6,3.5c0,0.1,0,0.3,0,0.4
				c-0.1,2,1.7,3.8,4.1,3.9c0.2,0,0.3,0,0.5,0h5.5v-1.1l-3.7,0h-1.6c-1.7,0.1-3.1-0.9-3.3-2.3c0-0.1,0-0.3,0-0.4
				c-0.1-1.4,1.1-2.7,2.8-2.8c0.2,0,0.3,0,0.5,0h5v-6.1h-1.5V1004.7z"/>
			<path id="Rectangle_4687_9_" class="st1" d="M-895.1,1007.9h5.7v1h-5.7V1007.9z"/>
		</g>
	</g>
</g>
<path id="Rectangle_4672" class="st2" d="M-949,951h100v100h-100V951z"/>
</svg>
