<?xml version="1.0" encoding="utf-8"?>
<!-- Generator: Adobe Illustrator 19.0.0, SVG Export Plug-In . SVG Version: 6.00 Build 0)  -->
<svg version="1.1" id="Layer_1" xmlns="http://www.w3.org/2000/svg" xmlns:xlink="http://www.w3.org/1999/xlink" x="0px" y="0px"
	 viewBox="-975 971 49 60" style="enable-background:new -975 971 49 60;" xml:space="preserve">
<style type="text/css">
	.st0{fill:#FEFEFE;}
	.st1{fill:#FFFFFF;}
</style>
<g>
	<g>
		<path class="st0" d="M-926.1,998.5c-0.1,0.2,0,0.5,0,0.7c0,0.6,0.1,1.1,0,1.7c0,0.5,0,1.1-0.1,1.6c-0.1,1-0.2,2.1-0.4,3.1
			c-0.5,2.2-1.2,4.3-2.3,6.3c-1,2-2.3,3.7-3.8,5.3c-2.1,2.3-4.6,4-7.4,5.4c-1.9,0.9-3.9,1.5-6,1.9c-1.2,0.2-2.5,0.4-3.8,0.4
			c-1.3,0-2.6,0-3.9-0.2c-3.6-0.5-7-1.7-10.1-3.7c-1.6-1-3.1-2.2-4.4-3.6c-2.9-3-4.8-6.5-5.9-10.5c-0.3-1.1-0.5-2.2-0.6-3.3
			c-0.1-1.1-0.2-2.3-0.2-3.4c0.1-3.4,0.8-6.7,2.2-9.9c1.1-2.4,2.6-4.6,4.4-6.5c2.7-2.8,5.9-4.9,9.5-6.3c1.4-0.5,2.9-0.9,4.4-1.1
			c0.5-0.1,1-0.1,1.6-0.2c0.3,0,0.6,0,0.9-0.1c0.9-0.1,1.7-0.1,2.6,0c0.4,0,0.7,0.1,1.1,0.1c0.6,0,1.2,0.1,1.8,0.2
			c1.3,0.2,2.6,0.6,3.9,1c2.7,1,5.2,2.3,7.5,4.2c2.8,2.3,5,5.1,6.6,8.5c0.9,1.9,1.5,3.9,1.9,6C-926.3,996.9-926.2,997.7-926.1,998.5
			C-926.2,998.5-926.2,998.5-926.1,998.5z M-926.5,996.5C-926.5,996.5-926.5,996.5-926.5,996.5
			C-926.5,996.5-926.5,996.5-926.5,996.5C-926.5,996.5-926.5,996.5-926.5,996.5C-926.5,996.5-926.5,996.5-926.5,996.5z
			 M-926.8,996.3C-926.8,996.3-926.8,996.3-926.8,996.3c0.1,0.1,0.1,0.1,0.1,0.1c0,0,0,0,0,0C-926.7,996.3-926.7,996.3-926.8,996.3
			C-926.8,996.3-926.8,996.3-926.8,996.3C-926.8,996.3-926.8,996.3-926.8,996.3C-926.8,996.3-926.8,996.2-926.8,996.3
			c-0.1-0.1-0.1-0.1-0.1-0.1c0,0,0,0,0,0c0,0,0,0,0,0c0,0,0,0,0,0c0,0-0.1-0.1-0.1-0.1c0,0.1,0,0.1,0.1,0.1c0,0,0,0,0,0c0,0,0,0,0,0
			c0,0,0,0,0,0C-926.9,996.2-926.9,996.3-926.8,996.3C-926.9,996.3-926.8,996.3-926.8,996.3C-926.8,996.3-926.8,996.3-926.8,996.3z
			 M-927.4,995.8C-927.4,995.8-927.4,995.8-927.4,995.8c0-0.1,0-0.1,0-0.2c-1-4.3-2.9-8.1-6-11.3c-4.4-4.5-9.7-6.9-15.9-7.2
			c-2.6-0.1-5.2,0.2-7.7,0.9c-4.5,1.3-8.2,3.7-11.3,7.3c-3.4,4-5.3,8.7-5.6,14c-0.1,2.4,0.1,4.8,0.7,7.2c1.4,5.2,4.2,9.5,8.5,12.8
			c3.3,2.6,7.1,4.1,11.3,4.7c1.8,0.2,3.5,0.2,5.3,0.1c1.8-0.2,3.5-0.5,5.2-1.1c6.5-2.3,11.2-6.5,14-12.8c1.3-2.9,2-6,2-9.2
			c0-1.3-0.1-2.6-0.3-4C-927.2,996.6-927.3,996.2-927.4,995.8C-927.4,995.8-927.3,995.9-927.4,995.8
			C-927.3,995.9-927.3,995.9-927.4,995.8c0.1,0.1,0.1,0.1,0.1,0.1C-927.3,995.9-927.3,995.9-927.4,995.8
			C-927.3,995.8-927.3,995.8-927.4,995.8L-927.4,995.8z M-927.1,996C-927.1,996-927.1,996-927.1,996C-927.1,996-927.1,996-927.1,996
			C-927.1,996-927.1,996-927.1,996z"/>
		<path class="st1" d="M-927.4,995.8c0.1,0.4,0.1,0.8,0.2,1.2c0.2,1.3,0.3,2.6,0.3,4c0,3.2-0.7,6.3-2,9.2c-2.9,6.3-7.5,10.5-14,12.8
			c-1.7,0.6-3.4,0.9-5.2,1.1c-1.8,0.2-3.5,0.2-5.3-0.1c-4.2-0.5-8-2.1-11.3-4.7c-4.3-3.3-7.1-7.6-8.5-12.8c-0.6-2.4-0.8-4.8-0.7-7.2
			c0.3-5.3,2.2-10,5.6-14c3-3.5,6.8-6,11.3-7.3c2.5-0.7,5.1-1,7.7-0.9c6.2,0.3,11.6,2.7,15.9,7.2c3.1,3.2,5.1,7,6,11.3
			C-927.4,995.7-927.4,995.7-927.4,995.8C-927.4,995.8-927.4,995.8-927.4,995.8C-927.4,995.8-927.4,995.8-927.4,995.8
			C-927.4,995.8-927.4,995.8-927.4,995.8C-927.4,995.8-927.4,995.8-927.4,995.8C-927.4,995.8-927.4,995.8-927.4,995.8z
			 M-927.8,995.5c0-0.1-0.1-0.3-0.1-0.4c-0.7-2.9-2-5.6-3.7-8c-1.1-1.5-2.4-2.9-3.8-4.1c-1.7-1.5-3.6-2.6-5.6-3.5
			c-2.6-1.1-5.3-1.8-8.1-1.9c-2-0.1-4,0-6,0.4c-2.9,0.6-5.6,1.7-8.1,3.4c-1.5,1-2.9,2.2-4.1,3.5c-0.9,0.9-1.7,1.9-2.4,3
			c-0.9,1.3-1.6,2.6-2.2,4.1c-0.9,2.2-1.5,4.5-1.7,6.9c-0.1,1.2-0.1,2.5,0,3.7c0.1,1.2,0.3,2.3,0.5,3.5c0.7,2.8,1.8,5.4,3.5,7.8
			c1.2,1.7,2.5,3.2,4.1,4.5c1.7,1.4,3.5,2.6,5.5,3.5c2.1,1,4.4,1.6,6.7,1.9c1.5,0.2,3.1,0.2,4.6,0.1c1.4-0.1,2.8-0.3,4.2-0.7
			c3.1-0.8,5.9-2.3,8.4-4.2c0.4-0.3,0.8-0.7,1.2-1.1c0.2,0,0.3-0.1,0.5-0.2c0.2-0.1,0.2-0.3,0.1-0.4c0,0,0-0.1,0.1-0.1
			c1.2-1.2,2.2-2.4,3.1-3.8c1-1.6,1.8-3.3,2.5-5c0.8-2.4,1.2-4.8,1.3-7.4c0-1.3-0.1-2.5-0.3-3.8c-0.1-0.5-0.2-0.9-0.2-1.4
			c0,0,0.1,0,0.1,0C-927.7,995.5-927.8,995.5-927.8,995.5z M-927.6,995.6C-927.6,995.6-927.6,995.6-927.6,995.6
			C-927.6,995.6-927.6,995.7-927.6,995.6C-927.6,995.7-927.6,995.7-927.6,995.6C-927.6,995.6-927.6,995.6-927.6,995.6z
			 M-927.5,995.7C-927.5,995.7-927.5,995.7-927.5,995.7C-927.5,995.7-927.5,995.7-927.5,995.7C-927.5,995.7-927.5,995.7-927.5,995.7
			C-927.5,995.7-927.5,995.7-927.5,995.7z"/>
		<path class="st1" d="M-927,996.1c0,0-0.1,0-0.1-0.1C-927,996.1-927,996.1-927,996.1C-927,996.1-927,996.1-927,996.1z"/>
		<path class="st1" d="M-927.4,995.8C-927.4,995.8-927.4,995.8-927.4,995.8C-927.4,995.8-927.4,995.8-927.4,995.8
			C-927.3,995.8-927.3,995.8-927.4,995.8L-927.4,995.8C-927.3,995.9-927.4,995.8-927.4,995.8z"/>
		<path class="st1" d="M-927.3,995.9C-927.3,995.9-927.3,995.9-927.3,995.9C-927.3,995.9-927.3,995.9-927.3,995.9
			C-927.3,995.9-927.3,995.9-927.3,995.9C-927.3,995.9-927.3,995.9-927.3,995.9z"/>
		<path class="st1" d="M-927.4,995.8C-927.4,995.8-927.4,995.8-927.4,995.8C-927.4,995.8-927.4,995.8-927.4,995.8
			C-927.4,995.8-927.4,995.8-927.4,995.8z"/>
		<path class="st1" d="M-926.9,996.3C-926.9,996.3-926.9,996.2-926.9,996.3C-926.9,996.2-926.9,996.2-926.9,996.3
			C-926.9,996.2-926.9,996.2-926.9,996.3C-926.9,996.2-926.9,996.3-926.9,996.3z"/>
		<path class="st1" d="M-927,996.1C-927,996.1-927,996.1-927,996.1C-927,996.1-927,996.2-927,996.1C-927,996.2-927,996.1-927,996.1
			C-927,996.1-927,996.1-927,996.1z"/>
		<path class="st1" d="M-927,996.1C-926.9,996.2-926.9,996.2-927,996.1C-926.9,996.2-926.9,996.2-927,996.1
			C-927,996.2-927,996.2-927,996.1C-927,996.2-927,996.1-927,996.1z"/>
		<path class="st1" d="M-926.9,996.2C-926.9,996.2-926.9,996.2-926.9,996.2C-926.9,996.2-926.9,996.2-926.9,996.2
			C-926.9,996.2-926.9,996.2-926.9,996.2C-926.9,996.2-926.9,996.2-926.9,996.2z"/>
		<path class="st1" d="M-926.8,996.3C-926.8,996.3-926.9,996.3-926.8,996.3C-926.9,996.3-926.9,996.2-926.8,996.3
			C-926.8,996.2-926.8,996.3-926.8,996.3C-926.8,996.3-926.8,996.3-926.8,996.3z"/>
		<path class="st1" d="M-926.8,996.3C-926.8,996.3-926.8,996.3-926.8,996.3C-926.8,996.3-926.8,996.3-926.8,996.3
			C-926.8,996.3-926.8,996.3-926.8,996.3C-926.8,996.3-926.8,996.3-926.8,996.3z"/>
		<path class="st1" d="M-926.8,996.3C-926.8,996.3-926.8,996.3-926.8,996.3C-926.8,996.3-926.8,996.3-926.8,996.3
			C-926.8,996.3-926.8,996.3-926.8,996.3C-926.8,996.3-926.8,996.3-926.8,996.3z"/>
		<path class="st1" d="M-934.2,1017.2c0.1,0.1,0,0.3-0.1,0.4c-0.1,0.1-0.3,0.1-0.5,0.2c-0.2,0-0.4-0.1-0.6-0.2
			c-0.2-0.1-0.3-0.3-0.5-0.4c-0.1-0.4-0.1-0.7,0-1.1c0.1-0.5-0.1-0.8-0.4-1.2c-0.1,0.3-0.3,0.6-0.4,0.8c0,0,0,0.1-0.1,0.1
			c-0.1,0-0.1-0.1,0-0.1c0.2-0.3,0.2-0.7,0.2-1.1c0-0.2,0-0.3,0-0.5c0-0.2,0.1-0.4,0.3-0.5c0,0,0.1,0,0.1-0.1c0.1,0,0.1-0.1,0.1-0.2
			c0-0.4-0.1-0.8-0.1-1.2c0-0.5,0-1.1,0-1.6c0-0.3-0.1-0.6,0-0.8c0.1-0.4,0.1-0.7,0.2-1.1c0-0.1,0-0.2,0.1-0.2
			c0.1-0.1,0.1-0.2,0-0.4c-0.5-0.7-1.2-1.2-1.8-1.7c-0.1-0.1-0.2-0.2-0.3-0.3c0.1,0.2,0.1,0.4,0.2,0.6c0,0,0,0.1,0,0.1
			c0.2,0.7,0.3,1.4,0.4,2.2c0.1,0.6,0,1.1-0.4,1.6c-0.2,0.2-0.3,0.3-0.4,0.5c-0.6,0.9-1.3,1.7-1.8,2.6c-0.3,0.4-0.4,0.8-0.7,1.2
			c0,0,0,0.1-0.1,0.2c-0.1,0.4-0.2,0.6-0.4,0.9c-0.1,0.1-0.1,0.2-0.2,0.3c-0.1,0.2-0.1,0.3,0,0.5c0.1,0.2,0.2,0.3,0.4,0.4
			c0.1,0.1,0.1,0.2,0,0.3c-0.1,0.1-0.1,0.1-0.2,0.2c-0.2,0-0.3,0.1-0.5,0.1c-0.1,0-0.2,0-0.3-0.1c-0.2-0.2-0.4-0.5-0.6-0.7
			c-0.2-0.2-0.2-0.4-0.1-0.6c0-0.1,0.1-0.1,0.1-0.2c0.1-0.2,0.1-0.4,0.1-0.6c0-0.2,0-0.4,0-0.6c0-0.2-0.1-0.3-0.3-0.2
			c0,0-0.1,0.1-0.1,0.1c-0.2,0.2-0.3,0.3-0.4,0.5c-0.1,0.1-0.1,0.1-0.2-0.1c0-0.1,0.1-0.1,0.1-0.2c0,0,0.1,0,0.1,0
			c0.3-0.3,0.5-0.5,0.7-0.9c0.2-0.6,0.4-0.7,1-0.7c0.1,0,0.2-0.1,0.3-0.2c0.2-0.4,0.3-0.9,0.5-1.3c0.2-0.7,0.5-1.3,1-1.8
			c0.1-0.2,0.3-0.3,0.5-0.4c0.2-0.1,0.2-0.2,0.2-0.3c0-0.3,0-0.5-0.1-0.8c0-0.1,0-0.1-0.1-0.2c-0.4-0.9-0.8-1.9-1.3-2.8
			c-0.1-0.1-0.1-0.2-0.3-0.2c-0.1,0-0.2-0.1-0.4-0.1c-0.1-0.1-0.2-0.2-0.2-0.3c-0.1-0.8-0.1-1.7,0.1-2.5c0.1-0.5,0.3-1,0.7-1.4
			c0,0,0.1-0.1,0.1-0.1c0.1,0.1,0.1,0,0.1,0c0.3-0.4,0.5-0.8,0.6-1.2c0-0.1,0-0.3-0.1-0.3c-0.2-0.1-0.1-0.3-0.2-0.4
			c0-0.1,0-0.1-0.1-0.2c-0.2-0.4-0.4-0.8-0.6-1.2c0-0.1,0-0.2-0.2-0.2c0,0,0,0,0,0c0.1,0,0.2,0,0.1-0.2c-0.1-0.3-0.2-0.7-0.2-1
			c0,0,0-0.1-0.1,0c-0.1,0.1-0.3,0.1-0.4,0.2c-0.4,0.3-0.7,0.6-1.1,0.9c-0.5,0.4-0.9,0.8-1.4,1.2c-0.4,0.3-0.8,0.6-1.2,0.9
			c-0.1,0.1-0.3,0.2-0.3,0.3c0,0.1-0.1,0.2-0.2,0.2c-0.2,0.1-0.3,0.2-0.4,0.3c-0.3,0.3-0.5,0.6-0.8,0.8c-0.4,0.3-0.8,0.6-1.3,0.9
			c-0.1,0.1-0.2,0.1-0.3,0.1c-0.1,0-0.1,0-0.1,0c0,0,0-0.1,0-0.1c0.1-0.1,0.1-0.2,0.2-0.3c-0.5,0-0.9,0.1-1.4,0.1
			c-0.1,0-0.1-0.1-0.1-0.2c0-0.1,0.1-0.1,0.1-0.1c0.3-0.1,0.6-0.1,0.9-0.2c-0.1,0-0.1,0-0.2,0c-0.3,0-0.5,0.1-0.8,0.1
			c-0.1,0-0.2,0-0.2-0.2c0-0.1,0.1-0.2,0.2-0.2c0.3,0,0.5-0.1,0.7-0.2c0,0,0.1,0,0.1-0.1c-0.3,0-0.5,0.1-0.8,0.1
			c-0.1,0-0.2,0-0.2-0.1c0-0.1,0.1-0.1,0.2-0.1c0.3,0,0.5-0.1,0.8-0.2c0.1,0,0.1,0,0.2-0.1c-0.2-0.1-0.4-0.1-0.6-0.1
			c-0.1,0-0.2,0-0.2-0.1c0-0.1,0.1-0.1,0.2-0.2c0,0,0,0,0,0c0.6,0,1.1,0,1.7-0.1c0,0,0.1,0,0.1,0c0.1,0.1,0.2,0,0.3-0.1
			c0-0.1,0.1-0.1,0.2-0.1c0.1,0,0.2-0.1,0.3-0.2c0-0.1,0.1-0.1,0.1-0.2c0-0.1,0.1-0.1,0.2-0.1c0.1,0,0.2,0,0.2-0.1
			c0-0.1,0.1-0.2,0.2-0.3c0.1-0.1,0.2-0.1,0.3-0.2c0.1-0.1,0.3-0.2,0.4-0.4c0.5-0.4,1.1-0.8,1.5-1.3c0.4-0.5,0.9-1,1.4-1.4
			c0.1-0.1,0.3-0.3,0.4-0.4c0.1-0.1,0.1-0.1,0-0.2c-0.2-0.1-0.3-0.2-0.4-0.4c-0.3-0.4-0.3-0.9-0.3-1.3c0-0.3,0.1-0.5,0.3-0.7
			c0,0,0,0,0,0c-0.2,0.4-0.3,0.8-0.2,1.2c0.1,0.3,0.2,0.7,0.5,0.8c0,0,0,0,0,0c0,0,0,0,0,0c0,0,0,0,0,0c0,0,0,0,0,0
			c-0.1-0.2-0.2-0.3-0.2-0.5c-0.1-0.4,0-0.8,0-1.2c0-0.1,0-0.2,0.1-0.3l0,0c0,0.1-0.1,0.2,0,0.3c0,0,0-0.1,0.1-0.1l0,0
			c0,0,0,0.1,0,0.1c-0.2,0.4-0.1,0.8,0.1,1.2c0,0,0.1,0.1,0,0.1c-0.1,0-0.1-0.1-0.1-0.1c0-0.1,0-0.1-0.1-0.2c0,0.3,0.1,0.6,0.4,0.8
			c0.1,0.1,0.1,0.1,0.3,0c-0.1-0.1-0.3-0.2-0.4-0.3c0,0-0.1-0.1-0.1-0.1c0.1,0.1,0.2,0.3,0.4,0.3c0,0,0.1,0.1,0.1,0
			c0.1,0,0-0.1,0-0.2c0-0.3,0-0.5,0.1-0.7c0,0.3-0.1,0.5-0.1,0.8c0.1-0.1,0.2-0.1,0.4-0.2c0.1,0,0.1-0.1,0.2-0.1
			c-0.1-0.1-0.1-0.1-0.2-0.1c-0.1-0.1-0.2-0.2-0.2-0.4c0,0,0-0.1-0.1-0.1c0-0.1,0-0.1,0-0.2c-0.1-0.5-0.1-1,0.2-1.5
			c0,0,0.1-0.1,0.1-0.1c0,0,0,0,0,0c0,0.1-0.1,0.1-0.1,0.2c-0.1,0.2-0.1,0.3-0.1,0.5c0,0.4,0,0.8,0.3,1.1c0.1,0.1,0.2,0.2,0.4,0.3
			c-0.1-0.2-0.2-0.4-0.2-0.6c0,0,0-0.1,0-0.1c-0.1-0.2-0.1-0.5-0.1-0.7c0-0.5,0.4-0.9,0.9-0.9c0.1,0,0.2-0.1,0.2-0.2
			c0,0,0-0.1,0-0.1c0-0.3,0.1-0.5,0.2-0.8c0.1-0.2,0.2-0.4,0.3-0.6c0-0.1,0.2-0.2,0.3-0.3c0.3-0.5,0.8-0.6,1.3-0.5
			c0.1,0,0.1,0,0.2,0c0,0,0,0,0,0c0,0,0,0,0,0c-0.4-0.3-1-0.3-1.4,0.1c0,0,0,0-0.1,0c0,0,0.1-0.1,0-0.1c0.5-0.3,0.9-0.6,1.5-0.3
			c-0.3-0.3-0.7-0.4-1.1-0.2c-0.4,0.1-0.7,0.4-0.8,0.7c0-0.2,0.1-0.4,0.3-0.5c0.4-0.5,1.1-0.6,1.6-0.3c0.3,0.2,0.5,0.4,0.6,0.7
			c0,0,0,0.1,0.1,0.1c0.4,0.1,0.7,0.3,1,0.5c0.3,0.3,0.7,0.5,1.1,0.6c0.1,0,0.1,0,0.2,0c0.1,0,0.2-0.1,0.1-0.2
			c0-0.2-0.1-0.4-0.1-0.5c0,0,0,0,0,0c0.1,0.2,0.1,0.4,0.1,0.7c0.3-0.1,0.5-0.2,0.7-0.3c0,0,0,0,0,0c-0.2,0.2-0.4,0.3-0.7,0.4
			c0.4,0.1,0.8,0,1.1-0.2c0,0,0,0,0,0c-0.2,0.3-0.6,0.3-0.9,0.3c-0.2,0-0.2,0-0.3,0.2c0,0,0,0,0,0c0,0.1,0,0.1,0.1,0.1
			c0.5-0.1,1-0.2,1.3-0.5c0.1-0.1,0.1-0.1,0.2-0.2c0,0.1,0,0.1,0,0.2c-0.2,0.4-0.6,0.6-1,0.7c-0.2,0.1-0.3,0.1-0.5,0.1
			c-0.1,0-0.1,0.1-0.1,0.2c0,0,0,0.1,0,0.1c0.2,0.1,0.5,0.2,0.7,0.1c0.2,0,0.3-0.1,0.5-0.1c0,0.1-0.1,0.1-0.1,0.1c0,0,0,0-0.1,0
			c0,0,0,0,0.1,0c0.2,0,0.3-0.2,0.5-0.2c0.1,0,0.2-0.2,0.3-0.3c0.1-0.1,0.1-0.3,0.1-0.4c0-0.2,0-0.3,0-0.5c0,0,0,0,0,0
			c0,0.1,0.1,0.3,0.1,0.4c0.1-0.2,0.1-0.3,0.1-0.5c0,0.1,0,0.2,0,0.3c0,0.2-0.1,0.3-0.1,0.5c0,0.3,0,0.6-0.1,0.9c0,0,0,0,0,0.1
			c0.1,0.1,0,0.3,0,0.4c0,0,0,0.1,0,0.1c0,0,0.1,0,0.1,0c0,0,0.1-0.1,0.1-0.1c0,0,0.1-0.1,0.2-0.1c0.1,0,0,0.1,0,0.2
			c0,0.1-0.1,0.2-0.1,0.3c0.2,0,0.3-0.1,0.4-0.1c0,0,0,0,0,0c-0.1,0.1-0.2,0.1-0.3,0.1c-0.2,0-0.3,0.2-0.3,0.4
			c0.2,0,0.4-0.1,0.7-0.1c-0.2,0.1-0.4,0.2-0.6,0.2c-0.1,0-0.1,0.1-0.1,0.2c0,0.1,0.1,0,0.1,0c0.2,0,0.4,0,0.5,0
			c0.4,0,0.7-0.2,0.9-0.5c0.4-0.7,0.5-1.5,0.4-2.3c0,0,0,0,0,0c0.2,0.9,0.1,1.8-0.5,2.6c0,0,0,0,0,0c0,0,0,0,0,0
			c0.1,0,0.1-0.1,0.2-0.1c0.5-0.4,0.8-0.9,0.9-1.5c0.1-0.4,0.1-0.9,0.1-1.3c0,0,0-0.1,0-0.1c0,0.1,0.1,0.3,0.1,0.4c0,0,0,0.1,0,0.1
			c0,0,0,0,0,0c0,0.4,0,0.8-0.1,1.2c-0.1,0.1-0.1,0.3-0.2,0.4c-0.2,0.4-0.4,0.9-0.9,1.1c-0.4,0.2-0.7,0.3-1.1,0.4
			c-0.1,0-0.1,0-0.2,0.1c0.4,0.1,0.8,0,1.1,0c-0.1,0-0.2,0.1-0.2,0.1c-0.4,0.1-0.8,0.2-1.2,0c-0.1,0-0.1,0-0.2,0
			c0.1,0.1,0.1,0.2,0.3,0.2c0.3,0,0.6,0,0.9,0c0.6-0.1,1.1-0.3,1.4-0.8c0.2-0.3,0.4-0.7,0.4-1.1c0.1-0.4,0.1-0.9,0-1.3
			c0.2,0.5,0.2,1,0.1,1.5c0,0,0,0,0,0c-0.3,1.2-0.9,1.8-2,1.9c-0.1,0-0.3,0-0.4,0.1c0.5,0.1,1,0,1.5,0c-0.2,0.1-0.4,0.1-0.6,0.1
			c-0.4,0.1-0.8,0.1-1.2-0.1c-0.1-0.1-0.2,0-0.3,0c0.6,0.2,1.1,0.5,1.5,0.9c0.1,0.1,0.2,0.1,0.4,0.1c0.7-0.2,1.4-0.3,2.1-0.4
			c0.2,0,0.4,0.1,0.6,0.1c0.2,0.1,0.4,0.1,0.6,0.2c0.1,0,0.1,0.1,0.2,0.1c0,0-0.1,0-0.1,0c0,0,0,0,0,0c0,0,0,0,0,0
			c-0.2-0.1-0.4-0.2-0.6-0.2c-0.2-0.1-0.4-0.1-0.6-0.1c-0.8,0-1.5,0.2-2.3,0.4c0.2,0.4,0.3,0.4,0.7,0.2c0,0,0.1,0,0.1-0.1
			c0.5-0.2,1-0.3,1.6-0.1c0.3,0.1,0.4,0.4,0.7,0.6c0,0-0.1,0-0.1,0.1c0.1,0.2,0.2,0.4,0.2,0.7c0,0.3,0,0.7-0.2,0.9
			c0-0.1,0-0.1,0-0.1c0.2-0.4,0.1-0.7,0-1.1c-0.1-0.3-0.3-0.4-0.5-0.4c0,0,0,0-0.1,0c-0.6-0.1-1.3-0.1-1.9,0c0,0-0.1,0-0.1,0.1
			c0,0.1,0,0.1,0.1,0.2c0.4,0.2,0.7,0.5,0.8,1c0,0.1,0,0.1,0.1,0.1c0,0-0.1,0-0.1,0.1c0,0.1,0,0.1,0,0.2c0.1,0.8-0.3,1.4-1.1,1.6
			c0,0,0,0-0.1,0c0.8-0.2,1.2-0.9,1-1.8c0-0.1-0.1-0.1-0.1-0.1c-0.2,0-0.4,0.1-0.7,0.1c-0.6,0.1-1.2,0.1-1.8,0
			c-0.6-0.2-1.1-0.4-1.6-0.7c-0.2-0.1-0.4-0.2-0.7-0.3c0.3,0.4,0.6,0.8,0.9,1.2c0.3,0.4,0.5,0.9,0.6,1.4c-0.3-0.7-1.1-1.9-1.4-2
			c0.3,0.4,0.5,0.8,0.7,1.3c0.3,0.6,0.4,1.2,0.4,1.3c-0.3-0.9-1.1-2.5-1.5-2.7c0,0.1,0,0.1,0,0.2c0.3,0.7,0.6,1.4,0.9,2
			c0.1,0.3,0.3,0.6,0.3,0.9c0.1,0.7,0,1.4-0.4,2c-0.4,0.6-1,0.9-1.7,1c-0.1,0-0.1,0-0.2,0c0.1,0,0.1,0,0.2,0c0.6-0.1,1.1-0.5,1.5-1
			c0.4-0.5,0.6-1.1,0.4-1.7c-0.1-0.5-0.3-1-0.5-1.4c0-0.1-0.1-0.2-0.2-0.2c0.1,0.3,0.3,0.5,0.4,0.8c0.1,0.3,0.1,0.6,0.2,0.9
			c0,0,0,0,0,0c-0.1-0.4-0.2-0.8-0.4-1.2c0.1,0.4,0,0.7,0.1,1.1c0,0.2,0,0.5,0,0.7c-0.2,0.9-0.7,1.4-1.5,1.8c0,0-0.1,0-0.1,0.1
			c-0.1,0.1-0.2,0-0.2,0.1c-0.1,0-0.1,0.2-0.1,0.3c0.5,0.5,0.8,1.1,1.2,1.7c0.3,0.5,0.6,1,1,1.5c0.2,0.3,0.3,0.5,0.2,0.8
			c0,0.3-0.2,0.6-0.2,0.9c0,0.1,0,0.2,0,0.3c0,0.2,0,0.3-0.1,0.5c-0.1,0.5-0.1,1-0.2,1.5c-0.1,0.3-0.2,0.7-0.1,1.1
			c0,0.1,0,0.1,0,0.2c-0.1,0.1-0.1,0.2-0.1,0.3c0,0.3,0,0.6-0.1,0.9c0,0.1,0,0.2,0,0.3c0,0.1,0.1,0.3,0,0.4c-0.1,0.2-0.1,0.4,0,0.6
			c0,0.2,0,0.5,0,0.7c0,0.3-0.1,0.6-0.1,0.9c0,0.2,0.2,0.4,0.3,0.6C-934.4,1016.8-934.3,1017-934.2,1017.2z M-928.9,995.9
			C-928.9,995.9-928.9,995.9-928.9,995.9c-0.4-0.3-0.9-0.3-1.3-0.1c0,0,0,0,0,0c0,0,0,0,0,0c0,0,0,0,0,0
			C-929.8,995.8-929.3,995.8-928.9,995.9c0.1,0.1,0.1,0.1,0.2,0.1c0,0,0,0,0,0c0,0,0,0,0,0C-928.8,996-928.8,995.9-928.9,995.9
			L-928.9,995.9z M-941,993.7C-941,993.7-941.1,993.6-941,993.7C-941.1,993.6-941.1,993.7-941,993.7
			C-941.1,993.7-941,993.7-941,993.7c0,0.2,0.1,0.2,0.2,0.2C-940.9,993.8-941,993.7-941,993.7z M-935.9,998.3
			C-935.9,998.3-935.9,998.3-935.9,998.3C-935.9,998.3-935.9,998.3-935.9,998.3c-0.1-0.1-0.2-0.2-0.3-0.4c0,0.1,0,0.2,0.1,0.2
			C-936,998.2-936,998.3-935.9,998.3z M-934.6,998.8C-934.6,998.8-934.6,998.8-934.6,998.8C-934.6,998.8-934.6,998.8-934.6,998.8
			C-934.6,998.8-934.6,998.8-934.6,998.8c0,0,0-0.1,0-0.1c-0.1-0.2-0.2-0.3-0.2-0.5c0-0.1,0-0.1-0.1-0.2c0,0.1,0,0.1,0.1,0.2
			c0,0.1,0.1,0.2,0.1,0.4C-934.8,998.6-934.7,998.7-934.6,998.8z M-928.9,996.1c-0.3-0.1-0.6-0.2-0.9-0.1
			C-929.5,996.1-929.2,996.1-928.9,996.1c0.1,0.1,0.2,0.1,0.3,0.1C-928.6,996.2-928.8,996.2-928.9,996.1z M-935.9,998.1
			L-935.9,998.1L-935.9,998.1c0.1,0.1,0.1,0.2,0.2,0.3c0.1,0.1,0.1,0.2,0.2,0.2C-935.5,998.4-935.6,998.2-935.9,998.1z M-933,991.5
			c-0.2,0.3-0.3,0.6-0.5,0.9c0.1,0,0.1,0,0.2-0.1c0.1-0.1,0.2-0.2,0.3-0.4C-933,991.8-933,991.6-933,991.5
			C-933,991.5-933,991.5-933,991.5C-933,991.5-933,991.5-933,991.5z M-936.7,1000c0.3-0.3,0.5-0.6,0.4-1.1c0,0.2-0.1,0.4-0.1,0.5
			C-936.5,999.6-936.6,999.8-936.7,1000C-936.7,1000-936.7,1000-936.7,1000C-936.7,1000-936.7,1000-936.7,1000z M-933.8,992.1
			c-0.1,0.1-0.3,0.1-0.4,0.2c0.2,0,0.4,0,0.5-0.2C-933.7,992.1-933.7,992.1-933.8,992.1C-933.8,992-933.7,992-933.8,992.1
			c0.3-0.1,0.4-0.3,0.5-0.5c-0.2,0.1-0.4,0.3-0.6,0.4c-0.2,0.1-0.5,0.2-0.7,0.2c0.1,0.1,0.2,0,0.3,0
			C-934.2,992.2-934,992.1-933.8,992.1z M-936.8,1002.5C-936.8,1002.5-936.8,1002.5-936.8,1002.5c0.8-0.1,1.8-1,2-1.8
			c0-0.1,0-0.2,0-0.4c-0.1-0.4-0.3-0.9-0.5-1.3c0-0.1-0.1-0.2-0.2-0.2c0.2,0.4,0.3,0.9,0.4,1.3c0,0,0,0,0,0c0-0.4-0.2-0.7-0.3-1.1
			c-0.1-0.3-0.3-0.4-0.5-0.5c0,0,0,0,0,0c0,0,0,0,0,0c0.1,0.7-0.1,1.3-0.7,1.7c-0.3,0.2-0.5,0.3-0.8,0.5c0,0-0.1,0-0.1,0.1
			c0,0.2-0.1,0.4-0.1,0.6c-0.1,0.3-0.1,0.3,0.1,0.4c0.1,0.1,0.2,0.2,0.2,0.4c0,0.1,0.1,0.2,0.1,0.2l0,0c0,0.1,0,0.1,0.1,0.1
			c0.2,0.2,0.3,0.4,0.5,0.6c0.1,0.1,0.1,0.1,0.2,0.1c0.7-0.3,1.2-0.8,1.5-1.5c0.1-0.3,0.2-0.5,0.1-0.8
			C-935.3,1002-935.8,1002.4-936.8,1002.5z M-931.1,996.9c-0.1-0.1-0.2-0.2-0.2-0.3c0-0.1-0.1-0.1-0.2,0c-0.3,0.2-0.6,0.2-0.9,0.1
			c-0.2,0-0.3-0.1-0.5-0.1c-0.3,0-0.5,0-0.8,0c0.5,0.4,1.1,0.7,1.8,0.9c-0.5,0-0.9-0.1-1.3-0.3c-0.2-0.1-0.4-0.2-0.6-0.3
			c0,0,0,0,0,0c0.2,0.1,0.4,0.2,0.6,0.3c0.5,0.2,1,0.4,1.6,0.5c0.4,0,0.9,0,1.3,0c0.3,0,0.3,0,0.2-0.3c-0.2-0.5-0.6-0.7-1.1-0.8
			C-931.2,996.6-931.1,996.7-931.1,996.9C-931.1,996.9-931.1,996.9-931.1,996.9z M-940.3,991.7c-0.4,0-0.7,0.2-0.9,0.5
			c-0.2,0.3-0.2,0.6-0.1,1c0,0,0,0,0,0c0.1-0.3,0.3-0.6,0.6-0.7c0,0,0.1,0,0.1-0.1C-940.5,992.1-940.4,991.9-940.3,991.7z
			 M-940.6,992.5c-0.3,0.1-0.5,0.4-0.5,0.8c0,0.2,0.1,0.4,0.4,0.5C-940.5,993.3-940.4,992.9-940.6,992.5z M-936.9,999.5
			C-936.9,999.6-936.9,999.6-936.9,999.5C-937,999.6-936.9,999.6-936.9,999.5c0-0.3-0.1-0.6-0.2-0.8c0,0.3,0,0.6-0.2,0.8
			c-0.2,0.3-0.2,0.6-0.2,0.9c0.3-0.1,0.4-0.2,0.5-0.3C-936.9,1000-936.9,999.8-936.9,999.5C-936.9,999.6-936.9,999.6-936.9,999.5z
			 M-933.8,995.4c0.4,0.3,0.8,0.5,1.2,0.7c0.2,0.1,0.4,0.1,0.6-0.1c0,0,0,0,0,0C-932.6,995.7-933.2,995.5-933.8,995.4z
			 M-936.8,998.1c0.1,0.5,0.1,1.1,0,1.6C-936.4,999.4-936.4,998.4-936.8,998.1z M-935.7,990.7c0,0.1,0.1,0.1,0.1,0.1
			c0.1,0.1,0.3,0.1,0.4,0.2c0.3,0,0.2,0.1,0.3-0.2c0-0.1,0-0.1-0.1-0.1C-935.3,990.6-935.5,990.7-935.7,990.7z M-938.8,988.9
			c0.3,0,0.6,0.1,0.8,0.3c0.1,0.1,0.2,0.1,0.3,0.1C-937.9,988.9-938.3,988.8-938.8,988.9z M-931.8,995.9c0-0.1,0-0.2-0.2-0.1
			c0.1,0.1,0.2,0.2,0.3,0.3c0.1,0.1,0.2,0.1,0.3,0C-931.6,995.8-931.6,995.8-931.8,995.9z M-931.9,995.6c-0.4-0.2-0.7-0.3-1-0.4
			c0.2,0.1,0.5,0.2,0.7,0.3C-932.2,995.6-932.1,995.7-931.9,995.6z M-935.5,991.3c0.1,0.1,0.2,0.1,0.3,0.2c0.1,0.1,0.2,0,0.2-0.1
			C-935.2,991.3-935.3,991.3-935.5,991.3z M-936.1,990.2c0.1,0.3,0.3,0.3,0.6,0.3C-935.7,990.4-935.9,990.3-936.1,990.2z
			 M-934.1,996.1c0.2,0.1,0.4,0.2,0.7,0.3C-933.6,996.3-933.9,996.2-934.1,996.1z M-931.8,996.2c-0.2-0.1-0.2-0.1-0.3,0.1
			C-932,996.2-931.9,996.2-931.8,996.2z M-931.6,995.7C-931.6,995.7-931.6,995.7-931.6,995.7c0.1,0.1,0.2,0.3,0.3,0.4
			C-931.3,995.9-931.4,995.8-931.6,995.7z M-934.9,991.9c0.2,0.1,0.3,0.1,0.5,0C-934.6,991.9-934.7,991.9-934.9,991.9z
			 M-934.1,993.1c-0.1-0.1-0.2-0.1-0.3-0.1C-934.3,993-934.2,993.1-934.1,993.1z M-937.3,1000.6c-0.2,0-0.2,0-0.2,0.1
			C-937.4,1000.7-937.4,1000.6-937.3,1000.6z M-934.2,996.7c0.1,0.1,0.2,0.1,0.3,0.2C-934,996.8-934.1,996.7-934.2,996.7z
			 M-934.2,996.7c0,0-0.1-0.1-0.2-0.1C-934.3,996.7-934.3,996.7-934.2,996.7z M-935.4,997.8c0,0.1,0,0.1,0.1,0.2
			C-935.4,997.9-935.4,997.9-935.4,997.8z M-931.7,995.6c-0.1,0-0.1-0.1-0.2-0.1C-931.8,995.6-931.8,995.6-931.7,995.6z
			 M-931.8,995.5c0,0-0.1-0.1-0.1-0.1C-931.9,995.5-931.9,995.5-931.8,995.5z M-932.1,995.4c0,0,0,0.1,0.1,0
			C-932,995.4-932,995.4-932.1,995.4z M-934.8,997.3C-934.8,997.3-934.8,997.3-934.8,997.3C-934.7,997.3-934.7,997.4-934.8,997.3
			C-934.7,997.3-934.7,997.2-934.8,997.3z M-935,997.9C-935,997.9-935,997.9-935,997.9C-935,997.9-935,997.9-935,997.9
			C-935,998-935,998-935,997.9C-935,998-935,998-935,997.9z M-938.8,988.9C-938.8,988.9-938.8,988.9-938.8,988.9
			C-938.8,988.9-938.8,988.9-938.8,988.9C-938.8,988.9-938.8,988.9-938.8,988.9C-938.8,988.9-938.8,988.9-938.8,988.9z
			 M-934.6,999.5C-934.6,999.5-934.6,999.5-934.6,999.5C-934.6,999.5-934.6,999.5-934.6,999.5C-934.6,999.5-934.5,999.5-934.6,999.5
			C-934.5,999.5-934.6,999.5-934.6,999.5z M-935.1,997.2C-935.1,997.2-935.1,997.2-935.1,997.2
			C-935.1,997.2-935.1,997.2-935.1,997.2C-935.1,997.2-935.1,997.2-935.1,997.2C-935.1,997.2-935.1,997.2-935.1,997.2z
			 M-935.5,997.6C-935.5,997.6-935.5,997.6-935.5,997.6C-935.5,997.6-935.5,997.6-935.5,997.6C-935.5,997.6-935.5,997.6-935.5,997.6
			C-935.5,997.6-935.5,997.6-935.5,997.6z M-935.5,997.6C-935.5,997.6-935.5,997.6-935.5,997.6
			C-935.5,997.7-935.5,997.7-935.5,997.6C-935.5,997.7-935.5,997.7-935.5,997.6C-935.5,997.7-935.5,997.6-935.5,997.6z
			 M-935.5,997.7C-935.5,997.7-935.5,997.7-935.5,997.7C-935.5,997.7-935.5,997.7-935.5,997.7C-935.5,997.7-935.5,997.7-935.5,997.7
			C-935.5,997.7-935.5,997.7-935.5,997.7z M-935.4,997.8C-935.5,997.8-935.5,997.8-935.4,997.8
			C-935.5,997.8-935.5,997.8-935.4,997.8C-935.4,997.8-935.4,997.8-935.4,997.8C-935.4,997.8-935.4,997.8-935.4,997.8z"/>
		<path class="st1" d="M-927.6,995.6C-927.6,995.6-927.6,995.6-927.6,995.6C-927.6,995.7-927.6,995.7-927.6,995.6
			C-927.6,995.7-927.6,995.6-927.6,995.6C-927.6,995.6-927.6,995.6-927.6,995.6z"/>
		<path class="st1" d="M-927.5,995.7C-927.5,995.7-927.5,995.7-927.5,995.7C-927.5,995.7-927.5,995.7-927.5,995.7
			C-927.5,995.7-927.5,995.7-927.5,995.7C-927.5,995.7-927.5,995.7-927.5,995.7z"/>
		<path class="st1" d="M-961.1,990.8c0.6-0.2,1.2-0.3,1.8-0.4c0.1,0,0.1-0.1,0.1-0.2c-0.1-0.7-0.1-1.3,0-2c0.2-1.2,0.5-2.4,1.3-3.4
			c0.1-0.2,0.2-0.3,0.4-0.4c-0.1,0.6-0.2,1.1-0.2,1.7c0,1,0.2,2,0.8,2.9c0.1,0.2,0.2,0.3,0.4,0.5c0.1,0.1,0.1,0.1,0.2,0.1
			c1-0.2,2.1-0.5,3.1-0.8c0.7-0.2,1.3-0.3,2-0.5c0.1,0,0.1,0,0.1-0.1c0.1-0.7,0-1.3-0.3-1.9c-0.4-0.9-0.9-1.7-1.5-2.5
			c-0.1-0.2-0.3-0.3-0.4-0.5c0-0.1-0.1-0.1-0.1-0.2c0.8,0.1,1.5,0.5,2.2,0.9c0.9,0.7,1.5,1.5,2.1,2.5c0.2,0.4,0.4,0.8,0.6,1.3
			c0,0.1,0.1,0.1,0.2,0.1c1.1,0,2.2,0.1,3.3,0.4c1.1,0.4,2,0.9,2.6,1.9c0.3,0.5,0.5,1,0.7,1.5c0,0,0,0.1,0,0.1
			c-0.2,0.5-0.3,0.9-0.2,1.5c0,0.1,0,0.1,0,0.2l0,0c0,0,0,0.1,0,0.1l0,0c-0.1,0.2-0.1,0.5-0.1,0.7c0,0.1,0,0.1,0,0.2
			c-0.1,0-0.1,0-0.1,0c-0.2-0.1-0.3-0.2-0.4-0.3l0,0c0,0,0-0.1-0.1-0.1l0,0c0,0,0-0.1,0-0.1c-0.2-0.4-0.2-0.8-0.1-1.2
			c0,0,0-0.1,0-0.1c0,0,0,0,0,0c0,0,0,0,0,0c0,0,0,0,0,0c0,0,0,0.1-0.1,0.1c0-0.1,0-0.2,0-0.3c0,0,0,0,0,0c0,0,0,0,0,0c0,0,0,0,0,0
			c-0.1,0.1-0.1,0.2-0.1,0.3c0,0.4-0.1,0.8,0,1.2c0.1,0.2,0.1,0.4,0.2,0.5c0,0,0,0,0,0c-0.3-0.2-0.5-0.5-0.5-0.8
			c-0.1-0.4,0-0.8,0.2-1.2c0,0,0,0,0,0c0,0,0,0,0,0c0,0,0,0,0,0c0,0,0,0,0,0c-0.2,0.2-0.3,0.4-0.3,0.7c-0.1,0.5,0,0.9,0.3,1.3
			c0.1,0.1,0.2,0.3,0.4,0.4c0.1,0.1,0.1,0.1,0,0.2c-0.1,0.1-0.3,0.3-0.4,0.4c-0.5,0.4-0.9,0.9-1.4,1.4c-0.5,0.5-1,0.9-1.5,1.3
			c-0.1,0.1-0.3,0.2-0.4,0.4c-0.1,0.1-0.2,0.2-0.3,0.2c-0.1,0.1-0.2,0.2-0.2,0.3c0,0.1-0.1,0.2-0.2,0.1c-0.1,0-0.2,0-0.2,0.1
			c0,0.1-0.1,0.1-0.1,0.2c-0.1,0.1-0.1,0.2-0.3,0.2c-0.1,0-0.2,0-0.2,0.1c-0.1,0.1-0.2,0.2-0.3,0.1c0,0-0.1,0-0.1,0
			c-0.6,0-1.1,0-1.7,0.1c0,0,0,0,0,0c-0.1,0-0.3,0-0.2,0.2c0,0.1,0.1,0.1,0.2,0.1c0.2,0,0.4,0,0.6,0.1c0,0.1-0.1,0.1-0.2,0.1
			c-0.3,0.1-0.5,0.1-0.8,0.2c-0.1,0-0.2,0-0.2,0.1c0,0.1,0.1,0.1,0.2,0.1c0.3,0,0.5-0.1,0.8-0.1c0,0.1-0.1,0.1-0.1,0.1
			c-0.2,0.1-0.5,0.1-0.7,0.2c-0.1,0-0.2,0.1-0.2,0.2c0,0.1,0.1,0.2,0.2,0.2c0.3,0,0.5-0.1,0.8-0.1c0.1,0,0.1,0,0.2,0
			c-0.3,0.1-0.6,0.1-0.9,0.2c-0.1,0-0.1,0-0.1,0.1c0,0.1,0,0.1,0.1,0.2c0,0,0,0,0,0c-0.8,0.2-1.6,0.4-2.4,0.6c-0.1,0-0.1,0-0.1,0.2
			c0.1,0.5,0.2,1,0.4,1.5c0.4,1.6,0.8,3.3,1.2,4.9c0,0.1,0.1,0.1,0.2,0.1c0.6-0.2,1.3-0.3,1.9-0.5c0.9-0.2,1.8-0.4,2.6-0.7
			c0.7-0.3,1.3-0.6,1.8-1.1c0.5-0.5,0.9-1.1,1-1.9c0.1-0.5,0-1,0-1.4c-0.1-0.4-0.2-0.8-0.5-1.1c-0.4-0.5-0.9-0.8-1.6-0.9
			c-0.5-0.1-1.1-0.1-1.7-0.1c0.3-0.2,0.5-0.5,0.8-0.8c0.1-0.1,0.2-0.2,0.4-0.3c0.1,0,0.1-0.1,0.2-0.2c0.1-0.1,0.2-0.2,0.3-0.3
			c0.4-0.3,0.8-0.6,1.2-0.9c0.5-0.4,0.9-0.8,1.4-1.2c0,0,0.1,0,0.1,0c0.6,0,1.1,0.2,1.7,0.3c0.2,0.4,0.4,0.8,0.6,1.2
			c0,0.1,0,0.1,0.1,0.2c0,0.1,0,0.3,0.2,0.4c0.1,0.1,0.1,0.2,0.1,0.3c-0.2,0.4-0.4,0.8-0.6,1.2c0,0,0,0.1-0.1,0c0,0-0.1,0-0.1,0.1
			c-0.3,0.4-0.5,0.9-0.7,1.4c-0.2,0.8-0.2,1.7-0.1,2.5c0,0.1,0.1,0.2,0.2,0.3c0.1,0.1,0.2,0.1,0.4,0.1c0.2,0,0.2,0.1,0.3,0.2
			c0.4,0.9,0.8,1.9,1.3,2.8c0,0.1,0.1,0.1,0.1,0.2c-0.1,0-0.1,0.1-0.2,0.1c-0.8,0.6-1.8,1.1-2.8,1.5c-0.1,0-0.1,0.1-0.1,0.2
			c0.1,1.3-0.1,2.6-0.6,3.8c-0.1,0.3-0.2,0.5-0.4,0.8c0,0.1-0.1,0.1-0.1,0.2c-0.1,0-0.1,0.1-0.1,0.1c-0.2,0.3-0.4,0.6-0.7,0.8
			c0,0-0.1,0.1-0.1,0.1c0,0,0,0,0,0c0,0,0-0.1,0-0.1c0.2-0.9,0.2-1.8,0.1-2.6c-0.1-0.8-0.4-1.5-0.9-2.2c-0.1-0.1-0.2-0.1-0.3-0.1
			c-0.4,0.1-0.8,0.2-1.1,0.3c-1.3,0.3-2.6,0.7-3.9,1c-0.1,0-0.1,0.1-0.2,0.2c0,0.2-0.1,0.5-0.1,0.7c0,0.6,0.2,1.2,0.5,1.7
			c0.4,0.9,1,1.6,1.6,2.4c0.1,0.1,0.2,0.2,0.3,0.3c0,0,0,0,0,0c-0.2,0-0.3-0.1-0.5-0.1c-1.1-0.3-1.9-1-2.7-1.8
			c-0.7-0.8-1.2-1.6-1.6-2.6c0-0.1-0.1-0.1-0.2-0.1c-0.7,0.2-1.4,0.3-2.1,0.5c-1.2,0.3-2.4,0.6-3.5,0.9c-0.1,0-0.1,0-0.2-0.1
			c-0.2-1-0.4-2-0.7-3c0-0.1,0-0.1,0.1-0.2c0.8-0.2,1.5-0.4,2.3-0.6c0.4-0.1,0.7-0.3,0.8-0.7c0.1-0.3,0.1-0.7,0-1
			c-0.2-1-0.5-2-0.7-3c-0.4-1.7-0.9-3.5-1.3-5.2c-0.2-0.9-0.5-1.8-0.7-2.7c0.2-0.1,0.3-0.3,0.4-0.5c0.1-0.5,0.3-1,0.4-1.4
			c0.1-0.3,0.2-0.6,0.2-1c0-0.8-0.1-1.6-0.4-2.4c-0.1-0.4-0.2-0.8-0.4-1.1c-0.1-0.2-0.2-0.3-0.4-0.4
			C-960.2,991.1-960.6,990.9-961.1,990.8z M-947.3,994.9c0-0.2,0-0.4-0.1-0.6c-0.1-0.5-0.2-1-0.6-1.4c-0.5-0.6-1.1-0.8-1.9-0.9
			c-0.8-0.1-1.7,0-2.5,0.2c-0.9,0.2-1.7,0.4-2.6,0.6c-0.1,0-0.1,0.1-0.1,0.1c0.5,1.9,1,3.9,1.5,5.8c0,0.2,0,0.2,0.2,0.1
			c1-0.3,2-0.5,3-0.8c0.4-0.1,0.9-0.2,1.3-0.4C-947.9,997.1-947.3,996.2-947.3,994.9z M-942.7,992.4L-942.7,992.4L-942.7,992.4
			L-942.7,992.4z M-942.6,992.3L-942.6,992.3L-942.6,992.3L-942.6,992.3z M-942.6,992.3L-942.6,992.3L-942.6,992.3L-942.6,992.3z"/>
		<path class="st1" d="M-966.2,1016c0.6,0.6,1.3,1.2,2,1.8c1.5,1.2,3.2,2.2,5,3c1.8,0.8,3.6,1.3,5.5,1.6c1.5,0.2,3,0.3,4.5,0.2
			c2.7-0.1,5.4-0.8,7.9-1.9c1.5-0.7,2.9-1.5,4.2-2.5c0.4-0.3,0.8-0.7,1.2-1c0.2,0.1,0.3,0.3,0.5,0.4c-0.9,0.8-1.8,1.5-2.8,2.1
			c-2.4,1.5-4.9,2.5-7.7,3.1c-2,0.4-4,0.6-6.1,0.4c-6-0.5-11.1-2.9-15.2-7.3c-2.8-3.1-4.6-6.7-5.5-10.7c-0.4-1.9-0.5-3.9-0.4-5.8
			c0.3-5.2,2.2-9.8,5.6-13.7c3.2-3.7,7.3-6,12.1-7.1c2-0.5,4.1-0.6,6.2-0.5c6.1,0.4,11.2,2.9,15.4,7.3c1.3,1.4,2.5,3.1,3.4,4.8
			c0,0.1,0.1,0.1,0.1,0.2c0,0,0,0.1,0,0.1c0.1,0.4,0.1,0.9-0.1,1.3c-0.2-0.4-0.4-0.8-0.6-1.2c-0.8-1.6-1.8-3-2.9-4.3
			c-1.3-1.5-2.8-2.8-4.4-3.9c-2.3-1.5-4.7-2.6-7.4-3.2c-1.9-0.4-3.8-0.6-5.8-0.5c-1.7,0.1-3.4,0.3-5,0.8c-2.3,0.6-4.4,1.6-6.4,2.9
			c-1.8,1.2-3.4,2.7-4.8,4.4c-2,2.4-3.4,5.2-4.2,8.2c-0.3,1.2-0.5,2.5-0.6,3.7c-0.1,1.2-0.1,2.5,0,3.7c0.2,2.2,0.7,4.4,1.5,6.5
			c0.7,1.8,1.7,3.5,2.9,5.1c0.5,0.7,1.1,1.3,1.7,2C-966.3,1015.9-966.2,1016-966.2,1016C-966.2,1016-966.2,1016-966.2,1016
			C-966.2,1016-966.2,1016-966.2,1016C-966.2,1016-966.2,1016-966.2,1016z"/>
		<path class="st1" d="M-934.8,1016.1c1-1,1.9-2.1,2.7-3.3c1.5-2.3,2.6-4.9,3.2-7.6c0.4-1.8,0.5-3.6,0.4-5.4c0-0.5,0-1-0.1-1.5
			c0,0,0.1-0.1,0-0.1l0,0c0.1,0,0.1,0,0.1-0.1l0,0c0.1,0,0.1,0,0.1-0.1l0,0c0,0,0,0,0,0l0,0c0.2-0.3,0.2-0.6,0.2-0.9
			c0-0.2-0.1-0.5-0.2-0.7c-0.1-0.1,0.1,0,0.1-0.1c0,0,0,0,0,0c0,0,0,0,0.1,0l0,0c0,0,0,0,0,0c0.1,0.3,0.1,0.6,0.2,0.9
			c0.2,1.3,0.3,2.5,0.2,3.8c-0.1,5.2-1.8,9.8-5.1,13.8c-0.5,0.6-1,1.2-1.6,1.8C-934.6,1016.5-934.8,1016.4-934.8,1016.1z"/>
		<path class="st1" d="M-929.1,995.2c-0.2-0.9-0.5-1.7-0.8-2.5c0,0,0-0.1,0-0.1c0.1-0.5,0.1-1-0.1-1.5c0.1,0.4,0.1,0.9,0,1.3
			c-0.1-0.1-0.1-0.2-0.2-0.4c0.1-0.4,0.1-0.8,0.1-1.2c0.2,0.4,0.4,0.9,0.6,1.3c0.4,1,0.8,2.1,1,3.2c0,0,0,0.1,0,0.1
			C-928.7,995.2-928.9,995.2-929.1,995.2z M-930,991C-930,991-930,990.9-930,991C-930,990.9-930.1,991-930,991
			C-930.1,991-930,991-930,991C-930,991-930,991-930,991z"/>
		<path class="st1" d="M-928.6,998.2c-0.1-0.6-0.2-1.2-0.3-1.9c0.3,0,0.5,0.1,0.5,0.4c0.1,0.4,0.1,0.7,0,1.1c0,0-0.1,0.1,0,0.1
			c0,0,0,0,0,0c0,0,0,0,0,0l0,0c0,0-0.1,0-0.1,0.1c0,0,0,0,0,0C-928.5,998.1-928.5,998.1-928.6,998.2
			C-928.5,998.2-928.5,998.2-928.6,998.2C-928.5,998.2-928.5,998.2-928.6,998.2z"/>
		<path class="st1" d="M-929,995.7c0-0.2-0.1-0.3-0.1-0.5c0.2,0,0.4,0,0.6,0.1c0.1,0.3,0.2,0.7,0.2,1c0,0,0,0,0,0c0,0,0,0,0,0
			c0,0,0,0-0.1,0c0,0,0,0,0,0C-928.6,996.2-928.7,995.9-929,995.7z"/>
		<path class="st1" d="M-941.6,992c0.1,0.5,0.2,1.1,0.2,1.6c-0.3-0.3-0.3-0.7-0.3-1.1C-941.7,992.3-941.7,992.1-941.6,992z"/>
		<path class="st1" d="M-941.8,993.5C-941.7,993.5-941.7,993.5-941.8,993.5c0.1,0.2,0.2,0.3,0.3,0.4c0,0.1,0,0.2,0,0.3
			c-0.1,0.1-0.2,0.2-0.4,0.2C-941.9,994.1-941.8,993.8-941.8,993.5C-941.8,993.6-941.8,993.6-941.8,993.5
			C-941.8,993.6-941.8,993.5-941.8,993.5L-941.8,993.5z"/>
		<path class="st1" d="M-942.5,994.1c0,0.1,0,0.1,0.1,0.1c0.1,0.1,0.2,0.2,0.4,0.3c-0.1,0.1-0.1,0.1-0.3,0c-0.2-0.2-0.3-0.5-0.4-0.8
			c0,0.1,0,0.1,0.1,0.2C-942.7,994-942.7,994-942.5,994.1C-942.6,994-942.6,994-942.5,994.1C-942.6,994.1-942.6,994.1-942.5,994.1
			L-942.5,994.1z"/>
		<path class="st1" d="M-937.7,1006.3c-0.1,0.1-0.1,0.2-0.2,0.4c-0.1-0.2-0.1-0.4-0.2-0.6C-937.9,1006.1-937.8,1006.2-937.7,1006.3z
			"/>
		<path class="st1" d="M-935,989.8c-0.1-0.3-0.2-0.5-0.3-0.8C-935.1,989.2-935,989.5-935,989.8C-935,989.8-935,989.8-935,989.8z"/>
		<path class="st1" d="M-937.6,1001.4c0,0.1,0.1,0.3,0.1,0.4C-937.7,1001.8-937.7,1001.7-937.6,1001.4z"/>
		<path class="st1" d="M-933.2,997.2C-933.2,997.2-933.2,997.2-933.2,997.2c-0.2,0-0.4-0.2-0.6-0.3c0,0,0,0,0,0
			C-933.7,997-933.4,997.1-933.2,997.2z"/>
		<path class="st1" d="M-931,999.6c-0.2,0.1-0.5,0.1-0.7,0C-931.5,999.6-931.3,999.6-931,999.6C-931.1,999.6-931,999.6-931,999.6z"
			/>
		<path class="st1" d="M-933.8,992.1c0,0,0.1,0,0.1,0c-0.2,0.1-0.3,0.2-0.5,0.2C-934.1,992.2-933.9,992.2-933.8,992.1
			C-933.8,992.1-933.8,992.1-933.8,992.1z"/>
		<path class="st1" d="M-931.6,995.7c0.1,0.1,0.3,0.2,0.3,0.4C-931.4,995.9-931.5,995.8-931.6,995.7
			C-931.6,995.7-931.6,995.7-931.6,995.7z"/>
		<path class="st1" d="M-934.9,991.9c0.2,0,0.3,0,0.5,0C-934.6,992-934.7,992-934.9,991.9z"/>
		<path class="st1" d="M-935.1,1000.1c0,0.2,0,0.4,0,0.5C-935.2,1000.5-935.2,1000.3-935.1,1000.1
			C-935.1,1000.1-935.1,1000.1-935.1,1000.1z"/>
		<path class="st1" d="M-933.7,990.3c0.1-0.1,0.2-0.2,0.3-0.3C-933.5,990.1-933.6,990.2-933.7,990.3
			C-933.7,990.3-933.7,990.3-933.7,990.3z"/>
		<path class="st1" d="M-928.9,996.2C-928.9,996.2-928.9,996.2-928.9,996.2c0.1,0,0.2,0,0.3,0.1
			C-928.7,996.3-928.8,996.2-928.9,996.2z"/>
		<path class="st1" d="M-931,990.6c0-0.1-0.1-0.2-0.1-0.3C-931,990.4-931,990.5-931,990.6C-931,990.6-931,990.6-931,990.6z"/>
		<path class="st1" d="M-941.3,997.3c-0.1,0-0.2,0-0.4-0.1c0,0,0,0,0,0C-941.5,997.2-941.4,997.3-941.3,997.3
			C-941.3,997.3-941.3,997.3-941.3,997.3z"/>
		<path class="st1" d="M-934.2,996.7c0.1,0,0.2,0.1,0.3,0.2C-934,996.8-934.1,996.8-934.2,996.7z"/>
		<path class="st1" d="M-930.2,990.4C-930.3,990.4-930.3,990.3-930.2,990.4c-0.1-0.2-0.1-0.3-0.1-0.4c0.1,0.1,0.1,0.2,0.1,0.3
			C-930.3,990.3-930.2,990.4-930.2,990.4z"/>
		<path class="st1" d="M-936.8,1002.5c-0.1,0-0.2,0-0.3,0c0,0,0,0,0,0C-937,1002.4-936.9,1002.4-936.8,1002.5
			C-936.8,1002.5-936.8,1002.5-936.8,1002.5z"/>
		<path class="st1" d="M-934.1,1000.7c0,0.1,0.1,0.2,0.1,0.3C-934.1,1000.9-934.1,1000.8-934.1,1000.7
			C-934.1,1000.7-934.1,1000.7-934.1,1000.7z"/>
		<path class="st1" d="M-928.9,996C-928.9,996-928.9,995.9-928.9,996c0.1-0.1,0.1,0,0.2,0.1l0,0C-928.8,996.1-928.8,996-928.9,996z"
			/>
		<path class="st1" d="M-934.9,998.2C-934.9,998.2-934.9,998.2-934.9,998.2c-0.1-0.1-0.1-0.1-0.1-0.2
			C-934.9,998-934.9,998.1-934.9,998.2z"/>
		<path class="st1" d="M-939.6,989.3c0,0,0.1-0.1,0.1-0.1C-939.4,989.2-939.5,989.3-939.6,989.3
			C-939.5,989.3-939.5,989.3-939.6,989.3C-939.6,989.3-939.6,989.3-939.6,989.3z"/>
		<path class="st1" d="M-934.2,996.7c-0.1,0-0.1,0-0.2-0.1C-934.3,996.6-934.3,996.6-934.2,996.7z"/>
		<path class="st1" d="M-935.4,997.8c0,0,0.1,0.1,0.1,0.2C-935.4,997.9-935.4,997.9-935.4,997.8z"/>
		<path class="st1" d="M-931.7,995.6c-0.1,0-0.1,0-0.2-0.1C-931.8,995.5-931.7,995.6-931.7,995.6z"/>
		<path class="st1" d="M-931.8,995.5c-0.1,0-0.1,0-0.1-0.1C-931.9,995.4-931.9,995.5-931.8,995.5z"/>
		<path class="st1" d="M-932.1,995.4c0.1,0,0.1,0,0.1,0C-932,995.5-932.1,995.4-932.1,995.4z"/>
		<path class="st1" d="M-935,997.9C-935,998-935,998-935,997.9C-935,998-935,998-935,997.9C-935,997.9-935,997.9-935,997.9
			C-935,997.9-935,997.9-935,997.9z"/>
		<path class="st1" d="M-930.1,990.7C-930.1,990.7-930.1,990.7-930.1,990.7C-930.1,990.7-930.1,990.7-930.1,990.7z"/>
		<path class="st1" d="M-927.8,995.6C-927.8,995.6-927.8,995.6-927.8,995.6C-927.8,995.6-927.8,995.6-927.8,995.6z"/>
		<path class="st1" d="M-942.5,994.6C-942.5,994.6-942.5,994.6-942.5,994.6C-942.5,994.6-942.5,994.6-942.5,994.6
			C-942.5,994.6-942.5,994.6-942.5,994.6z"/>
		<polygon class="st1" points="-928.7,996.1 -928.7,996.1 -928.7,996.1 		"/>
		<path class="st1" d="M-935.5,997.6C-935.5,997.6-935.5,997.6-935.5,997.6C-935.5,997.6-935.5,997.6-935.5,997.6
			C-935.5,997.6-935.5,997.6-935.5,997.6C-935.5,997.6-935.5,997.6-935.5,997.6z"/>
		<path class="st1" d="M-935.5,997.6C-935.5,997.6-935.5,997.7-935.5,997.6C-935.5,997.7-935.5,997.7-935.5,997.6
			C-935.5,997.7-935.5,997.7-935.5,997.6C-935.5,997.6-935.5,997.6-935.5,997.6z"/>
		<path class="st1" d="M-935.5,997.7C-935.5,997.7-935.5,997.7-935.5,997.7C-935.5,997.7-935.5,997.7-935.5,997.7
			C-935.5,997.7-935.5,997.7-935.5,997.7C-935.5,997.7-935.5,997.7-935.5,997.7z"/>
		<path class="st1" d="M-935.4,997.8C-935.4,997.8-935.4,997.8-935.4,997.8C-935.4,997.8-935.4,997.8-935.4,997.8
			C-935.5,997.8-935.5,997.8-935.4,997.8C-935.5,997.8-935.5,997.8-935.4,997.8z"/>
		<path class="st1" d="M-942.6,994.5C-942.5,994.6-942.5,994.6-942.6,994.5C-942.5,994.6-942.5,994.6-942.6,994.5
			C-942.5,994.6-942.6,994.6-942.6,994.5C-942.6,994.6-942.6,994.6-942.6,994.5z"/>
		<path class="st1" d="M-928.9,995.9C-928.9,995.9-928.9,995.9-928.9,995.9C-928.9,995.9-928.9,995.9-928.9,995.9z"/>
		<path class="st1" d="M-930.3,990C-930.3,990-930.3,990-930.3,990C-930.3,990-930.4,990-930.3,990
			C-930.4,989.9-930.3,989.9-930.3,990C-930.3,989.9-930.3,989.9-930.3,990z"/>
		<path class="st1" d="M-928.2,996.3C-928.2,996.3-928.2,996.3-928.2,996.3C-928.2,996.3-928.2,996.3-928.2,996.3
			C-928.2,996.4-928.3,996.4-928.2,996.3z"/>
		<path class="st1" d="M-966.2,1016L-966.2,1016C-966.1,1016-966.2,1016-966.2,1016C-966.2,1016-966.2,1016-966.2,1016
			c0-0.1,0-0.2-0.1-0.3c0-0.2,0-0.2,0.1-0.3c0.3-0.2,0.6-0.3,0.9-0.4c0.1,0,0.3-0.1,0.4-0.1c0.2-0.1,0.3-0.1,0.3-0.4
			c0-0.2-0.1-0.4-0.1-0.6c-0.1-0.5-0.1-1-0.2-1.4c-0.1-0.5-0.2-1.1-0.4-1.6c-0.2-0.6-0.2-1.1-0.3-1.7c0-0.7-0.1-1.5-0.2-2.2
			c-0.1-1-0.2-1.9-0.3-2.9c0-0.2-0.1-0.4-0.1-0.5c0-0.1-0.1-0.2-0.1-0.2c-0.1,0-0.1-0.1-0.1-0.2c-0.1-0.4,0-0.9,0-1.3
			c0.1-0.6,0.2-1.3,0.2-1.9c0-0.4,0-0.9,0-1.3c0-0.1,0-0.1-0.1-0.1c-0.1,0-0.2-0.1-0.3-0.1c-0.3,0-0.5-0.1-0.7-0.3
			c-0.1-0.1-0.1-0.2-0.2-0.2c-0.2-0.2-0.2-0.4-0.2-0.6c0-0.1,0.1-0.3,0.1-0.4c0.2-0.4,0.3-0.8,0.4-1.3c0.1-0.2,0.1-0.4,0.1-0.6
			c0-0.5,0.1-0.9,0.1-1.4c0-0.1,0-0.2,0-0.2c-0.1-0.2,0-0.3,0.1-0.5c0.2-0.3,0.4-0.5,0.8-0.6c0.3-0.1,0.5-0.3,0.8-0.4
			c0.1,0,0.2-0.1,0.2-0.2c0.1-0.2,0.3-0.5,0.5-0.7c0,0,0,0,0.1-0.1c0.2-0.2,0.2-0.3,0.1-0.5c-0.1-0.2-0.2-0.4-0.3-0.6
			c-0.1-0.2-0.2-0.3-0.3-0.4c-0.2-0.1-0.2-0.4-0.1-0.7c0-0.1,0-0.2,0-0.2c-0.1-0.3-0.2-0.6-0.2-1c0.1-0.6,0.4-1,1-1.2
			c0.5-0.2,1.1-0.1,1.6,0.1c0.6,0.3,0.8,0.7,0.8,1.4c-0.1,0.7-0.2,1.3-0.4,2c0,0,0,0.1,0,0.1l0,0c-0.1,0-0.1,0.1-0.1,0.1
			c-0.2,0.4-0.5,0.7-0.8,1c-0.2,0.2-0.5,0.3-0.8,0.2c-0.1,0-0.2-0.1-0.3-0.2c0,0-0.1-0.1-0.1,0c0,0.1,0,0.2,0,0.3
			c0,0.2,0,0.3-0.1,0.4c-0.1,0.1-0.2,0.3-0.2,0.5c0,0.7,0,1.4,0,2.1c0,0.2,0,0.3,0.1,0.5c0,0.1,0,0.1,0.1,0c0.1-0.1,0.3-0.1,0.3,0
			c0.1,0.2,0.2,0.2,0.3,0c0,0,0.1-0.1,0.1-0.2c0.2-0.4,0.3-0.8,0.5-1.2c0.3-1,0.7-1.9,1.2-2.8c0-0.1,0-0.1,0-0.2
			c0-0.2-0.1-0.3-0.1-0.5l0,0c0.1,0.1,0.1,0.2,0.3,0.2c0.1,0.1,0.2,0.1,0.3,0.2c0.2,0.3,0.5,0.4,0.8,0.5c0.5,0.2,0.9,0.3,1.4,0.5
			c0.2,0.1,0.3,0.2,0.4,0.4c0.2,0.4,0.2,0.7,0.4,1.1c0.3,0.8,0.4,1.6,0.4,2.4c0,0.3-0.1,0.6-0.2,1c-0.1,0.5-0.2,1-0.4,1.4
			c-0.1,0.2-0.2,0.4-0.4,0.5c-0.2,0.1-0.3,0.1-0.3,0.4c0,0.7,0,1.4,0,2.1c0,0.8,0.2,1.6,0.4,2.4c0,0.1,0,0.1-0.1,0.1
			c-0.2,0.1-0.3,0.1-0.5,0.2c-0.1,0-0.1,0.1-0.1,0.1c0,0.5,0,1.1-0.1,1.6c-0.1,1-0.2,2.1-0.4,3.1c0,0.3,0.1,0.5,0.1,0.8
			c0.1,0.5,0.1,0.9,0.1,1.4c0,0.1,0,0.2,0,0.3c-0.2,0.4-0.2,0.7-0.2,1.1c0,0.7,0,1.4,0,2.1c0,0.6,0.2,1.2,0.4,1.8
			c0.1,0.4,0.3,0.7,0.6,1c0.1,0.2,0.3,0.3,0.4,0.5c0.1,0.1,0.1,0.2,0.1,0.3c0,0.3-0.1,0.4-0.4,0.3c-0.2-0.1-0.5-0.2-0.7-0.2
			c-0.1,0-0.2-0.1-0.3-0.2c-0.1-0.1-0.2-0.2-0.3-0.3c-0.3-0.2-0.5-0.3-0.8-0.5c-0.1,0-0.1-0.1-0.2-0.1c-0.2-0.1-0.3-0.3-0.3-0.6
			c0-0.4,0-0.4-0.4-0.3c-0.2,0-0.3,0-0.5,0.1c-0.3,0-0.5,0.1-0.7,0.3c-0.2,0.2-0.3,0.2-0.6,0.3c-0.6,0.1-1.2,0-1.8,0
			C-966,1016.1-966.1,1016-966.2,1016z M-962.4,1012.2c-0.1-0.8-0.1-1.5-0.3-2.3c-0.2-0.6-0.3-1.3-0.2-2c0.1-0.4,0.1-0.7,0-1.1
			c0-0.1-0.1-0.3-0.2-0.4c-0.1-0.1-0.2-0.1-0.2-0.1c-0.1,0,0,0.1-0.1,0.2c0,0.2,0,0.3-0.1,0.5c-0.1,1,0,2,0.4,2.9
			c0.1,0.3,0.3,0.6,0.3,0.9C-962.7,1011.4-962.5,1011.8-962.4,1012.2c0,0.2,0,0.3,0.1,0.4C-962.4,1012.4-962.3,1012.3-962.4,1012.2z
			 M-963.6,996c0,0,0,0.1,0,0.1c0,0.3-0.1,0.6-0.2,0.9c-0.1,0.1-0.1,0.3-0.3,0.3c0,0,0,0,0,0.1c0,0.1,0,0.2,0,0.2
			c0,0.1,0,0.1,0.1,0.1c0.1,0,0.1,0,0.2-0.1c0.1-0.4,0.2-0.8,0.3-1.3C-963.6,996.3-963.6,996.1-963.6,996z"/>
		<path class="st1" d="M-939.6,989.5c0,0,0,0.1-0.1,0.2C-939.7,989.6-939.6,989.5-939.6,989.5C-939.6,989.5-939.6,989.5-939.6,989.5
			z"/>
		<path class="st1" d="M-939.6,989.4C-939.6,989.4-939.5,989.3-939.6,989.4c0.1,0,0,0.1,0,0.1c0,0,0,0,0,0
			C-939.6,989.4-939.5,989.4-939.6,989.4C-939.6,989.4-939.6,989.4-939.6,989.4z"/>
		<path class="st1" d="M-934.1,990.1c0,0,0.1,0,0.1-0.1c0,0,0,0,0,0C-934,990.1-934.1,990.1-934.1,990.1
			C-934.1,990.1-934.1,990.1-934.1,990.1z"/>
		<path class="st1" d="M-939.8,989.5C-939.8,989.5-939.8,989.6-939.8,989.5C-939.8,989.6-939.8,989.5-939.8,989.5
			C-939.8,989.5-939.8,989.5-939.8,989.5C-939.8,989.5-939.8,989.5-939.8,989.5z"/>
		<path class="st1" d="M-939.6,989.3C-939.6,989.3-939.6,989.3-939.6,989.3C-939.6,989.4-939.6,989.4-939.6,989.3
			C-939.6,989.4-939.6,989.4-939.6,989.3L-939.6,989.3C-939.6,989.3-939.6,989.3-939.6,989.3C-939.6,989.3-939.6,989.3-939.6,989.3z
			"/>
		<path class="st1" d="M-932.9,990.1C-932.9,990.1-932.9,990.2-932.9,990.1C-932.9,990.2-932.9,990.2-932.9,990.1
			C-932.9,990.2-932.9,990.1-932.9,990.1C-932.9,990.1-932.9,990.1-932.9,990.1z"/>
		<path class="st1" d="M-934,990C-934,990-934,990-934,990C-934,990-934,990-934,990C-934,990-934,990-934,990
			C-934,990-934,990-934,990z"/>
		<path class="st1" d="M-931.1,990.2C-931.1,990.2-931.1,990.2-931.1,990.2C-931.1,990.2-931.1,990.2-931.1,990.2
			C-931.1,990.2-931.1,990.2-931.1,990.2C-931.1,990.2-931.1,990.2-931.1,990.2z"/>
		<path class="st1" d="M-932.3,992.7C-932.3,992.7-932.2,992.6-932.3,992.7C-932.2,992.7-932.3,992.7-932.3,992.7
			C-932.3,992.7-932.3,992.7-932.3,992.7z"/>
		<path class="st1" d="M-939.7,989.7C-939.7,989.7-939.7,989.7-939.7,989.7C-939.7,989.7-939.7,989.7-939.7,989.7
			C-939.7,989.7-939.7,989.7-939.7,989.7C-939.7,989.7-939.7,989.7-939.7,989.7z"/>
		<path class="st1" d="M-939.8,989.5C-939.7,989.5-939.8,989.5-939.8,989.5C-939.8,989.5-939.8,989.5-939.8,989.5
			C-939.8,989.5-939.8,989.5-939.8,989.5C-939.8,989.5-939.8,989.5-939.8,989.5z"/>
		<path class="st1" d="M-939.6,989.4C-939.6,989.4-939.7,989.4-939.6,989.4C-939.7,989.4-939.7,989.4-939.6,989.4
			C-939.7,989.4-939.7,989.4-939.6,989.4C-939.7,989.4-939.6,989.4-939.6,989.4z"/>
		<path class="st1" d="M-939.7,989.4C-939.7,989.4-939.7,989.4-939.7,989.4C-939.7,989.4-939.7,989.4-939.7,989.4
			C-939.7,989.4-939.7,989.4-939.7,989.4L-939.7,989.4z"/>
		<path class="st1" d="M-939.7,989.4C-939.7,989.4-939.7,989.5-939.7,989.4L-939.7,989.4C-939.7,989.4-939.7,989.4-939.7,989.4
			C-939.7,989.4-939.7,989.4-939.7,989.4z"/>
		<path class="st1" d="M-939.7,989.4C-939.7,989.5-939.7,989.5-939.7,989.4C-939.8,989.5-939.8,989.5-939.7,989.4
			C-939.8,989.5-939.8,989.5-939.7,989.4C-939.8,989.5-939.8,989.5-939.7,989.4C-939.7,989.4-939.7,989.4-939.7,989.4z"/>
		<path class="st1" d="M-962.5,989.8C-962.5,989.8-962.5,989.8-962.5,989.8C-962.5,989.8-962.4,989.8-962.5,989.8
			C-962.5,989.8-962.5,989.8-962.5,989.8L-962.5,989.8z"/>
		<path class="st1" d="M-933.9,989.9C-933.9,990-934,990-933.9,989.9C-934,990-934,990-933.9,989.9C-934,990-934,989.9-933.9,989.9
			L-933.9,989.9z"/>
		<path class="st1" d="M-933.9,990C-934,989.9-934,989.9-933.9,990C-933.9,989.9-933.9,989.9-933.9,990
			C-933.9,989.9-933.9,989.9-933.9,990C-933.9,989.9-933.9,990-933.9,990z"/>
		<path class="st1" d="M-941.6,991.8C-941.6,991.8-941.5,991.8-941.6,991.8C-941.5,991.8-941.5,991.8-941.6,991.8
			C-941.5,991.8-941.5,991.8-941.6,991.8z"/>
		<path class="st1" d="M-942.5,994.1C-942.6,994.1-942.6,994.1-942.5,994.1C-942.5,994-942.5,994.1-942.5,994.1z"/>
		<path class="st1" d="M-941.8,993.5C-941.8,993.5-941.8,993.6-941.8,993.5C-941.8,993.5-941.8,993.5-941.8,993.5z"/>
		<path class="st1" d="M-942.7,992.5C-942.7,992.5-942.7,992.4-942.7,992.5C-942.7,992.4-942.7,992.4-942.7,992.5
			C-942.7,992.5-942.7,992.5-942.7,992.5C-942.7,992.5-942.7,992.5-942.7,992.5z"/>
		<path class="st1" d="M-942.6,992.7C-942.6,992.6-942.6,992.6-942.6,992.7C-942.6,992.6-942.6,992.6-942.6,992.7
			C-942.6,992.6-942.6,992.6-942.6,992.7C-942.6,992.7-942.6,992.7-942.6,992.7z"/>
		<path class="st1" d="M-942.9,992.5C-942.9,992.5-942.9,992.5-942.9,992.5C-942.9,992.5-942.9,992.5-942.9,992.5
			C-942.9,992.5-942.9,992.5-942.9,992.5C-942.9,992.5-942.9,992.5-942.9,992.5z"/>
		<path class="st1" d="M-942.9,992.5C-942.9,992.5-942.9,992.5-942.9,992.5C-942.9,992.5-942.9,992.5-942.9,992.5
			C-942.9,992.5-942.9,992.5-942.9,992.5z"/>
		<polygon class="st1" points="-942.7,992.4 -942.7,992.4 -942.7,992.4 		"/>
		<polygon class="st1" points="-942.6,992.3 -942.6,992.3 -942.6,992.3 		"/>
		<polygon class="st1" points="-942.6,992.3 -942.6,992.2 -942.6,992.2 		"/>
		<path class="st1" d="M-929.1,998.7c0.2-0.1,0.4-0.2,0.5-0.4c0,0,0,0,0,0C-928.7,998.5-928.9,998.6-929.1,998.7
			C-929.1,998.7-929.1,998.7-929.1,998.7z"/>
		<path class="st1" d="M-929.1,998.7C-929.1,998.7-929.1,998.7-929.1,998.7c-0.2,0.1-0.3,0.1-0.5,0.1
			C-929.4,998.8-929.3,998.7-929.1,998.7z"/>
		<path class="st1" d="M-928.6,998.2C-928.5,998.2-928.5,998.2-928.6,998.2c0.1,0,0,0.1,0,0.1C-928.6,998.3-928.6,998.3-928.6,998.2
			C-928.6,998.3-928.6,998.3-928.6,998.2C-928.6,998.2-928.6,998.2-928.6,998.2z"/>
		<path class="st1" d="M-929.7,998.7C-929.7,998.7-929.7,998.7-929.7,998.7C-929.7,998.7-929.7,998.7-929.7,998.7
			C-929.7,998.7-929.7,998.7-929.7,998.7C-929.7,998.7-929.7,998.7-929.7,998.7z"/>
		<path class="st1" d="M-929.7,998.7C-929.8,998.7-929.8,998.7-929.7,998.7C-929.7,998.7-929.7,998.7-929.7,998.7
			C-929.7,998.7-929.7,998.7-929.7,998.7z"/>
		<path class="st1" d="M-928.5,998.2C-928.5,998.1-928.5,998.1-928.5,998.2C-928.4,998.1-928.5,998.2-928.5,998.2z"/>
		<path class="st1" d="M-928.5,998.1C-928.5,998-928.4,998-928.5,998.1C-928.4,998-928.4,998.1-928.5,998.1z"/>
		<path class="st1" d="M-928.3,996.3C-928.3,996.3-928.3,996.3-928.3,996.3C-928.3,996.3-928.3,996.3-928.3,996.3z"/>
		<path class="st1" d="M-928.4,998C-928.4,998-928.4,998-928.4,998C-928.4,998-928.4,998-928.4,998z"/>
		<path class="st1" d="M-931.1,996.9C-931.1,996.9-931,996.9-931.1,996.9C-931.1,996.9-931.1,996.9-931.1,996.9
			C-931.1,996.9-931.1,996.9-931.1,996.9z"/>
		<path class="st1" d="M-930,991C-930,991-930,991-930,991C-930,991-930.1,991-930,991C-930.1,991-930,990.9-930,991
			C-930,990.9-930,991-930,991z"/>
		<path class="st1" d="M-934,1001.1C-934,1001.1-934,1001.1-934,1001.1C-934,1001.1-934,1001.1-934,1001.1
			C-934,1001.1-934,1001.1-934,1001.1C-934,1001.1-934,1001.1-934,1001.1z"/>
		<path class="st1" d="M-931.2,993.9c0,0-0.1,0-0.1,0C-931.3,993.9-931.3,993.9-931.2,993.9z"/>
		<path class="st1" d="M-941.7,997.2C-941.7,997.2-941.6,997.2-941.7,997.2C-941.7,997.2-941.7,997.2-941.7,997.2
			C-941.7,997.2-941.7,997.2-941.7,997.2C-941.7,997.2-941.7,997.2-941.7,997.2z"/>
		<path class="st1" d="M-936.9,999.7C-936.9,999.7-936.9,999.7-936.9,999.7C-936.9,999.6-936.9,999.6-936.9,999.7
			C-936.9,999.6-936.9,999.7-936.9,999.7C-936.9,999.7-936.9,999.7-936.9,999.7z"/>
		<path class="st1" d="M-962.4,1012.3C-962.4,1012.2-962.4,1012.2-962.4,1012.3c0.1,0.1,0.1,0.2,0.1,0.3
			C-962.4,1012.5-962.4,1012.4-962.4,1012.3z"/>
	</g>
</g>
</svg>
