<?xml version="1.0" encoding="utf-8"?>
<!-- Generator: Adobe Illustrator 19.0.0, SVG Export Plug-In . SVG Version: 6.00 Build 0)  -->
<svg version="1.1" id="ic_empty_multisend" xmlns="http://www.w3.org/2000/svg" xmlns:xlink="http://www.w3.org/1999/xlink" x="0px"
	 y="0px" viewBox="-949 951 100 100" style="enable-background:new -949 951 100 100;" xml:space="preserve">
<style type="text/css">
	.st0{fill:#D6D6D6;}
	.st1{fill:#666666;}
	.st2{fill:none;}
</style>
<g id="Group_9031">
	<g id="Group_9029">
		<path id="Rectangle_4683" class="st0" d="M-904,969h10v9h-10V969z"/>
		<g id="Group_9028">
			<path id="Rectangle_4684" class="st0" d="M-935,1017h6v10h-6V1017z"/>
			<path id="Rectangle_4685" class="st0" d="M-869,1017h6v10h-6V1017z"/>
			<path id="Rectangle_4686" class="st0" d="M-902,1017h6v10h-6V1017z"/>
		</g>
	</g>
	<g id="Group_9030">
		<path id="Rectangle_4688" class="st1" d="M-882,991h2v4h-2V991z"/>
		<circle id="Ellipse_626" class="st1" cx="-899" cy="1024" r="1"/>
		<circle id="Ellipse_627" class="st1" cx="-866" cy="1024" r="1"/>
		<path id="Rectangle_4689" class="st1" d="M-917,1009h4v2h-4V1009z"/>
		<path id="Path_18986" class="st1" d="M-933,1016h-3v3h-6v4h2v-2h4v7h8v-7h4v21h-16v-15h-2v17h20v-25h-6v-3h-3v-5h10v-2h-12V1016z
			 M-930,1018v8h-4v-8H-930z"/>
		<circle id="Ellipse_628" class="st1" cx="-932" cy="1024" r="1"/>
		<path id="Path_18987" class="st1" d="M-862,1019v-3h-3v-7h-33v-5h18v-5h-2v3h-34v-23h34v8h2v-8h4v-11h-13.5c2.2-2.5,2-6.3-0.5-8.5
			s-6.3-2-8.5,0.5c-0.2,0.2-0.4,0.5-0.5,0.7c-1.8-2.8-5.5-3.5-8.3-1.7s-3.5,5.5-1.7,8.3c0.2,0.3,0.4,0.5,0.6,0.7H-922v11h4v25h18v5
			h-9v2h9v5h-3v3h-6v16h2v-14h4v7h8v-7h4v21h-16v-3h-2v5h20v-25h-6v-3h-3v-5h31v5h-3v3h-6v12h2v-10h4v7h8v-7h4v21h-16v-7h-2v9h20
			v-25H-862z M-878,970v7h-15v-7H-878z M-898,964c0-2.2,1.8-4,4-4s4,1.8,4,4s-1.8,4-4,4h-4V964z M-898,970h3v7h-8v-7H-898z
			 M-904,960c2.2,0,4,1.8,4,4v4h-4c-2.2,0-4-1.8-4-4S-906.2,960-904,960z M-920,977v-7h15v7H-920z M-897,1018v8h-4v-8H-897z
			 M-864,1026h-4v-8h4V1026z"/>
		<g>
			<path id="XMLID_4_" class="st1" d="M-893.1,996.8h-3.6c-0.1,0-0.3,0-0.4,0c-1.8-0.1-3.2-1.4-3.1-2.9c0-0.1,0-0.2,0-0.3
				c0.1-1.5,1.7-2.7,3.5-2.6h3.6V996.8z M-894.3,991.8h-2.3c-0.1,0-0.2,0-0.4,0c-1.3,0.1-2.2,1-2.1,2.1c0,0.1,0,0.2,0,0.3
				c0.1,1.1,1.2,1.8,2.5,1.7h1.2l1.2,0V991.8z"/>
			<g id="XMLID_1_">
				<path id="XMLID_2_" class="st1" d="M-900.9,990.1h-2.5v4.4c0,0.3,0,0.5,0.1,0.7c0.1,0.2,0.1,0.3,0.2,0.4
					c0.1,0.1,0.2,0.2,0.4,0.2c0.1,0,0.3,0.1,0.5,0.1c0.2,0,0.3,0,0.5-0.1c0.2,0,0.3-0.1,0.8-0.2l0,1c-0.5,0.1-0.7,0.2-0.9,0.2
					c-0.2,0-0.4,0.1-0.7,0.1c-0.2,0-0.4,0-0.7-0.1c-0.2-0.1-0.4-0.2-0.6-0.3c-0.2-0.2-0.4-0.4-0.5-0.6c-0.1-0.3-0.2-0.6-0.2-1v-4.7
					h-1.6v-0.9h1.6V987h1.1v2.1h2.5V990.1z"/>
			</g>
			<path id="Rectangle_4687_4_" class="st1" d="M-903.8,991h2.9v0.9h-2.9V991z"/>
			<path id="Rectangle_4687_3_" class="st1" d="M-910.1,993.5h-4.3v0.8h4.3V993.5z"/>
			<path id="Path_18985_3_" class="st1" d="M-912.4,991h2.8c1.8-0.1,3.4,1.1,3.5,2.6c0,0.1,0,0.2,0,0.3c0.1,1.5-1.3,2.8-3.1,2.9
				c-0.1,0-0.3,0-0.4,0h-4.1v-0.9l2.8,0h1.2c1.2,0.1,2.4-0.7,2.5-1.7c0-0.1,0-0.2,0-0.3c0.1-1.1-0.9-2-2.1-2.1c-0.1,0-0.2,0-0.4,0
				h-3.8v-4.6h1.1V991z"/>
			<path id="Path_18985_2_" class="st1" d="M-885.6,991h-2.8c-1.8-0.1-3.4,1.1-3.5,2.6c0,0.1,0,0.2,0,0.3c-0.1,1.5,1.3,2.8,3.1,2.9
				c0.1,0,0.3,0,0.4,0h4.1v-0.9l-2.8,0h-1.2c-1.2,0.1-2.4-0.7-2.5-1.7c0-0.1,0-0.2,0-0.3c-0.1-1.1,0.9-2,2.1-2.1c0.1,0,0.2,0,0.4,0
				h3.8v-4.6h-1.1V991z"/>
			<path id="Rectangle_4687_2_" class="st1" d="M-887.9,993.4h4.3v0.8h-4.3V993.4z"/>
		</g>
	</g>
</g>
<path id="Rectangle_4690" class="st2" d="M-949,951h100v100h-100V951z"/>
</svg>
